<?xml version="1.0" encoding="UTF-8"?> <svg xmlns="http://www.w3.org/2000/svg" width="343" height="60" viewBox="0 0 343 60" fill="none"> <rect x="1.25" y="1.25" width="340.5" height="57.5" rx="28.75" stroke="#F2F2F2" stroke-width="2.5"></rect> <path d="M53.9482 23.8V35H51.8682V30.2H46.0762V35H43.9962V23.8H46.0762V28.424H51.8682V23.8H53.9482ZM64.7893 30.776C64.7893 30.9147 64.7786 31.112 64.7573 31.368H58.0533C58.1706 31.9973 58.4746 32.4987 58.9653 32.872C59.4666 33.2347 60.0853 33.416 60.8213 33.416C61.76 33.416 62.5333 33.1067 63.1413 32.488L64.2133 33.72C63.8293 34.1787 63.344 34.5253 62.7573 34.76C62.1706 34.9947 61.5093 35.112 60.7733 35.112C59.8346 35.112 59.008 34.9253 58.2933 34.552C57.5786 34.1787 57.024 33.6613 56.6293 33C56.2453 32.328 56.0533 31.5707 56.0533 30.728C56.0533 29.896 56.24 29.1493 56.6133 28.488C56.9973 27.816 57.5253 27.2933 58.1973 26.92C58.8693 26.5467 59.6266 26.36 60.4693 26.36C61.3013 26.36 62.0426 26.5467 62.6933 26.92C63.3546 27.2827 63.8666 27.8 64.2293 28.472C64.6026 29.1333 64.7893 29.9013 64.7893 30.776ZM60.4693 27.96C59.8293 27.96 59.2853 28.152 58.8373 28.536C58.4 28.9093 58.1333 29.4107 58.0373 30.04H62.8853C62.8 29.4213 62.5386 28.92 62.1013 28.536C61.664 28.152 61.12 27.96 60.4693 27.96ZM69.7401 26.36C70.9987 26.36 71.9587 26.664 72.6201 27.272C73.2921 27.8693 73.6281 28.776 73.6281 29.992V35H71.7401V33.96C71.4947 34.3333 71.1427 34.6213 70.6841 34.824C70.2361 35.016 69.6921 35.112 69.0521 35.112C68.4121 35.112 67.8521 35.0053 67.3721 34.792C66.8921 34.568 66.5187 34.264 66.2521 33.88C65.9961 33.4853 65.8681 33.0427 65.8681 32.552C65.8681 31.784 66.1507 31.1707 66.7161 30.712C67.2921 30.2427 68.1934 30.008 69.4201 30.008H71.6281V29.88C71.6281 29.2827 71.4467 28.824 71.0841 28.504C70.7321 28.184 70.2041 28.024 69.5001 28.024C69.0201 28.024 68.5454 28.0987 68.0761 28.248C67.6174 28.3973 67.2281 28.6053 66.9081 28.872L66.1241 27.416C66.5721 27.0747 67.1107 26.8133 67.7401 26.632C68.3694 26.4507 69.0361 26.36 69.7401 26.36ZM69.4681 33.656C69.9694 33.656 70.4121 33.544 70.7961 33.32C71.1907 33.0853 71.4681 32.7547 71.6281 32.328V31.336H69.5641C68.4121 31.336 67.8361 31.7147 67.8361 32.472C67.8361 32.8347 67.9801 33.1227 68.2681 33.336C68.5561 33.5493 68.9561 33.656 69.4681 33.656ZM84.6409 23.128V35H82.7209V33.896C82.3903 34.3013 81.9796 34.6053 81.4889 34.808C81.0089 35.0107 80.4756 35.112 79.8889 35.112C79.0676 35.112 78.3263 34.9307 77.6649 34.568C77.0143 34.2053 76.5023 33.6933 76.1289 33.032C75.7556 32.36 75.5689 31.592 75.5689 30.728C75.5689 29.864 75.7556 29.1013 76.1289 28.44C76.5023 27.7787 77.0143 27.2667 77.6649 26.904C78.3263 26.5413 79.0676 26.36 79.8889 26.36C80.4543 26.36 80.9716 26.456 81.4409 26.648C81.9103 26.84 82.3103 27.128 82.6409 27.512V23.128H84.6409ZM80.1289 33.4C80.6089 33.4 81.0409 33.2933 81.4249 33.08C81.8089 32.856 82.1129 32.5413 82.3369 32.136C82.5609 31.7307 82.6729 31.2613 82.6729 30.728C82.6729 30.1947 82.5609 29.7253 82.3369 29.32C82.1129 28.9147 81.8089 28.6053 81.4249 28.392C81.0409 28.168 80.6089 28.056 80.1289 28.056C79.6489 28.056 79.2169 28.168 78.8329 28.392C78.4489 28.6053 78.1449 28.9147 77.9209 29.32C77.6969 29.7253 77.5849 30.1947 77.5849 30.728C77.5849 31.2613 77.6969 31.7307 77.9209 32.136C78.1449 32.5413 78.4489 32.856 78.8329 33.08C79.2169 33.2933 79.6489 33.4 80.1289 33.4ZM95.5192 35.112C94.6552 35.112 93.8765 34.9253 93.1832 34.552C92.4899 34.1787 91.9459 33.6613 91.5512 33C91.1672 32.328 90.9752 31.5707 90.9752 30.728C90.9752 29.8853 91.1672 29.1333 91.5512 28.472C91.9459 27.8107 92.4899 27.2933 93.1832 26.92C93.8765 26.5467 94.6552 26.36 95.5192 26.36C96.3939 26.36 97.1779 26.5467 97.8712 26.92C98.5645 27.2933 99.1032 27.8107 99.4872 28.472C99.8819 29.1333 100.079 29.8853 100.079 30.728C100.079 31.5707 99.8819 32.328 99.4872 33C99.1032 33.6613 98.5645 34.1787 97.8712 34.552C97.1779 34.9253 96.3939 35.112 95.5192 35.112ZM95.5192 33.4C96.2552 33.4 96.8632 33.1547 97.3432 32.664C97.8232 32.1733 98.0632 31.528 98.0632 30.728C98.0632 29.928 97.8232 29.2827 97.3432 28.792C96.8632 28.3013 96.2552 28.056 95.5192 28.056C94.7832 28.056 94.1752 28.3013 93.6952 28.792C93.2259 29.2827 92.9912 29.928 92.9912 30.728C92.9912 31.528 93.2259 32.1733 93.6952 32.664C94.1752 33.1547 94.7832 33.4 95.5192 33.4ZM105.464 24.632C104.621 24.632 104.2 25.0907 104.2 26.008V26.52H106.552V28.12H104.264V35H102.264V28.12H100.856V26.52H102.264V25.976C102.264 25.0587 102.53 24.3387 103.064 23.816C103.597 23.2827 104.349 23.016 105.32 23.016C106.088 23.016 106.69 23.1707 107.128 23.48L106.568 24.984C106.226 24.7493 105.858 24.632 105.464 24.632ZM115.984 35.16C115.12 35.16 114.282 35.0373 113.472 34.792C112.672 34.5467 112.037 34.2213 111.568 33.816L112.288 32.2C112.746 32.5627 113.306 32.8613 113.968 33.096C114.64 33.32 115.312 33.432 115.984 33.432C116.816 33.432 117.434 33.2987 117.84 33.032C118.256 32.7653 118.464 32.4133 118.464 31.976C118.464 31.656 118.346 31.3947 118.112 31.192C117.888 30.9787 117.6 30.8133 117.248 30.696C116.896 30.5787 116.416 30.4453 115.808 30.296C114.954 30.0933 114.261 29.8907 113.728 29.688C113.205 29.4853 112.752 29.1707 112.368 28.744C111.994 28.3067 111.808 27.72 111.808 26.984C111.808 26.3653 111.973 25.8053 112.304 25.304C112.645 24.792 113.152 24.3867 113.824 24.088C114.506 23.7893 115.338 23.64 116.32 23.64C117.002 23.64 117.674 23.7253 118.336 23.896C118.997 24.0667 119.568 24.312 120.048 24.632L119.392 26.248C118.901 25.96 118.389 25.7413 117.856 25.592C117.322 25.4427 116.805 25.368 116.304 25.368C115.482 25.368 114.869 25.5067 114.464 25.784C114.069 26.0613 113.872 26.4293 113.872 26.888C113.872 27.208 113.984 27.4693 114.208 27.672C114.442 27.8747 114.736 28.0347 115.088 28.152C115.44 28.2693 115.92 28.4027 116.528 28.552C117.36 28.744 118.042 28.9467 118.576 29.16C119.109 29.3627 119.562 29.6773 119.936 30.104C120.32 30.5307 120.512 31.1067 120.512 31.832C120.512 32.4507 120.341 33.0107 120 33.512C119.669 34.0133 119.162 34.4133 118.48 34.712C117.797 35.0107 116.965 35.16 115.984 35.16ZM126.222 35.112C125.358 35.112 124.58 34.9253 123.886 34.552C123.193 34.1787 122.649 33.6613 122.254 33C121.87 32.328 121.678 31.5707 121.678 30.728C121.678 29.8853 121.87 29.1333 122.254 28.472C122.649 27.8107 123.193 27.2933 123.886 26.92C124.58 26.5467 125.358 26.36 126.222 26.36C127.097 26.36 127.881 26.5467 128.574 26.92C129.268 27.2933 129.806 27.8107 130.19 28.472C130.585 29.1333 130.782 29.8853 130.782 30.728C130.782 31.5707 130.585 32.328 130.19 33C129.806 33.6613 129.268 34.1787 128.574 34.552C127.881 34.9253 127.097 35.112 126.222 35.112ZM126.222 33.4C126.958 33.4 127.566 33.1547 128.046 32.664C128.526 32.1733 128.766 31.528 128.766 30.728C128.766 29.928 128.526 29.2827 128.046 28.792C127.566 28.3013 126.958 28.056 126.222 28.056C125.486 28.056 124.878 28.3013 124.398 28.792C123.929 29.2827 123.694 29.928 123.694 30.728C123.694 31.528 123.929 32.1733 124.398 32.664C124.878 33.1547 125.486 33.4 126.222 33.4ZM136.167 24.632C135.324 24.632 134.903 25.0907 134.903 26.008V26.52H137.255V28.12H134.967V35H132.967V28.12H131.559V26.52H132.967V25.976C132.967 25.0587 133.233 24.3387 133.767 23.816C134.3 23.2827 135.052 23.016 136.023 23.016C136.791 23.016 137.393 23.1707 137.831 23.48L137.271 24.984C136.929 24.7493 136.561 24.632 136.167 24.632ZM143.737 34.536C143.502 34.728 143.214 34.872 142.873 34.968C142.542 35.064 142.19 35.112 141.817 35.112C140.878 35.112 140.153 34.8667 139.641 34.376C139.129 33.8853 138.873 33.1707 138.873 32.232V28.12H137.465V26.52H138.873V24.568H140.873V26.52H143.161V28.12H140.873V32.184C140.873 32.6 140.974 32.92 141.177 33.144C141.38 33.3573 141.673 33.464 142.057 33.464C142.505 33.464 142.878 33.3467 143.177 33.112L143.737 34.536ZM158.554 26.456L155.402 35H153.482L151.274 29.112L149.034 35H147.114L143.978 26.456H145.866L148.122 32.76L150.474 26.456H152.154L154.458 32.792L156.778 26.456H158.554ZM162.928 26.36C164.186 26.36 165.146 26.664 165.808 27.272C166.48 27.8693 166.816 28.776 166.816 29.992V35H164.928V33.96C164.682 34.3333 164.33 34.6213 163.872 34.824C163.424 35.016 162.88 35.112 162.24 35.112C161.6 35.112 161.04 35.0053 160.56 34.792C160.08 34.568 159.706 34.264 159.44 33.88C159.184 33.4853 159.056 33.0427 159.056 32.552C159.056 31.784 159.338 31.1707 159.904 30.712C160.48 30.2427 161.381 30.008 162.608 30.008H164.816V29.88C164.816 29.2827 164.634 28.824 164.272 28.504C163.92 28.184 163.392 28.024 162.688 28.024C162.208 28.024 161.733 28.0987 161.264 28.248C160.805 28.3973 160.416 28.6053 160.096 28.872L159.312 27.416C159.76 27.0747 160.298 26.8133 160.928 26.632C161.557 26.4507 162.224 26.36 162.928 26.36ZM162.656 33.656C163.157 33.656 163.6 33.544 163.984 33.32C164.378 33.0853 164.656 32.7547 164.816 32.328V31.336H162.752C161.6 31.336 161.024 31.7147 161.024 32.472C161.024 32.8347 161.168 33.1227 161.456 33.336C161.744 33.5493 162.144 33.656 162.656 33.656ZM171.286 27.704C171.862 26.808 172.876 26.36 174.326 26.36V28.264C174.156 28.232 174.001 28.216 173.862 28.216C173.084 28.216 172.476 28.4453 172.038 28.904C171.601 29.352 171.382 30.0027 171.382 30.856V35H169.382V26.456H171.286V27.704ZM183.977 30.776C183.977 30.9147 183.966 31.112 183.945 31.368H177.241C177.358 31.9973 177.662 32.4987 178.153 32.872C178.654 33.2347 179.273 33.416 180.009 33.416C180.947 33.416 181.721 33.1067 182.329 32.488L183.401 33.72C183.017 34.1787 182.531 34.5253 181.945 34.76C181.358 34.9947 180.697 35.112 179.961 35.112C179.022 35.112 178.195 34.9253 177.481 34.552C176.766 34.1787 176.211 33.6613 175.817 33C175.433 32.328 175.241 31.5707 175.241 30.728C175.241 29.896 175.427 29.1493 175.801 28.488C176.185 27.816 176.713 27.2933 177.385 26.92C178.057 26.5467 178.814 26.36 179.657 26.36C180.489 26.36 181.23 26.5467 181.881 26.92C182.542 27.2827 183.054 27.8 183.417 28.472C183.79 29.1333 183.977 29.9013 183.977 30.776ZM179.657 27.96C179.017 27.96 178.473 28.152 178.025 28.536C177.587 28.9093 177.321 29.4107 177.225 30.04H182.073C181.987 29.4213 181.726 28.92 181.289 28.536C180.851 28.152 180.307 27.96 179.657 27.96ZM190.512 23.8H195.408C196.602 23.8 197.664 24.0347 198.592 24.504C199.52 24.9627 200.24 25.6187 200.752 26.472C201.264 27.3147 201.52 28.2907 201.52 29.4C201.52 30.5093 201.264 31.4907 200.752 32.344C200.24 33.1867 199.52 33.8427 198.592 34.312C197.664 34.7707 196.602 35 195.408 35H190.512V23.8ZM195.312 33.24C196.133 33.24 196.853 33.0853 197.472 32.776C198.101 32.456 198.581 32.008 198.912 31.432C199.253 30.8453 199.424 30.168 199.424 29.4C199.424 28.632 199.253 27.96 198.912 27.384C198.581 26.7973 198.101 26.3493 197.472 26.04C196.853 25.72 196.133 25.56 195.312 25.56H192.592V33.24H195.312ZM211.571 30.776C211.571 30.9147 211.56 31.112 211.539 31.368H204.835C204.952 31.9973 205.256 32.4987 205.747 32.872C206.248 33.2347 206.867 33.416 207.603 33.416C208.541 33.416 209.315 33.1067 209.923 32.488L210.995 33.72C210.611 34.1787 210.125 34.5253 209.539 34.76C208.952 34.9947 208.291 35.112 207.555 35.112C206.616 35.112 205.789 34.9253 205.075 34.552C204.36 34.1787 203.805 33.6613 203.411 33C203.027 32.328 202.835 31.5707 202.835 30.728C202.835 29.896 203.021 29.1493 203.395 28.488C203.779 27.816 204.307 27.2933 204.979 26.92C205.651 26.5467 206.408 26.36 207.251 26.36C208.083 26.36 208.824 26.5467 209.475 26.92C210.136 27.2827 210.648 27.8 211.011 28.472C211.384 29.1333 211.571 29.9013 211.571 30.776ZM207.251 27.96C206.611 27.96 206.067 28.152 205.619 28.536C205.181 28.9093 204.915 29.4107 204.819 30.04H209.667C209.581 29.4213 209.32 28.92 208.883 28.536C208.445 28.152 207.901 27.96 207.251 27.96ZM221.335 26.456L217.671 35H215.607L211.943 26.456H214.023L216.679 32.792L219.415 26.456H221.335ZM230.383 30.776C230.383 30.9147 230.372 31.112 230.351 31.368H223.647C223.764 31.9973 224.068 32.4987 224.559 32.872C225.06 33.2347 225.679 33.416 226.415 33.416C227.354 33.416 228.127 33.1067 228.735 32.488L229.807 33.72C229.423 34.1787 228.938 34.5253 228.351 34.76C227.764 34.9947 227.103 35.112 226.367 35.112C225.428 35.112 224.602 34.9253 223.887 34.552C223.172 34.1787 222.618 33.6613 222.223 33C221.839 32.328 221.647 31.5707 221.647 30.728C221.647 29.896 221.834 29.1493 222.207 28.488C222.591 27.816 223.119 27.2933 223.791 26.92C224.463 26.5467 225.22 26.36 226.063 26.36C226.895 26.36 227.636 26.5467 228.287 26.92C228.948 27.2827 229.46 27.8 229.823 28.472C230.196 29.1333 230.383 29.9013 230.383 30.776ZM226.063 27.96C225.423 27.96 224.879 28.152 224.431 28.536C223.994 28.9093 223.727 29.4107 223.631 30.04H228.479C228.394 29.4213 228.132 28.92 227.695 28.536C227.258 28.152 226.714 27.96 226.063 27.96ZM232.304 23.128H234.304V35H232.304V23.128ZM240.769 35.112C239.905 35.112 239.127 34.9253 238.433 34.552C237.74 34.1787 237.196 33.6613 236.801 33C236.417 32.328 236.225 31.5707 236.225 30.728C236.225 29.8853 236.417 29.1333 236.801 28.472C237.196 27.8107 237.74 27.2933 238.433 26.92C239.127 26.5467 239.905 26.36 240.769 26.36C241.644 26.36 242.428 26.5467 243.121 26.92C243.815 27.2933 244.353 27.8107 244.737 28.472C245.132 29.1333 245.329 29.8853 245.329 30.728C245.329 31.5707 245.132 32.328 244.737 33C244.353 33.6613 243.815 34.1787 243.121 34.552C242.428 34.9253 241.644 35.112 240.769 35.112ZM240.769 33.4C241.505 33.4 242.113 33.1547 242.593 32.664C243.073 32.1733 243.313 31.528 243.313 30.728C243.313 29.928 243.073 29.2827 242.593 28.792C242.113 28.3013 241.505 28.056 240.769 28.056C240.033 28.056 239.425 28.3013 238.945 28.792C238.476 29.2827 238.241 29.928 238.241 30.728C238.241 31.528 238.476 32.1733 238.945 32.664C239.425 33.1547 240.033 33.4 240.769 33.4ZM251.978 26.36C252.81 26.36 253.551 26.5413 254.202 26.904C254.863 27.2667 255.38 27.7787 255.754 28.44C256.127 29.1013 256.314 29.864 256.314 30.728C256.314 31.592 256.127 32.36 255.754 33.032C255.38 33.6933 254.863 34.2053 254.202 34.568C253.551 34.9307 252.81 35.112 251.978 35.112C250.826 35.112 249.914 34.728 249.242 33.96V38.104H247.242V26.456H249.146V27.576C249.476 27.1707 249.882 26.8667 250.362 26.664C250.852 26.4613 251.391 26.36 251.978 26.36ZM251.754 33.4C252.49 33.4 253.092 33.1547 253.562 32.664C254.042 32.1733 254.282 31.528 254.282 30.728C254.282 29.928 254.042 29.2827 253.562 28.792C253.092 28.3013 252.49 28.056 251.754 28.056C251.274 28.056 250.842 28.168 250.458 28.392C250.074 28.6053 249.77 28.9147 249.546 29.32C249.322 29.7253 249.21 30.1947 249.21 30.728C249.21 31.2613 249.322 31.7307 249.546 32.136C249.77 32.5413 250.074 32.856 250.458 33.08C250.842 33.2933 251.274 33.4 251.754 33.4ZM268.994 26.36C270.072 26.36 270.925 26.6747 271.554 27.304C272.184 27.9227 272.498 28.856 272.498 30.104V35H270.498V30.36C270.498 29.6133 270.333 29.0533 270.002 28.68C269.672 28.296 269.197 28.104 268.578 28.104C267.906 28.104 267.368 28.328 266.962 28.776C266.557 29.2133 266.354 29.8427 266.354 30.664V35H264.354V30.36C264.354 29.6133 264.189 29.0533 263.858 28.68C263.528 28.296 263.053 28.104 262.434 28.104C261.752 28.104 261.208 28.3227 260.802 28.76C260.408 29.1973 260.21 29.832 260.21 30.664V35H258.21V26.456H260.114V27.544C260.434 27.16 260.834 26.8667 261.314 26.664C261.794 26.4613 262.328 26.36 262.914 26.36C263.554 26.36 264.12 26.4827 264.61 26.728C265.112 26.9627 265.506 27.3147 265.794 27.784C266.146 27.336 266.6 26.9893 267.154 26.744C267.709 26.488 268.322 26.36 268.994 26.36ZM283.164 30.776C283.164 30.9147 283.154 31.112 283.132 31.368H276.428C276.546 31.9973 276.85 32.4987 277.34 32.872C277.842 33.2347 278.46 33.416 279.196 33.416C280.135 33.416 280.908 33.1067 281.516 32.488L282.588 33.72C282.204 34.1787 281.719 34.5253 281.132 34.76C280.546 34.9947 279.884 35.112 279.148 35.112C278.21 35.112 277.383 34.9253 276.668 34.552C275.954 34.1787 275.399 33.6613 275.004 33C274.62 32.328 274.428 31.5707 274.428 30.728C274.428 29.896 274.615 29.1493 274.988 28.488C275.372 27.816 275.9 27.2933 276.572 26.92C277.244 26.5467 278.002 26.36 278.844 26.36C279.676 26.36 280.418 26.5467 281.068 26.92C281.73 27.2827 282.242 27.8 282.604 28.472C282.978 29.1333 283.164 29.9013 283.164 30.776ZM278.844 27.96C278.204 27.96 277.66 28.152 277.212 28.536C276.775 28.9093 276.508 29.4107 276.412 30.04H281.26C281.175 29.4213 280.914 28.92 280.476 28.536C280.039 28.152 279.495 27.96 278.844 27.96ZM289.933 26.36C291.011 26.36 291.875 26.6747 292.525 27.304C293.176 27.9333 293.501 28.8667 293.501 30.104V35H291.501V30.36C291.501 29.6133 291.325 29.0533 290.973 28.68C290.621 28.296 290.12 28.104 289.469 28.104C288.733 28.104 288.152 28.328 287.725 28.776C287.299 29.2133 287.085 29.848 287.085 30.68V35H285.085V26.456H286.989V27.56C287.32 27.1653 287.736 26.8667 288.237 26.664C288.739 26.4613 289.304 26.36 289.933 26.36ZM301.175 34.536C300.94 34.728 300.652 34.872 300.311 34.968C299.98 35.064 299.628 35.112 299.255 35.112C298.316 35.112 297.591 34.8667 297.079 34.376C296.567 33.8853 296.311 33.1707 296.311 32.232V28.12H294.903V26.52H296.311V24.568H298.311V26.52H300.599V28.12H298.311V32.184C298.311 32.6 298.412 32.92 298.615 33.144C298.817 33.3573 299.111 33.464 299.495 33.464C299.943 33.464 300.316 33.3467 300.615 33.112L301.175 34.536Z" fill="#B1B1B1"></path> </svg> 