<?xml version="1.0" encoding="UTF-8"?> <svg xmlns="http://www.w3.org/2000/svg" width="189" height="59" viewBox="0 0 189 59" fill="none"> <path d="M23.9166 25.56H20.2046V23.8H29.7086V25.56H25.9966V35H23.9166V25.56ZM33.8885 26.36C35.1472 26.36 36.1072 26.664 36.7685 27.272C37.4405 27.8693 37.7765 28.776 37.7765 29.992V35H35.8885V33.96C35.6432 34.3333 35.2912 34.6213 34.8325 34.824C34.3845 35.016 33.8405 35.112 33.2005 35.112C32.5605 35.112 32.0005 35.0053 31.5205 34.792C31.0405 34.568 30.6672 34.264 30.4005 33.88C30.1445 33.4853 30.0165 33.0427 30.0165 32.552C30.0165 31.784 30.2992 31.1707 30.8645 30.712C31.4405 30.2427 32.3418 30.008 33.5685 30.008H35.7765V29.88C35.7765 29.2827 35.5952 28.824 35.2325 28.504C34.8805 28.184 34.3525 28.024 33.6485 28.024C33.1685 28.024 32.6938 28.0987 32.2245 28.248C31.7658 28.3973 31.3765 28.6053 31.0565 28.872L30.2725 27.416C30.7205 27.0747 31.2592 26.8133 31.8885 26.632C32.5178 26.4507 33.1845 26.36 33.8885 26.36ZM33.6165 33.656C34.1178 33.656 34.5605 33.544 34.9445 33.32C35.3392 33.0853 35.6165 32.7547 35.7765 32.328V31.336H33.7125C32.5605 31.336 31.9845 31.7147 31.9845 32.472C31.9845 32.8347 32.1285 33.1227 32.4165 33.336C32.7045 33.5493 33.1045 33.656 33.6165 33.656ZM40.3433 23.128H42.3433V35H40.3433V23.128ZM53.0003 30.776C53.0003 30.9147 52.9896 31.112 52.9683 31.368H46.2643C46.3816 31.9973 46.6856 32.4987 47.1763 32.872C47.6776 33.2347 48.2963 33.416 49.0323 33.416C49.9709 33.416 50.7443 33.1067 51.3523 32.488L52.4243 33.72C52.0403 34.1787 51.5549 34.5253 50.9683 34.76C50.3816 34.9947 49.7203 35.112 48.9843 35.112C48.0456 35.112 47.2189 34.9253 46.5043 34.552C45.7896 34.1787 45.2349 33.6613 44.8403 33C44.4563 32.328 44.2643 31.5707 44.2643 30.728C44.2643 29.896 44.4509 29.1493 44.8243 28.488C45.2083 27.816 45.7363 27.2933 46.4083 26.92C47.0803 26.5467 47.8376 26.36 48.6803 26.36C49.5123 26.36 50.2536 26.5467 50.9043 26.92C51.5656 27.2827 52.0776 27.8 52.4403 28.472C52.8136 29.1333 53.0003 29.9013 53.0003 30.776ZM48.6803 27.96C48.0403 27.96 47.4963 28.152 47.0483 28.536C46.6109 28.9093 46.3443 29.4107 46.2483 30.04H51.0963C51.0109 29.4213 50.7496 28.92 50.3123 28.536C49.8749 28.152 49.3309 27.96 48.6803 27.96ZM59.7694 26.36C60.8467 26.36 61.7107 26.6747 62.3614 27.304C63.012 27.9333 63.3374 28.8667 63.3374 30.104V35H61.3374V30.36C61.3374 29.6133 61.1614 29.0533 60.8094 28.68C60.4574 28.296 59.956 28.104 59.3054 28.104C58.5694 28.104 57.988 28.328 57.5614 28.776C57.1347 29.2133 56.9214 29.848 56.9214 30.68V35H54.9214V26.456H56.8254V27.56C57.156 27.1653 57.572 26.8667 58.0734 26.664C58.5747 26.4613 59.14 26.36 59.7694 26.36ZM71.0105 34.536C70.7758 34.728 70.4878 34.872 70.1465 34.968C69.8158 35.064 69.4638 35.112 69.0905 35.112C68.1518 35.112 67.4265 34.8667 66.9145 34.376C66.4025 33.8853 66.1465 33.1707 66.1465 32.232V28.12H64.7385V26.52H66.1465V24.568H68.1465V26.52H70.4345V28.12H68.1465V32.184C68.1465 32.6 68.2478 32.92 68.4505 33.144C68.6532 33.3573 68.9465 33.464 69.3305 33.464C69.7785 33.464 70.1518 33.3467 70.4505 33.112L71.0105 34.536ZM84.5336 32.408H78.9336L77.8296 35H75.6856L80.7256 23.8H82.7736L87.8296 35H85.6536L84.5336 32.408ZM83.8456 30.776L81.7336 25.88L79.6376 30.776H83.8456ZM92.9039 35.112C92.0185 35.112 91.2239 34.9253 90.5199 34.552C89.8159 34.1787 89.2665 33.6613 88.8719 33C88.4772 32.328 88.2799 31.5707 88.2799 30.728C88.2799 29.8853 88.4772 29.1333 88.8719 28.472C89.2665 27.8107 89.8105 27.2933 90.5039 26.92C91.2079 26.5467 92.0079 26.36 92.9039 26.36C93.7465 26.36 94.4825 26.5307 95.1119 26.872C95.7519 27.2133 96.2319 27.704 96.5519 28.344L95.0159 29.24C94.7705 28.8453 94.4612 28.552 94.0879 28.36C93.7252 28.1573 93.3252 28.056 92.8879 28.056C92.1412 28.056 91.5225 28.3013 91.0319 28.792C90.5412 29.272 90.2959 29.9173 90.2959 30.728C90.2959 31.5387 90.5359 32.1893 91.0159 32.68C91.5065 33.16 92.1305 33.4 92.8879 33.4C93.3252 33.4 93.7252 33.304 94.0879 33.112C94.4612 32.9093 94.7705 32.6107 95.0159 32.216L96.5519 33.112C96.2212 33.752 95.7359 34.248 95.0959 34.6C94.4665 34.9413 93.7359 35.112 92.9039 35.112ZM106.508 26.456V38.104H104.508V33.96C103.836 34.728 102.924 35.112 101.772 35.112C100.94 35.112 100.193 34.9307 99.5318 34.568C98.8811 34.2053 98.3691 33.6933 97.9958 33.032C97.6331 32.3707 97.4518 31.6027 97.4518 30.728C97.4518 29.864 97.6384 29.1013 98.0118 28.44C98.3851 27.7787 98.8971 27.2667 99.5478 26.904C100.198 26.5413 100.94 26.36 101.772 26.36C102.358 26.36 102.892 26.4613 103.372 26.664C103.862 26.8667 104.273 27.1707 104.604 27.576V26.456H106.508ZM101.996 33.4C102.732 33.4 103.34 33.1547 103.82 32.664C104.3 32.1733 104.54 31.528 104.54 30.728C104.54 29.928 104.3 29.2827 103.82 28.792C103.34 28.3013 102.732 28.056 101.996 28.056C101.26 28.056 100.652 28.3013 100.172 28.792C99.7024 29.2827 99.4678 29.928 99.4678 30.728C99.4678 31.528 99.7024 32.1733 100.172 32.664C100.652 33.1547 101.26 33.4 101.996 33.4ZM117.397 26.456V35H115.493V33.912C115.173 34.296 114.773 34.5947 114.293 34.808C113.813 35.0107 113.295 35.112 112.741 35.112C111.599 35.112 110.698 34.7973 110.037 34.168C109.386 33.528 109.061 32.584 109.061 31.336V26.456H111.061V31.064C111.061 31.832 111.231 32.408 111.573 32.792C111.925 33.1653 112.421 33.352 113.061 33.352C113.775 33.352 114.341 33.1333 114.757 32.696C115.183 32.248 115.397 31.608 115.397 30.776V26.456H117.397ZM120.015 26.456H122.015V35H120.015V26.456ZM121.023 25.048C120.66 25.048 120.356 24.936 120.111 24.712C119.866 24.4773 119.743 24.1893 119.743 23.848C119.743 23.5067 119.866 23.224 120.111 23C120.356 22.7653 120.66 22.648 121.023 22.648C121.386 22.648 121.69 22.76 121.935 22.984C122.18 23.1973 122.303 23.4693 122.303 23.8C122.303 24.152 122.18 24.4507 121.935 24.696C121.7 24.9307 121.396 25.048 121.023 25.048ZM127.28 35.112C126.587 35.112 125.909 35.0213 125.248 34.84C124.587 34.6587 124.059 34.4293 123.664 34.152L124.432 32.632C124.816 32.888 125.275 33.096 125.808 33.256C126.352 33.4053 126.885 33.48 127.408 33.48C128.603 33.48 129.2 33.1653 129.2 32.536C129.2 32.2373 129.045 32.0293 128.736 31.912C128.437 31.7947 127.952 31.6827 127.28 31.576C126.576 31.4693 126 31.3467 125.552 31.208C125.115 31.0693 124.731 30.8293 124.4 30.488C124.08 30.136 123.92 29.6507 123.92 29.032C123.92 28.2213 124.256 27.576 124.928 27.096C125.611 26.6053 126.528 26.36 127.68 26.36C128.267 26.36 128.853 26.4293 129.44 26.568C130.027 26.696 130.507 26.872 130.88 27.096L130.112 28.616C129.387 28.1893 128.571 27.976 127.664 27.976C127.077 27.976 126.629 28.0667 126.32 28.248C126.021 28.4187 125.872 28.648 125.872 28.936C125.872 29.256 126.032 29.4853 126.352 29.624C126.683 29.752 127.189 29.8747 127.872 29.992C128.555 30.0987 129.115 30.2213 129.552 30.36C129.989 30.4987 130.363 30.7333 130.672 31.064C130.992 31.3947 131.152 31.864 131.152 32.472C131.152 33.272 130.805 33.912 130.112 34.392C129.419 34.872 128.475 35.112 127.28 35.112ZM132.875 26.456H134.875V35H132.875V26.456ZM133.883 25.048C133.52 25.048 133.216 24.936 132.971 24.712C132.725 24.4773 132.603 24.1893 132.603 23.848C132.603 23.5067 132.725 23.224 132.971 23C133.216 22.7653 133.52 22.648 133.883 22.648C134.245 22.648 134.549 22.76 134.795 22.984C135.04 23.1973 135.163 23.4693 135.163 23.8C135.163 24.152 135.04 24.4507 134.795 24.696C134.56 24.9307 134.256 25.048 133.883 25.048ZM142.636 34.536C142.401 34.728 142.113 34.872 141.772 34.968C141.441 35.064 141.089 35.112 140.716 35.112C139.777 35.112 139.052 34.8667 138.539 34.376C138.028 33.8853 137.772 33.1707 137.772 32.232V28.12H136.364V26.52H137.772V24.568H139.772V26.52H142.06V28.12H139.772V32.184C139.772 32.6 139.873 32.92 140.076 33.144C140.278 33.3573 140.572 33.464 140.956 33.464C141.404 33.464 141.777 33.3467 142.076 33.112L142.636 34.536ZM144.281 26.456H146.281V35H144.281V26.456ZM145.289 25.048C144.926 25.048 144.622 24.936 144.377 24.712C144.131 24.4773 144.009 24.1893 144.009 23.848C144.009 23.5067 144.131 23.224 144.377 23C144.622 22.7653 144.926 22.648 145.289 22.648C145.651 22.648 145.955 22.76 146.201 22.984C146.446 23.1973 146.569 23.4693 146.569 23.8C146.569 24.152 146.446 24.4507 146.201 24.696C145.966 24.9307 145.662 25.048 145.289 25.048ZM152.746 35.112C151.882 35.112 151.103 34.9253 150.41 34.552C149.716 34.1787 149.172 33.6613 148.778 33C148.394 32.328 148.202 31.5707 148.202 30.728C148.202 29.8853 148.394 29.1333 148.778 28.472C149.172 27.8107 149.716 27.2933 150.41 26.92C151.103 26.5467 151.882 26.36 152.746 26.36C153.62 26.36 154.404 26.5467 155.098 26.92C155.791 27.2933 156.33 27.8107 156.714 28.472C157.108 29.1333 157.306 29.8853 157.306 30.728C157.306 31.5707 157.108 32.328 156.714 33C156.33 33.6613 155.791 34.1787 155.098 34.552C154.404 34.9253 153.62 35.112 152.746 35.112ZM152.746 33.4C153.482 33.4 154.09 33.1547 154.57 32.664C155.05 32.1733 155.29 31.528 155.29 30.728C155.29 29.928 155.05 29.2827 154.57 28.792C154.09 28.3013 153.482 28.056 152.746 28.056C152.01 28.056 151.402 28.3013 150.922 28.792C150.452 29.2827 150.218 29.928 150.218 30.728C150.218 31.528 150.452 32.1733 150.922 32.664C151.402 33.1547 152.01 33.4 152.746 33.4ZM164.066 26.36C165.144 26.36 166.008 26.6747 166.658 27.304C167.309 27.9333 167.634 28.8667 167.634 30.104V35H165.634V30.36C165.634 29.6133 165.458 29.0533 165.106 28.68C164.754 28.296 164.253 28.104 163.602 28.104C162.866 28.104 162.285 28.328 161.858 28.776C161.432 29.2133 161.218 29.848 161.218 30.68V35H159.218V26.456H161.122V27.56C161.453 27.1653 161.869 26.8667 162.37 26.664C162.872 26.4613 163.437 26.36 164.066 26.36Z" fill="#70D6F5"></path> <rect x="1.25" y="1.25" width="186.5" height="56.5" rx="28.25" stroke="#70D6F5" stroke-width="2.5"></rect> </svg> 