<?xml version="1.0" encoding="UTF-8"?> <svg xmlns="http://www.w3.org/2000/svg" width="278" height="60" viewBox="0 0 278 60" fill="none"> <rect x="1.25" y="1.25" width="275.5" height="57.5" rx="28.75" stroke="#9A5AF0" stroke-width="2.5"></rect> <path d="M57.5353 23.8H62.4313C63.6259 23.8 64.6873 24.0347 65.6153 24.504C66.5433 24.9627 67.2633 25.6187 67.7753 26.472C68.2873 27.3147 68.5433 28.2907 68.5433 29.4C68.5433 30.5093 68.2873 31.4907 67.7753 32.344C67.2633 33.1867 66.5433 33.8427 65.6153 34.312C64.6873 34.7707 63.6259 35 62.4313 35H57.5353V23.8ZM62.3353 33.24C63.1566 33.24 63.8766 33.0853 64.4953 32.776C65.1246 32.456 65.6046 32.008 65.9353 31.432C66.2766 30.8453 66.4473 30.168 66.4473 29.4C66.4473 28.632 66.2766 27.96 65.9353 27.384C65.6046 26.7973 65.1246 26.3493 64.4953 26.04C63.8766 25.72 63.1566 25.56 62.3353 25.56H59.6153V33.24H62.3353ZM70.562 26.456H72.562V35H70.562V26.456ZM71.57 25.048C71.2073 25.048 70.9033 24.936 70.658 24.712C70.4127 24.4773 70.29 24.1893 70.29 23.848C70.29 23.5067 70.4127 23.224 70.658 23C70.9033 22.7653 71.2073 22.648 71.57 22.648C71.9327 22.648 72.2367 22.76 72.482 22.984C72.7273 23.1973 72.85 23.4693 72.85 23.8C72.85 24.152 72.7273 24.4507 72.482 24.696C72.2473 24.9307 71.9433 25.048 71.57 25.048ZM77.091 27.704C77.667 26.808 78.6803 26.36 80.131 26.36V28.264C79.9603 28.232 79.8057 28.216 79.667 28.216C78.8883 28.216 78.2803 28.4453 77.843 28.904C77.4057 29.352 77.187 30.0027 77.187 30.856V35H75.187V26.456H77.091V27.704ZM89.7815 30.776C89.7815 30.9147 89.7708 31.112 89.7495 31.368H83.0455C83.1628 31.9973 83.4668 32.4987 83.9575 32.872C84.4588 33.2347 85.0775 33.416 85.8135 33.416C86.7522 33.416 87.5255 33.1067 88.1335 32.488L89.2055 33.72C88.8215 34.1787 88.3362 34.5253 87.7495 34.76C87.1628 34.9947 86.5015 35.112 85.7655 35.112C84.8268 35.112 84.0002 34.9253 83.2855 34.552C82.5708 34.1787 82.0162 33.6613 81.6215 33C81.2375 32.328 81.0455 31.5707 81.0455 30.728C81.0455 29.896 81.2322 29.1493 81.6055 28.488C81.9895 27.816 82.5175 27.2933 83.1895 26.92C83.8615 26.5467 84.6188 26.36 85.4615 26.36C86.2935 26.36 87.0348 26.5467 87.6855 26.92C88.3468 27.2827 88.8588 27.8 89.2215 28.472C89.5948 29.1333 89.7815 29.9013 89.7815 30.776ZM85.4615 27.96C84.8215 27.96 84.2775 28.152 83.8295 28.536C83.3922 28.9093 83.1255 29.4107 83.0295 30.04H87.8775C87.7922 29.4213 87.5308 28.92 87.0935 28.536C86.6562 28.152 86.1122 27.96 85.4615 27.96ZM95.6226 35.112C94.7373 35.112 93.9426 34.9253 93.2386 34.552C92.5346 34.1787 91.9853 33.6613 91.5906 33C91.196 32.328 90.9986 31.5707 90.9986 30.728C90.9986 29.8853 91.196 29.1333 91.5906 28.472C91.9853 27.8107 92.5293 27.2933 93.2226 26.92C93.9266 26.5467 94.7266 26.36 95.6226 26.36C96.4653 26.36 97.2013 26.5307 97.8306 26.872C98.4706 27.2133 98.9506 27.704 99.2706 28.344L97.7346 29.24C97.4893 28.8453 97.18 28.552 96.8066 28.36C96.444 28.1573 96.044 28.056 95.6066 28.056C94.86 28.056 94.2413 28.3013 93.7506 28.792C93.26 29.272 93.0146 29.9173 93.0146 30.728C93.0146 31.5387 93.2546 32.1893 93.7346 32.68C94.2253 33.16 94.8493 33.4 95.6066 33.4C96.044 33.4 96.444 33.304 96.8066 33.112C97.18 32.9093 97.4893 32.6107 97.7346 32.216L99.2706 33.112C98.94 33.752 98.4546 34.248 97.8146 34.6C97.1853 34.9413 96.4546 35.112 95.6226 35.112ZM106.245 34.536C106.01 34.728 105.722 34.872 105.381 34.968C105.05 35.064 104.698 35.112 104.325 35.112C103.386 35.112 102.661 34.8667 102.149 34.376C101.637 33.8853 101.381 33.1707 101.381 32.232V28.12H99.9729V26.52H101.381V24.568H103.381V26.52H105.669V28.12H103.381V32.184C103.381 32.6 103.482 32.92 103.685 33.144C103.888 33.3573 104.181 33.464 104.565 33.464C105.013 33.464 105.386 33.3467 105.685 33.112L106.245 34.536ZM111.449 35.112C110.585 35.112 109.806 34.9253 109.113 34.552C108.42 34.1787 107.876 33.6613 107.481 33C107.097 32.328 106.905 31.5707 106.905 30.728C106.905 29.8853 107.097 29.1333 107.481 28.472C107.876 27.8107 108.42 27.2933 109.113 26.92C109.806 26.5467 110.585 26.36 111.449 26.36C112.324 26.36 113.108 26.5467 113.801 26.92C114.494 27.2933 115.033 27.8107 115.417 28.472C115.812 29.1333 116.009 29.8853 116.009 30.728C116.009 31.5707 115.812 32.328 115.417 33C115.033 33.6613 114.494 34.1787 113.801 34.552C113.108 34.9253 112.324 35.112 111.449 35.112ZM111.449 33.4C112.185 33.4 112.793 33.1547 113.273 32.664C113.753 32.1733 113.993 31.528 113.993 30.728C113.993 29.928 113.753 29.2827 113.273 28.792C112.793 28.3013 112.185 28.056 111.449 28.056C110.713 28.056 110.105 28.3013 109.625 28.792C109.156 29.2827 108.921 29.928 108.921 30.728C108.921 31.528 109.156 32.1733 109.625 32.664C110.105 33.1547 110.713 33.4 111.449 33.4ZM119.825 27.704C120.401 26.808 121.415 26.36 122.865 26.36V28.264C122.695 28.232 122.54 28.216 122.401 28.216C121.623 28.216 121.015 28.4453 120.577 28.904C120.14 29.352 119.921 30.0027 119.921 30.856V35H117.921V26.456H119.825V27.704ZM132.902 35.112C132.038 35.112 131.259 34.9253 130.566 34.552C129.873 34.1787 129.329 33.6613 128.934 33C128.55 32.328 128.358 31.5707 128.358 30.728C128.358 29.8853 128.55 29.1333 128.934 28.472C129.329 27.8107 129.873 27.2933 130.566 26.92C131.259 26.5467 132.038 26.36 132.902 26.36C133.777 26.36 134.561 26.5467 135.254 26.92C135.947 27.2933 136.486 27.8107 136.87 28.472C137.265 29.1333 137.462 29.8853 137.462 30.728C137.462 31.5707 137.265 32.328 136.87 33C136.486 33.6613 135.947 34.1787 135.254 34.552C134.561 34.9253 133.777 35.112 132.902 35.112ZM132.902 33.4C133.638 33.4 134.246 33.1547 134.726 32.664C135.206 32.1733 135.446 31.528 135.446 30.728C135.446 29.928 135.206 29.2827 134.726 28.792C134.246 28.3013 133.638 28.056 132.902 28.056C132.166 28.056 131.558 28.3013 131.078 28.792C130.609 29.2827 130.374 29.928 130.374 30.728C130.374 31.528 130.609 32.1733 131.078 32.664C131.558 33.1547 132.166 33.4 132.902 33.4ZM142.847 24.632C142.004 24.632 141.583 25.0907 141.583 26.008V26.52H143.935V28.12H141.647V35H139.647V28.12H138.239V26.52H139.647V25.976C139.647 25.0587 139.913 24.3387 140.447 23.816C140.98 23.2827 141.732 23.016 142.703 23.016C143.471 23.016 144.073 23.1707 144.511 23.48L143.951 24.984C143.609 24.7493 143.241 24.632 142.847 24.632ZM153.367 35.16C152.503 35.16 151.665 35.0373 150.855 34.792C150.055 34.5467 149.42 34.2213 148.951 33.816L149.671 32.2C150.129 32.5627 150.689 32.8613 151.351 33.096C152.023 33.32 152.695 33.432 153.367 33.432C154.199 33.432 154.817 33.2987 155.223 33.032C155.639 32.7653 155.847 32.4133 155.847 31.976C155.847 31.656 155.729 31.3947 155.495 31.192C155.271 30.9787 154.983 30.8133 154.631 30.696C154.279 30.5787 153.799 30.4453 153.191 30.296C152.337 30.0933 151.644 29.8907 151.111 29.688C150.588 29.4853 150.135 29.1707 149.751 28.744C149.377 28.3067 149.191 27.72 149.191 26.984C149.191 26.3653 149.356 25.8053 149.687 25.304C150.028 24.792 150.535 24.3867 151.207 24.088C151.889 23.7893 152.721 23.64 153.703 23.64C154.385 23.64 155.057 23.7253 155.719 23.896C156.38 24.0667 156.951 24.312 157.431 24.632L156.775 26.248C156.284 25.96 155.772 25.7413 155.239 25.592C154.705 25.4427 154.188 25.368 153.687 25.368C152.865 25.368 152.252 25.5067 151.847 25.784C151.452 26.0613 151.255 26.4293 151.255 26.888C151.255 27.208 151.367 27.4693 151.591 27.672C151.825 27.8747 152.119 28.0347 152.471 28.152C152.823 28.2693 153.303 28.4027 153.911 28.552C154.743 28.744 155.425 28.9467 155.959 29.16C156.492 29.3627 156.945 29.6773 157.319 30.104C157.703 30.5307 157.895 31.1067 157.895 31.832C157.895 32.4507 157.724 33.0107 157.383 33.512C157.052 34.0133 156.545 34.4133 155.863 34.712C155.18 35.0107 154.348 35.16 153.367 35.16ZM163.605 35.112C162.741 35.112 161.962 34.9253 161.269 34.552C160.576 34.1787 160.032 33.6613 159.637 33C159.253 32.328 159.061 31.5707 159.061 30.728C159.061 29.8853 159.253 29.1333 159.637 28.472C160.032 27.8107 160.576 27.2933 161.269 26.92C161.962 26.5467 162.741 26.36 163.605 26.36C164.48 26.36 165.264 26.5467 165.957 26.92C166.65 27.2933 167.189 27.8107 167.573 28.472C167.968 29.1333 168.165 29.8853 168.165 30.728C168.165 31.5707 167.968 32.328 167.573 33C167.189 33.6613 166.65 34.1787 165.957 34.552C165.264 34.9253 164.48 35.112 163.605 35.112ZM163.605 33.4C164.341 33.4 164.949 33.1547 165.429 32.664C165.909 32.1733 166.149 31.528 166.149 30.728C166.149 29.928 165.909 29.2827 165.429 28.792C164.949 28.3013 164.341 28.056 163.605 28.056C162.869 28.056 162.261 28.3013 161.781 28.792C161.312 29.2827 161.077 29.928 161.077 30.728C161.077 31.528 161.312 32.1733 161.781 32.664C162.261 33.1547 162.869 33.4 163.605 33.4ZM173.55 24.632C172.707 24.632 172.286 25.0907 172.286 26.008V26.52H174.638V28.12H172.35V35H170.35V28.12H168.942V26.52H170.35V25.976C170.35 25.0587 170.616 24.3387 171.15 23.816C171.683 23.2827 172.435 23.016 173.406 23.016C174.174 23.016 174.776 23.1707 175.214 23.48L174.654 24.984C174.312 24.7493 173.944 24.632 173.55 24.632ZM181.12 34.536C180.885 34.728 180.597 34.872 180.256 34.968C179.925 35.064 179.573 35.112 179.2 35.112C178.261 35.112 177.536 34.8667 177.024 34.376C176.512 33.8853 176.256 33.1707 176.256 32.232V28.12H174.848V26.52H176.256V24.568H178.256V26.52H180.544V28.12H178.256V32.184C178.256 32.6 178.357 32.92 178.56 33.144C178.763 33.3573 179.056 33.464 179.44 33.464C179.888 33.464 180.261 33.3467 180.56 33.112L181.12 34.536ZM195.937 26.456L192.785 35H190.865L188.657 29.112L186.417 35H184.497L181.361 26.456H183.249L185.505 32.76L187.857 26.456H189.537L191.841 32.792L194.161 26.456H195.937ZM200.31 26.36C201.569 26.36 202.529 26.664 203.19 27.272C203.862 27.8693 204.198 28.776 204.198 29.992V35H202.31V33.96C202.065 34.3333 201.713 34.6213 201.254 34.824C200.806 35.016 200.262 35.112 199.622 35.112C198.982 35.112 198.422 35.0053 197.942 34.792C197.462 34.568 197.089 34.264 196.822 33.88C196.566 33.4853 196.438 33.0427 196.438 32.552C196.438 31.784 196.721 31.1707 197.286 30.712C197.862 30.2427 198.764 30.008 199.99 30.008H202.198V29.88C202.198 29.2827 202.017 28.824 201.654 28.504C201.302 28.184 200.774 28.024 200.07 28.024C199.59 28.024 199.116 28.0987 198.646 28.248C198.188 28.3973 197.798 28.6053 197.478 28.872L196.694 27.416C197.142 27.0747 197.681 26.8133 198.31 26.632C198.94 26.4507 199.606 26.36 200.31 26.36ZM200.038 33.656C200.54 33.656 200.982 33.544 201.366 33.32C201.761 33.0853 202.038 32.7547 202.198 32.328V31.336H200.134C198.982 31.336 198.406 31.7147 198.406 32.472C198.406 32.8347 198.55 33.1227 198.838 33.336C199.126 33.5493 199.526 33.656 200.038 33.656ZM208.669 27.704C209.245 26.808 210.258 26.36 211.709 26.36V28.264C211.538 28.232 211.384 28.216 211.245 28.216C210.466 28.216 209.858 28.4453 209.421 28.904C208.984 29.352 208.765 30.0027 208.765 30.856V35H206.765V26.456H208.669V27.704ZM221.36 30.776C221.36 30.9147 221.349 31.112 221.328 31.368H214.624C214.741 31.9973 215.045 32.4987 215.536 32.872C216.037 33.2347 216.656 33.416 217.392 33.416C218.33 33.416 219.104 33.1067 219.712 32.488L220.784 33.72C220.4 34.1787 219.914 34.5253 219.328 34.76C218.741 34.9947 218.08 35.112 217.344 35.112C216.405 35.112 215.578 34.9253 214.864 34.552C214.149 34.1787 213.594 33.6613 213.2 33C212.816 32.328 212.624 31.5707 212.624 30.728C212.624 29.896 212.81 29.1493 213.184 28.488C213.568 27.816 214.096 27.2933 214.768 26.92C215.44 26.5467 216.197 26.36 217.04 26.36C217.872 26.36 218.613 26.5467 219.264 26.92C219.925 27.2827 220.437 27.8 220.8 28.472C221.173 29.1333 221.36 29.9013 221.36 30.776ZM217.04 27.96C216.4 27.96 215.856 28.152 215.408 28.536C214.97 28.9093 214.704 29.4107 214.608 30.04H219.456C219.37 29.4213 219.109 28.92 218.672 28.536C218.234 28.152 217.69 27.96 217.04 27.96Z" fill="#9A5AF0"></path> </svg> 