<?xml version="1.0" encoding="UTF-8"?> <svg xmlns="http://www.w3.org/2000/svg" width="24" height="24" viewBox="0 0 24 24" fill="none"> <path d="M11.45 23.26C11.23 21.96 10.65 20.56 9.71 19.06C8.77 17.54 7.43 16.13 5.69 14.83C3.97 13.53 2.25 12.7 0.53 12.34V11.08C2.23 10.68 3.86 9.94 5.42 8.86C7 7.76 8.32 6.44 9.38 4.9C10.46 3.32 11.15 1.76 11.45 0.22H12.71C12.89 1.22 13.25 2.25 13.79 3.31C14.33 4.35 15.02 5.35 15.86 6.31C16.72 7.25 17.68 8.1 18.74 8.86C20.32 9.98 21.93 10.72 23.57 11.08V12.34C22.47 12.56 21.33 13.01 20.15 13.69C18.99 14.37 17.91 15.18 16.91 16.12C15.91 17.04 15.09 18.01 14.45 19.03C13.51 20.53 12.93 21.94 12.71 23.26H11.45Z" fill="#9B5AF0"></path> </svg> 