<?xml version="1.0" encoding="UTF-8"?> <svg xmlns="http://www.w3.org/2000/svg" width="132" height="59" viewBox="0 0 132 59" fill="none"> <path d="M21.8009 23.8H23.8809V33.24H29.7369V35H21.8009V23.8ZM39.1409 30.776C39.1409 30.9147 39.1302 31.112 39.1089 31.368H32.4049C32.5222 31.9973 32.8262 32.4987 33.3169 32.872C33.8182 33.2347 34.4369 33.416 35.1729 33.416C36.1115 33.416 36.8849 33.1067 37.4929 32.488L38.5649 33.72C38.1809 34.1787 37.6955 34.5253 37.1089 34.76C36.5222 34.9947 35.8609 35.112 35.1249 35.112C34.1862 35.112 33.3595 34.9253 32.6449 34.552C31.9302 34.1787 31.3755 33.6613 30.9809 33C30.5969 32.328 30.4049 31.5707 30.4049 30.728C30.4049 29.896 30.5915 29.1493 30.9649 28.488C31.3489 27.816 31.8769 27.2933 32.5489 26.92C33.2209 26.5467 33.9782 26.36 34.8209 26.36C35.6529 26.36 36.3942 26.5467 37.0449 26.92C37.7062 27.2827 38.2182 27.8 38.5809 28.472C38.9542 29.1333 39.1409 29.9013 39.1409 30.776ZM34.8209 27.96C34.1809 27.96 33.6369 28.152 33.1889 28.536C32.7515 28.9093 32.4849 29.4107 32.3889 30.04H37.2369C37.1515 29.4213 36.8902 28.92 36.4529 28.536C36.0155 28.152 35.4715 27.96 34.8209 27.96ZM44.0916 26.36C45.3503 26.36 46.3103 26.664 46.9716 27.272C47.6436 27.8693 47.9796 28.776 47.9796 29.992V35H46.0916V33.96C45.8463 34.3333 45.4943 34.6213 45.0356 34.824C44.5876 35.016 44.0436 35.112 43.4036 35.112C42.7636 35.112 42.2036 35.0053 41.7236 34.792C41.2436 34.568 40.8703 34.264 40.6036 33.88C40.3476 33.4853 40.2196 33.0427 40.2196 32.552C40.2196 31.784 40.5023 31.1707 41.0676 30.712C41.6436 30.2427 42.545 30.008 43.7716 30.008H45.9796V29.88C45.9796 29.2827 45.7983 28.824 45.4356 28.504C45.0836 28.184 44.5556 28.024 43.8516 28.024C43.3716 28.024 42.897 28.0987 42.4276 28.248C41.969 28.3973 41.5796 28.6053 41.2596 28.872L40.4756 27.416C40.9236 27.0747 41.4623 26.8133 42.0916 26.632C42.721 26.4507 43.3876 26.36 44.0916 26.36ZM43.8196 33.656C44.321 33.656 44.7636 33.544 45.1476 33.32C45.5423 33.0853 45.8196 32.7547 45.9796 32.328V31.336H43.9156C42.7636 31.336 42.1876 31.7147 42.1876 32.472C42.1876 32.8347 42.3316 33.1227 42.6196 33.336C42.9076 33.5493 43.3076 33.656 43.8196 33.656ZM58.9925 23.128V35H57.0725V33.896C56.7418 34.3013 56.3312 34.6053 55.8405 34.808C55.3605 35.0107 54.8272 35.112 54.2405 35.112C53.4192 35.112 52.6778 34.9307 52.0165 34.568C51.3658 34.2053 50.8538 33.6933 50.4805 33.032C50.1072 32.36 49.9205 31.592 49.9205 30.728C49.9205 29.864 50.1072 29.1013 50.4805 28.44C50.8538 27.7787 51.3658 27.2667 52.0165 26.904C52.6778 26.5413 53.4192 26.36 54.2405 26.36C54.8058 26.36 55.3232 26.456 55.7925 26.648C56.2618 26.84 56.6618 27.128 56.9925 27.512V23.128H58.9925ZM54.4805 33.4C54.9605 33.4 55.3925 33.2933 55.7765 33.08C56.1605 32.856 56.4645 32.5413 56.6885 32.136C56.9125 31.7307 57.0245 31.2613 57.0245 30.728C57.0245 30.1947 56.9125 29.7253 56.6885 29.32C56.4645 28.9147 56.1605 28.6053 55.7765 28.392C55.3925 28.168 54.9605 28.056 54.4805 28.056C54.0005 28.056 53.5685 28.168 53.1845 28.392C52.8005 28.6053 52.4965 28.9147 52.2725 29.32C52.0485 29.7253 51.9365 30.1947 51.9365 30.728C51.9365 31.2613 52.0485 31.7307 52.2725 32.136C52.4965 32.5413 52.8005 32.856 53.1845 33.08C53.5685 33.2933 54.0005 33.4 54.4805 33.4ZM69.6409 30.776C69.6409 30.9147 69.6302 31.112 69.6089 31.368H62.9049C63.0222 31.9973 63.3262 32.4987 63.8169 32.872C64.3182 33.2347 64.9369 33.416 65.6729 33.416C66.6115 33.416 67.3849 33.1067 67.9929 32.488L69.0649 33.72C68.6809 34.1787 68.1955 34.5253 67.6089 34.76C67.0222 34.9947 66.3609 35.112 65.6249 35.112C64.6862 35.112 63.8595 34.9253 63.1449 34.552C62.4302 34.1787 61.8755 33.6613 61.4809 33C61.0969 32.328 60.9049 31.5707 60.9049 30.728C60.9049 29.896 61.0915 29.1493 61.4649 28.488C61.8489 27.816 62.3769 27.2933 63.0489 26.92C63.7209 26.5467 64.4782 26.36 65.3209 26.36C66.1529 26.36 66.8942 26.5467 67.5449 26.92C68.2062 27.2827 68.7182 27.8 69.0809 28.472C69.4542 29.1333 69.6409 29.9013 69.6409 30.776ZM65.3209 27.96C64.6809 27.96 64.1369 28.152 63.6889 28.536C63.2515 28.9093 62.9849 29.4107 62.8889 30.04H67.7369C67.6515 29.4213 67.3902 28.92 66.9529 28.536C66.5155 28.152 65.9715 27.96 65.3209 27.96ZM73.466 27.704C74.042 26.808 75.0553 26.36 76.506 26.36V28.264C76.3353 28.232 76.1807 28.216 76.042 28.216C75.2633 28.216 74.6553 28.4453 74.218 28.904C73.7807 29.352 73.562 30.0027 73.562 30.856V35H71.562V26.456H73.466V27.704ZM80.8739 35.112C80.1805 35.112 79.5032 35.0213 78.8419 34.84C78.1805 34.6587 77.6525 34.4293 77.2579 34.152L78.0259 32.632C78.4099 32.888 78.8685 33.096 79.4019 33.256C79.9459 33.4053 80.4792 33.48 81.0019 33.48C82.1965 33.48 82.7939 33.1653 82.7939 32.536C82.7939 32.2373 82.6392 32.0293 82.3299 31.912C82.0312 31.7947 81.5459 31.6827 80.8739 31.576C80.1699 31.4693 79.5939 31.3467 79.1459 31.208C78.7085 31.0693 78.3245 30.8293 77.9939 30.488C77.6739 30.136 77.5139 29.6507 77.5139 29.032C77.5139 28.2213 77.8499 27.576 78.5219 27.096C79.2045 26.6053 80.1219 26.36 81.2739 26.36C81.8605 26.36 82.4472 26.4293 83.0339 26.568C83.6205 26.696 84.1005 26.872 84.4739 27.096L83.7059 28.616C82.9805 28.1893 82.1645 27.976 81.2579 27.976C80.6712 27.976 80.2232 28.0667 79.9139 28.248C79.6152 28.4187 79.4659 28.648 79.4659 28.936C79.4659 29.256 79.6259 29.4853 79.9459 29.624C80.2765 29.752 80.7832 29.8747 81.4659 29.992C82.1485 30.0987 82.7085 30.2213 83.1459 30.36C83.5832 30.4987 83.9565 30.7333 84.2659 31.064C84.5859 31.3947 84.7459 31.864 84.7459 32.472C84.7459 33.272 84.3992 33.912 83.7059 34.392C83.0125 34.872 82.0685 35.112 80.8739 35.112ZM91.3163 26.36C92.3936 26.36 93.2576 26.6747 93.9083 27.304C94.5589 27.9333 94.8843 28.8667 94.8843 30.104V35H92.8843V30.36C92.8843 29.6133 92.7083 29.0533 92.3563 28.68C92.0043 28.296 91.5029 28.104 90.8523 28.104C90.1163 28.104 89.5349 28.328 89.1083 28.776C88.6816 29.2133 88.4683 29.848 88.4683 30.68V35H86.4683V23.128H88.4683V27.448C88.7989 27.096 89.2043 26.8293 89.6843 26.648C90.1749 26.456 90.7189 26.36 91.3163 26.36ZM97.4214 26.456H99.4214V35H97.4214V26.456ZM98.4294 25.048C98.0667 25.048 97.7627 24.936 97.5174 24.712C97.272 24.4773 97.1494 24.1893 97.1494 23.848C97.1494 23.5067 97.272 23.224 97.5174 23C97.7627 22.7653 98.0667 22.648 98.4294 22.648C98.792 22.648 99.096 22.76 99.3414 22.984C99.5867 23.1973 99.7094 23.4693 99.7094 23.8C99.7094 24.152 99.5867 24.4507 99.3414 24.696C99.1067 24.9307 98.8027 25.048 98.4294 25.048ZM106.782 26.36C107.614 26.36 108.356 26.5413 109.006 26.904C109.668 27.2667 110.185 27.7787 110.558 28.44C110.932 29.1013 111.118 29.864 111.118 30.728C111.118 31.592 110.932 32.36 110.558 33.032C110.185 33.6933 109.668 34.2053 109.006 34.568C108.356 34.9307 107.614 35.112 106.782 35.112C105.63 35.112 104.718 34.728 104.046 33.96V38.104H102.046V26.456H103.95V27.576C104.281 27.1707 104.686 26.8667 105.166 26.664C105.657 26.4613 106.196 26.36 106.782 26.36ZM106.558 33.4C107.294 33.4 107.897 33.1547 108.366 32.664C108.846 32.1733 109.086 31.528 109.086 30.728C109.086 29.928 108.846 29.2827 108.366 28.792C107.897 28.3013 107.294 28.056 106.558 28.056C106.078 28.056 105.646 28.168 105.262 28.392C104.878 28.6053 104.574 28.9147 104.35 29.32C104.126 29.7253 104.014 30.1947 104.014 30.728C104.014 31.2613 104.126 31.7307 104.35 32.136C104.574 32.5413 104.878 32.856 105.262 33.08C105.646 33.2933 106.078 33.4 106.558 33.4Z" fill="#7580E3"></path> <rect x="1.25" y="1.25" width="129.5" height="56.5" rx="28.25" stroke="#7580E3" stroke-width="2.5"></rect> </svg> 