<?xml version="1.0" encoding="UTF-8"?> <svg xmlns="http://www.w3.org/2000/svg" width="130" height="60" viewBox="0 0 130 60" fill="none"> <rect x="1.25" y="1.25" width="127.5" height="57.5" rx="28.75" fill="#70D6F5" stroke="#70D6F5" stroke-width="2.5"></rect> <path d="M45.154 33.256V35H36.754V23.8H44.93V25.544H38.834V28.456H44.242V30.168H38.834V33.256H45.154ZM55.5706 23.128V35H53.6506V33.896C53.32 34.3013 52.9093 34.6053 52.4186 34.808C51.9386 35.0107 51.4053 35.112 50.8186 35.112C49.9973 35.112 49.256 34.9307 48.5946 34.568C47.944 34.2053 47.432 33.6933 47.0586 33.032C46.6853 32.36 46.4986 31.592 46.4986 30.728C46.4986 29.864 46.6853 29.1013 47.0586 28.44C47.432 27.7787 47.944 27.2667 48.5946 26.904C49.256 26.5413 49.9973 26.36 50.8186 26.36C51.384 26.36 51.9013 26.456 52.3706 26.648C52.84 26.84 53.24 27.128 53.5706 27.512V23.128H55.5706ZM51.0586 33.4C51.5386 33.4 51.9706 33.2933 52.3546 33.08C52.7386 32.856 53.0426 32.5413 53.2666 32.136C53.4906 31.7307 53.6026 31.2613 53.6026 30.728C53.6026 30.1947 53.4906 29.7253 53.2666 29.32C53.0426 28.9147 52.7386 28.6053 52.3546 28.392C51.9706 28.168 51.5386 28.056 51.0586 28.056C50.5786 28.056 50.1466 28.168 49.7626 28.392C49.3786 28.6053 49.0746 28.9147 48.8506 29.32C48.6266 29.7253 48.5146 30.1947 48.5146 30.728C48.5146 31.2613 48.6266 31.7307 48.8506 32.136C49.0746 32.5413 49.3786 32.856 49.7626 33.08C50.1466 33.2933 50.5786 33.4 51.0586 33.4ZM60.651 25.56H56.939V23.8H66.443V25.56H62.731V35H60.651V25.56ZM74.969 30.776C74.969 30.9147 74.9583 31.112 74.937 31.368H68.233C68.3503 31.9973 68.6543 32.4987 69.145 32.872C69.6463 33.2347 70.265 33.416 71.001 33.416C71.9397 33.416 72.713 33.1067 73.321 32.488L74.393 33.72C74.009 34.1787 73.5237 34.5253 72.937 34.76C72.3503 34.9947 71.689 35.112 70.953 35.112C70.0143 35.112 69.1877 34.9253 68.473 34.552C67.7583 34.1787 67.2037 33.6613 66.809 33C66.425 32.328 66.233 31.5707 66.233 30.728C66.233 29.896 66.4197 29.1493 66.793 28.488C67.177 27.816 67.705 27.2933 68.377 26.92C69.049 26.5467 69.8063 26.36 70.649 26.36C71.481 26.36 72.2223 26.5467 72.873 26.92C73.5343 27.2827 74.0463 27.8 74.409 28.472C74.7823 29.1333 74.969 29.9013 74.969 30.776ZM70.649 27.96C70.009 27.96 69.465 28.152 69.017 28.536C68.5797 28.9093 68.313 29.4107 68.217 30.04H73.065C72.9797 29.4213 72.7183 28.92 72.281 28.536C71.8437 28.152 71.2997 27.96 70.649 27.96ZM80.8101 35.112C79.9248 35.112 79.1301 34.9253 78.4261 34.552C77.7221 34.1787 77.1728 33.6613 76.7781 33C76.3835 32.328 76.1861 31.5707 76.1861 30.728C76.1861 29.8853 76.3835 29.1333 76.7781 28.472C77.1728 27.8107 77.7168 27.2933 78.4101 26.92C79.1141 26.5467 79.9141 26.36 80.8101 26.36C81.6528 26.36 82.3888 26.5307 83.0181 26.872C83.6581 27.2133 84.1381 27.704 84.4581 28.344L82.9221 29.24C82.6768 28.8453 82.3675 28.552 81.9941 28.36C81.6315 28.1573 81.2315 28.056 80.7941 28.056C80.0475 28.056 79.4288 28.3013 78.9381 28.792C78.4475 29.272 78.2021 29.9173 78.2021 30.728C78.2021 31.5387 78.4421 32.1893 78.9221 32.68C79.4128 33.16 80.0368 33.4 80.7941 33.4C81.2315 33.4 81.6315 33.304 81.9941 33.112C82.3675 32.9093 82.6768 32.6107 82.9221 32.216L84.4581 33.112C84.1275 33.752 83.6421 34.248 83.0021 34.6C82.3728 34.9413 81.6421 35.112 80.8101 35.112ZM90.9569 26.36C92.0342 26.36 92.8982 26.6747 93.5489 27.304C94.1995 27.9333 94.5249 28.8667 94.5249 30.104V35H92.5249V30.36C92.5249 29.6133 92.3489 29.0533 91.9969 28.68C91.6449 28.296 91.1435 28.104 90.4929 28.104C89.7569 28.104 89.1755 28.328 88.7489 28.776C88.3222 29.2133 88.1089 29.848 88.1089 30.68V35H86.1089V23.128H88.1089V27.448C88.4395 27.096 88.8449 26.8293 89.3249 26.648C89.8155 26.456 90.3595 26.36 90.9569 26.36Z" fill="white"></path> </svg> 