<?xml version="1.0" encoding="UTF-8"?> <svg xmlns="http://www.w3.org/2000/svg" width="60" height="60" viewBox="0 0 60 60" fill="none"> <rect x="58.75" y="58.75" width="57.5" height="57.5" rx="28.75" transform="rotate(180 58.75 58.75)" stroke="#F2F2F2" stroke-width="2.5"></rect> <path d="M30.3204 46.9982L13.6985 30.3763C13.1166 29.7943 13.117 28.8498 13.6987 28.2681C14.2803 27.6865 15.2252 27.6864 15.8068 28.268L28.83 41.2912L28.8294 15.0263C28.8295 14.2037 29.4977 13.5354 30.3203 13.5354C30.7337 13.5354 31.1048 13.7043 31.3744 13.9738C31.6443 14.2438 31.8111 14.6169 31.8128 15.0279L31.8133 41.2928L44.8378 28.2684C45.4198 27.6864 46.3643 27.6867 46.9459 28.2683C47.5275 28.8499 47.5274 29.7947 46.9457 30.3764L30.3204 46.9982Z" fill="#B1B1B1"></path> </svg> 