<?xml version="1.0" encoding="UTF-8"?> <svg xmlns="http://www.w3.org/2000/svg" width="59" height="59" viewBox="0 0 59 59" fill="none"> <circle cx="29.5" cy="29.5" r="29.5" fill="#3595FE"></circle> <path d="M22.275 36C22.323 34.908 22.425 33.918 22.581 33.03C22.737 32.13 22.965 31.278 23.265 30.474C23.565 29.67 23.943 28.89 24.399 28.134C24.867 27.378 25.431 26.598 26.091 25.794H19.467V24.516H27.783V25.434C27.027 26.298 26.403 27.126 25.911 27.918C25.419 28.71 25.023 29.52 24.723 30.348C24.423 31.164 24.207 32.028 24.075 32.94C23.943 33.852 23.859 34.872 23.823 36H22.275ZM34.778 36.216C34.154 36.216 33.572 36.102 33.032 35.874C32.504 35.646 32.042 35.304 31.646 34.848C31.25 34.38 30.938 33.804 30.71 33.12C30.494 32.424 30.386 31.614 30.386 30.69C30.386 29.538 30.518 28.56 30.782 27.756C31.046 26.94 31.4 26.28 31.844 25.776C32.288 25.26 32.798 24.888 33.374 24.66C33.962 24.42 34.568 24.3 35.192 24.3C35.9 24.3 36.512 24.42 37.028 24.66C37.556 24.888 38.012 25.176 38.396 25.524L37.568 26.442C37.268 26.166 36.92 25.95 36.524 25.794C36.128 25.626 35.714 25.542 35.282 25.542C34.826 25.542 34.388 25.626 33.968 25.794C33.548 25.962 33.176 26.238 32.852 26.622C32.54 27.006 32.282 27.516 32.078 28.152C31.886 28.776 31.784 29.55 31.772 30.474C32.24 30.018 32.756 29.658 33.32 29.394C33.884 29.118 34.454 28.98 35.03 28.98C35.558 28.98 36.038 29.058 36.47 29.214C36.914 29.358 37.292 29.58 37.604 29.88C37.928 30.168 38.174 30.534 38.342 30.978C38.522 31.422 38.612 31.938 38.612 32.526C38.612 33.078 38.504 33.582 38.288 34.038C38.084 34.482 37.808 34.866 37.46 35.19C37.112 35.514 36.704 35.766 36.236 35.946C35.78 36.126 35.294 36.216 34.778 36.216ZM34.778 35.046C35.114 35.046 35.432 34.986 35.732 34.866C36.032 34.746 36.29 34.578 36.506 34.362C36.722 34.134 36.89 33.87 37.01 33.57C37.142 33.258 37.208 32.91 37.208 32.526C37.208 31.734 36.998 31.134 36.578 30.726C36.158 30.306 35.552 30.096 34.76 30.096C34.304 30.096 33.812 30.216 33.284 30.456C32.768 30.696 32.282 31.092 31.826 31.644C31.934 32.76 32.24 33.606 32.744 34.182C33.26 34.758 33.938 35.046 34.778 35.046Z" fill="white"></path> </svg> 