<?xml version="1.0" encoding="UTF-8"?> <svg xmlns="http://www.w3.org/2000/svg" width="204" height="59" viewBox="0 0 204 59" fill="none"> <path d="M30.1618 33.256V35H21.7618V23.8H29.9378V25.544H23.8418V28.456H29.2498V30.168H23.8418V33.256H30.1618ZM43.0726 26.36C44.1499 26.36 45.0032 26.6747 45.6326 27.304C46.2619 27.9227 46.5766 28.856 46.5766 30.104V35H44.5766V30.36C44.5766 29.6133 44.4112 29.0533 44.0806 28.68C43.7499 28.296 43.2752 28.104 42.6566 28.104C41.9846 28.104 41.4459 28.328 41.0406 28.776C40.6352 29.2133 40.4326 29.8427 40.4326 30.664V35H38.4326V30.36C38.4326 29.6133 38.2672 29.0533 37.9366 28.68C37.6059 28.296 37.1312 28.104 36.5126 28.104C35.8299 28.104 35.2859 28.3227 34.8806 28.76C34.4859 29.1973 34.2886 29.832 34.2886 30.664V35H32.2886V26.456H34.1926V27.544C34.5126 27.16 34.9126 26.8667 35.3926 26.664C35.8726 26.4613 36.4059 26.36 36.9926 26.36C37.6326 26.36 38.1979 26.4827 38.6886 26.728C39.1899 26.9627 39.5846 27.3147 39.8726 27.784C40.2246 27.336 40.6779 26.9893 41.2326 26.744C41.7872 26.488 42.4006 26.36 43.0726 26.36ZM53.8683 26.36C54.7003 26.36 55.4416 26.5413 56.0923 26.904C56.7536 27.2667 57.271 27.7787 57.6443 28.44C58.0176 29.1013 58.2043 29.864 58.2043 30.728C58.2043 31.592 58.0176 32.36 57.6443 33.032C57.271 33.6933 56.7536 34.2053 56.0923 34.568C55.4416 34.9307 54.7003 35.112 53.8683 35.112C52.7163 35.112 51.8043 34.728 51.1323 33.96V38.104H49.1323V26.456H51.0363V27.576C51.367 27.1707 51.7723 26.8667 52.2523 26.664C52.743 26.4613 53.2816 26.36 53.8683 26.36ZM53.6443 33.4C54.3803 33.4 54.983 33.1547 55.4523 32.664C55.9323 32.1733 56.1723 31.528 56.1723 30.728C56.1723 29.928 55.9323 29.2827 55.4523 28.792C54.983 28.3013 54.3803 28.056 53.6443 28.056C53.1643 28.056 52.7323 28.168 52.3483 28.392C51.9643 28.6053 51.6603 28.9147 51.4363 29.32C51.2123 29.7253 51.1003 30.1947 51.1003 30.728C51.1003 31.2613 51.2123 31.7307 51.4363 32.136C51.6603 32.5413 51.9643 32.856 52.3483 33.08C52.7323 33.2933 53.1643 33.4 53.6443 33.4ZM60.1011 23.128H62.1011V35H60.1011V23.128ZM68.5661 35.112C67.7021 35.112 66.9234 34.9253 66.2301 34.552C65.5367 34.1787 64.9927 33.6613 64.5981 33C64.2141 32.328 64.0221 31.5707 64.0221 30.728C64.0221 29.8853 64.2141 29.1333 64.5981 28.472C64.9927 27.8107 65.5367 27.2933 66.2301 26.92C66.9234 26.5467 67.7021 26.36 68.5661 26.36C69.4407 26.36 70.2247 26.5467 70.9181 26.92C71.6114 27.2933 72.1501 27.8107 72.5341 28.472C72.9287 29.1333 73.1261 29.8853 73.1261 30.728C73.1261 31.5707 72.9287 32.328 72.5341 33C72.1501 33.6613 71.6114 34.1787 70.9181 34.552C70.2247 34.9253 69.4407 35.112 68.5661 35.112ZM68.5661 33.4C69.3021 33.4 69.9101 33.1547 70.3901 32.664C70.8701 32.1733 71.1101 31.528 71.1101 30.728C71.1101 29.928 70.8701 29.2827 70.3901 28.792C69.9101 28.3013 69.3021 28.056 68.5661 28.056C67.8301 28.056 67.2221 28.3013 66.7421 28.792C66.2727 29.2827 66.0381 29.928 66.0381 30.728C66.0381 31.528 66.2727 32.1733 66.7421 32.664C67.2221 33.1547 67.8301 33.4 68.5661 33.4ZM82.8042 26.456L78.8042 35.688C78.4309 36.616 77.9775 37.2667 77.4442 37.64C76.9109 38.024 76.2655 38.216 75.5082 38.216C75.0815 38.216 74.6602 38.1467 74.2442 38.008C73.8282 37.8693 73.4869 37.6773 73.2202 37.432L74.0202 35.96C74.2122 36.1413 74.4362 36.2853 74.6922 36.392C74.9589 36.4987 75.2255 36.552 75.4922 36.552C75.8442 36.552 76.1322 36.4613 76.3562 36.28C76.5909 36.0987 76.8042 35.7947 76.9962 35.368L77.1402 35.032L73.4122 26.456H75.4922L78.1802 32.776L80.8842 26.456H82.8042ZM91.8518 30.776C91.8518 30.9147 91.8411 31.112 91.8198 31.368H85.1158C85.2331 31.9973 85.5371 32.4987 86.0278 32.872C86.5291 33.2347 87.1478 33.416 87.8838 33.416C88.8225 33.416 89.5958 33.1067 90.2038 32.488L91.2758 33.72C90.8918 34.1787 90.4065 34.5253 89.8198 34.76C89.2331 34.9947 88.5718 35.112 87.8358 35.112C86.8971 35.112 86.0705 34.9253 85.3558 34.552C84.6411 34.1787 84.0865 33.6613 83.6918 33C83.3078 32.328 83.1158 31.5707 83.1158 30.728C83.1158 29.896 83.3025 29.1493 83.6758 28.488C84.0598 27.816 84.5878 27.2933 85.2598 26.92C85.9318 26.5467 86.6891 26.36 87.5318 26.36C88.3638 26.36 89.1051 26.5467 89.7558 26.92C90.4171 27.2827 90.9291 27.8 91.2918 28.472C91.6651 29.1333 91.8518 29.9013 91.8518 30.776ZM87.5318 27.96C86.8918 27.96 86.3478 28.152 85.8998 28.536C85.4625 28.9093 85.1958 29.4107 85.0998 30.04H89.9478C89.8625 29.4213 89.6011 28.92 89.1638 28.536C88.7265 28.152 88.1825 27.96 87.5318 27.96ZM101.805 30.776C101.805 30.9147 101.794 31.112 101.773 31.368H95.0689C95.1863 31.9973 95.4903 32.4987 95.9809 32.872C96.4823 33.2347 97.1009 33.416 97.8369 33.416C98.7756 33.416 99.5489 33.1067 100.157 32.488L101.229 33.72C100.845 34.1787 100.36 34.5253 99.7729 34.76C99.1863 34.9947 98.5249 35.112 97.7889 35.112C96.8503 35.112 96.0236 34.9253 95.3089 34.552C94.5943 34.1787 94.0396 33.6613 93.6449 33C93.2609 32.328 93.0689 31.5707 93.0689 30.728C93.0689 29.896 93.2556 29.1493 93.6289 28.488C94.0129 27.816 94.5409 27.2933 95.2129 26.92C95.8849 26.5467 96.6423 26.36 97.4849 26.36C98.3169 26.36 99.0583 26.5467 99.7089 26.92C100.37 27.2827 100.882 27.8 101.245 28.472C101.618 29.1333 101.805 29.9013 101.805 30.776ZM97.4849 27.96C96.8449 27.96 96.3009 28.152 95.8529 28.536C95.4156 28.9093 95.1489 29.4107 95.0529 30.04H99.9009C99.8156 29.4213 99.5543 28.92 99.1169 28.536C98.6796 28.152 98.1356 27.96 97.4849 27.96ZM115.668 35L113.38 31.72C113.284 31.7307 113.14 31.736 112.948 31.736H110.42V35H108.34V23.8H112.948C113.919 23.8 114.761 23.96 115.476 24.28C116.201 24.6 116.756 25.0587 117.14 25.656C117.524 26.2533 117.716 26.9627 117.716 27.784C117.716 28.6267 117.508 29.352 117.092 29.96C116.687 30.568 116.1 31.0213 115.332 31.32L117.908 35H115.668ZM115.62 27.784C115.62 27.0693 115.385 26.52 114.916 26.136C114.447 25.752 113.759 25.56 112.852 25.56H110.42V30.024H112.852C113.759 30.024 114.447 29.832 114.916 29.448C115.385 29.0533 115.62 28.4987 115.62 27.784ZM127.883 30.776C127.883 30.9147 127.872 31.112 127.851 31.368H121.147C121.264 31.9973 121.568 32.4987 122.059 32.872C122.56 33.2347 123.179 33.416 123.915 33.416C124.854 33.416 125.627 33.1067 126.235 32.488L127.307 33.72C126.923 34.1787 126.438 34.5253 125.851 34.76C125.264 34.9947 124.603 35.112 123.867 35.112C122.928 35.112 122.102 34.9253 121.387 34.552C120.672 34.1787 120.118 33.6613 119.723 33C119.339 32.328 119.147 31.5707 119.147 30.728C119.147 29.896 119.334 29.1493 119.707 28.488C120.091 27.816 120.619 27.2933 121.291 26.92C121.963 26.5467 122.72 26.36 123.563 26.36C124.395 26.36 125.136 26.5467 125.787 26.92C126.448 27.2827 126.96 27.8 127.323 28.472C127.696 29.1333 127.883 29.9013 127.883 30.776ZM123.563 27.96C122.923 27.96 122.379 28.152 121.931 28.536C121.494 28.9093 121.227 29.4107 121.131 30.04H125.979C125.894 29.4213 125.632 28.92 125.195 28.536C124.758 28.152 124.214 27.96 123.563 27.96ZM129.804 23.128H131.804V35H129.804V23.128ZM137.693 26.36C138.952 26.36 139.912 26.664 140.573 27.272C141.245 27.8693 141.581 28.776 141.581 29.992V35H139.693V33.96C139.448 34.3333 139.096 34.6213 138.637 34.824C138.189 35.016 137.645 35.112 137.005 35.112C136.365 35.112 135.805 35.0053 135.325 34.792C134.845 34.568 134.472 34.264 134.205 33.88C133.949 33.4853 133.821 33.0427 133.821 32.552C133.821 31.784 134.104 31.1707 134.669 30.712C135.245 30.2427 136.147 30.008 137.373 30.008H139.581V29.88C139.581 29.2827 139.4 28.824 139.037 28.504C138.685 28.184 138.157 28.024 137.453 28.024C136.973 28.024 136.499 28.0987 136.029 28.248C135.571 28.3973 135.181 28.6053 134.861 28.872L134.077 27.416C134.525 27.0747 135.064 26.8133 135.693 26.632C136.323 26.4507 136.989 26.36 137.693 26.36ZM137.421 33.656C137.923 33.656 138.365 33.544 138.749 33.32C139.144 33.0853 139.421 32.7547 139.581 32.328V31.336H137.517C136.365 31.336 135.789 31.7147 135.789 32.472C135.789 32.8347 135.933 33.1227 136.221 33.336C136.509 33.5493 136.909 33.656 137.421 33.656ZM149.284 34.536C149.049 34.728 148.761 34.872 148.42 34.968C148.089 35.064 147.737 35.112 147.364 35.112C146.425 35.112 145.7 34.8667 145.188 34.376C144.676 33.8853 144.42 33.1707 144.42 32.232V28.12H143.012V26.52H144.42V24.568H146.42V26.52H148.708V28.12H146.42V32.184C146.42 32.6 146.521 32.92 146.724 33.144C146.927 33.3573 147.22 33.464 147.604 33.464C148.052 33.464 148.425 33.3467 148.724 33.112L149.284 34.536ZM150.929 26.456H152.929V35H150.929V26.456ZM151.937 25.048C151.575 25.048 151.271 24.936 151.025 24.712C150.78 24.4773 150.657 24.1893 150.657 23.848C150.657 23.5067 150.78 23.224 151.025 23C151.271 22.7653 151.575 22.648 151.937 22.648C152.3 22.648 152.604 22.76 152.849 22.984C153.095 23.1973 153.217 23.4693 153.217 23.8C153.217 24.152 153.095 24.4507 152.849 24.696C152.615 24.9307 152.311 25.048 151.937 25.048ZM159.394 35.112C158.53 35.112 157.752 34.9253 157.058 34.552C156.365 34.1787 155.821 33.6613 155.426 33C155.042 32.328 154.85 31.5707 154.85 30.728C154.85 29.8853 155.042 29.1333 155.426 28.472C155.821 27.8107 156.365 27.2933 157.058 26.92C157.752 26.5467 158.53 26.36 159.394 26.36C160.269 26.36 161.053 26.5467 161.746 26.92C162.44 27.2933 162.978 27.8107 163.362 28.472C163.757 29.1333 163.954 29.8853 163.954 30.728C163.954 31.5707 163.757 32.328 163.362 33C162.978 33.6613 162.44 34.1787 161.746 34.552C161.053 34.9253 160.269 35.112 159.394 35.112ZM159.394 33.4C160.13 33.4 160.738 33.1547 161.218 32.664C161.698 32.1733 161.938 31.528 161.938 30.728C161.938 29.928 161.698 29.2827 161.218 28.792C160.738 28.3013 160.13 28.056 159.394 28.056C158.658 28.056 158.05 28.3013 157.57 28.792C157.101 29.2827 156.866 29.928 156.866 30.728C156.866 31.528 157.101 32.1733 157.57 32.664C158.05 33.1547 158.658 33.4 159.394 33.4ZM170.715 26.36C171.792 26.36 172.656 26.6747 173.307 27.304C173.957 27.9333 174.283 28.8667 174.283 30.104V35H172.283V30.36C172.283 29.6133 172.107 29.0533 171.755 28.68C171.403 28.296 170.901 28.104 170.251 28.104C169.515 28.104 168.933 28.328 168.507 28.776C168.08 29.2133 167.867 29.848 167.867 30.68V35H165.867V26.456H167.771V27.56C168.101 27.1653 168.517 26.8667 169.019 26.664C169.52 26.4613 170.085 26.36 170.715 26.36ZM179.46 35.112C178.766 35.112 178.089 35.0213 177.428 34.84C176.766 34.6587 176.238 34.4293 175.844 34.152L176.612 32.632C176.996 32.888 177.454 33.096 177.988 33.256C178.532 33.4053 179.065 33.48 179.588 33.48C180.782 33.48 181.38 33.1653 181.38 32.536C181.38 32.2373 181.225 32.0293 180.916 31.912C180.617 31.7947 180.132 31.6827 179.46 31.576C178.756 31.4693 178.18 31.3467 177.732 31.208C177.294 31.0693 176.91 30.8293 176.58 30.488C176.26 30.136 176.1 29.6507 176.1 29.032C176.1 28.2213 176.436 27.576 177.108 27.096C177.79 26.6053 178.708 26.36 179.86 26.36C180.446 26.36 181.033 26.4293 181.62 26.568C182.206 26.696 182.686 26.872 183.06 27.096L182.292 28.616C181.566 28.1893 180.75 27.976 179.844 27.976C179.257 27.976 178.809 28.0667 178.5 28.248C178.201 28.4187 178.052 28.648 178.052 28.936C178.052 29.256 178.212 29.4853 178.532 29.624C178.862 29.752 179.369 29.8747 180.052 29.992C180.734 30.0987 181.294 30.2213 181.732 30.36C182.169 30.4987 182.542 30.7333 182.852 31.064C183.172 31.3947 183.332 31.864 183.332 32.472C183.332 33.272 182.985 33.912 182.292 34.392C181.598 34.872 180.654 35.112 179.46 35.112Z" fill="#9B5AF0"></path> <rect x="1.25" y="1.25" width="201.5" height="56.5" rx="28.25" stroke="#9B5AF0" stroke-width="2.5"></rect> </svg> 