<?xml version="1.0" encoding="UTF-8"?> <svg xmlns="http://www.w3.org/2000/svg" width="181" height="59" viewBox="0 0 181 59" fill="none"> <path d="M30.0915 33.256V35H21.6915V23.8H29.8675V25.544H23.7715V28.456H29.1795V30.168H23.7715V33.256H30.0915ZM37.502 35L35.31 32.04L33.102 35H30.894L34.222 30.664L31.038 26.456H33.262L35.358 29.256L37.454 26.456H39.614L36.414 30.632L39.758 35H37.502ZM48.9846 30.776C48.9846 30.9147 48.974 31.112 48.9526 31.368H42.2486C42.366 31.9973 42.67 32.4987 43.1606 32.872C43.662 33.2347 44.2806 33.416 45.0166 33.416C45.9553 33.416 46.7286 33.1067 47.3366 32.488L48.4086 33.72C48.0246 34.1787 47.5393 34.5253 46.9526 34.76C46.366 34.9947 45.7046 35.112 44.9686 35.112C44.03 35.112 43.2033 34.9253 42.4886 34.552C41.774 34.1787 41.2193 33.6613 40.8246 33C40.4406 32.328 40.2486 31.5707 40.2486 30.728C40.2486 29.896 40.4353 29.1493 40.8086 28.488C41.1926 27.816 41.7206 27.2933 42.3926 26.92C43.0646 26.5467 43.822 26.36 44.6646 26.36C45.4966 26.36 46.238 26.5467 46.8886 26.92C47.55 27.2827 48.062 27.8 48.4246 28.472C48.798 29.1333 48.9846 29.9013 48.9846 30.776ZM44.6646 27.96C44.0246 27.96 43.4806 28.152 43.0326 28.536C42.5953 28.9093 42.3286 29.4107 42.2326 30.04H47.0806C46.9953 29.4213 46.734 28.92 46.2966 28.536C45.8593 28.152 45.3153 27.96 44.6646 27.96ZM54.8258 35.112C53.9404 35.112 53.1458 34.9253 52.4418 34.552C51.7378 34.1787 51.1884 33.6613 50.7938 33C50.3991 32.328 50.2018 31.5707 50.2018 30.728C50.2018 29.8853 50.3991 29.1333 50.7938 28.472C51.1884 27.8107 51.7324 27.2933 52.4258 26.92C53.1298 26.5467 53.9298 26.36 54.8258 26.36C55.6684 26.36 56.4044 26.5307 57.0338 26.872C57.6738 27.2133 58.1538 27.704 58.4738 28.344L56.9378 29.24C56.6924 28.8453 56.3831 28.552 56.0098 28.36C55.6471 28.1573 55.2471 28.056 54.8098 28.056C54.0631 28.056 53.4444 28.3013 52.9538 28.792C52.4631 29.272 52.2178 29.9173 52.2178 30.728C52.2178 31.5387 52.4578 32.1893 52.9378 32.68C53.4284 33.16 54.0524 33.4 54.8098 33.4C55.2471 33.4 55.6471 33.304 56.0098 33.112C56.3831 32.9093 56.6924 32.6107 56.9378 32.216L58.4738 33.112C58.1431 33.752 57.6578 34.248 57.0178 34.6C56.3884 34.9413 55.6578 35.112 54.8258 35.112ZM68.4746 26.456V35H66.5706V33.912C66.2506 34.296 65.8506 34.5947 65.3706 34.808C64.8906 35.0107 64.3733 35.112 63.8186 35.112C62.6773 35.112 61.776 34.7973 61.1146 34.168C60.464 33.528 60.1386 32.584 60.1386 31.336V26.456H62.1386V31.064C62.1386 31.832 62.3093 32.408 62.6506 32.792C63.0026 33.1653 63.4986 33.352 64.1386 33.352C64.8533 33.352 65.4186 33.1333 65.8346 32.696C66.2613 32.248 66.4746 31.608 66.4746 30.776V26.456H68.4746ZM76.2293 34.536C75.9946 34.728 75.7066 34.872 75.3653 34.968C75.0346 35.064 74.6826 35.112 74.3093 35.112C73.3706 35.112 72.6453 34.8667 72.1332 34.376C71.6213 33.8853 71.3653 33.1707 71.3653 32.232V28.12H69.9573V26.52H71.3653V24.568H73.3653V26.52H75.6533V28.12H73.3653V32.184C73.3653 32.6 73.4666 32.92 73.6693 33.144C73.8719 33.3573 74.1653 33.464 74.5493 33.464C74.9973 33.464 75.3706 33.3467 75.6693 33.112L76.2293 34.536ZM77.8745 26.456H79.8745V35H77.8745V26.456ZM78.8825 25.048C78.5198 25.048 78.2158 24.936 77.9705 24.712C77.7252 24.4773 77.6025 24.1893 77.6025 23.848C77.6025 23.5067 77.7252 23.224 77.9705 23C78.2158 22.7653 78.5198 22.648 78.8825 22.648C79.2452 22.648 79.5492 22.76 79.7945 22.984C80.0398 23.1973 80.1625 23.4693 80.1625 23.8C80.1625 24.152 80.0398 24.4507 79.7945 24.696C79.5598 24.9307 79.2558 25.048 78.8825 25.048ZM90.4995 26.456L86.8355 35H84.7715L81.1075 26.456H83.1875L85.8435 32.792L88.5795 26.456H90.4995ZM99.5471 30.776C99.5471 30.9147 99.5365 31.112 99.5151 31.368H92.8111C92.9285 31.9973 93.2325 32.4987 93.7231 32.872C94.2245 33.2347 94.8431 33.416 95.5791 33.416C96.5178 33.416 97.2911 33.1067 97.8991 32.488L98.9711 33.72C98.5871 34.1787 98.1018 34.5253 97.5151 34.76C96.9285 34.9947 96.2671 35.112 95.5311 35.112C94.5925 35.112 93.7658 34.9253 93.0511 34.552C92.3365 34.1787 91.7818 33.6613 91.3871 33C91.0031 32.328 90.8111 31.5707 90.8111 30.728C90.8111 29.896 90.9978 29.1493 91.3711 28.488C91.7551 27.816 92.2831 27.2933 92.9551 26.92C93.6271 26.5467 94.3845 26.36 95.2271 26.36C96.0591 26.36 96.8005 26.5467 97.4511 26.92C98.1125 27.2827 98.6245 27.8 98.9871 28.472C99.3605 29.1333 99.5471 29.9013 99.5471 30.776ZM95.2271 27.96C94.5871 27.96 94.0431 28.152 93.5951 28.536C93.1578 28.9093 92.8911 29.4107 92.7951 30.04H97.6431C97.5578 29.4213 97.2965 28.92 96.8591 28.536C96.4218 28.152 95.8778 27.96 95.2271 27.96ZM109.554 35.16C108.69 35.16 107.853 35.0373 107.042 34.792C106.242 34.5467 105.607 34.2213 105.138 33.816L105.858 32.2C106.317 32.5627 106.877 32.8613 107.538 33.096C108.21 33.32 108.882 33.432 109.554 33.432C110.386 33.432 111.005 33.2987 111.41 33.032C111.826 32.7653 112.034 32.4133 112.034 31.976C112.034 31.656 111.917 31.3947 111.682 31.192C111.458 30.9787 111.17 30.8133 110.818 30.696C110.466 30.5787 109.986 30.4453 109.378 30.296C108.525 30.0933 107.831 29.8907 107.298 29.688C106.775 29.4853 106.322 29.1707 105.938 28.744C105.565 28.3067 105.378 27.72 105.378 26.984C105.378 26.3653 105.543 25.8053 105.874 25.304C106.215 24.792 106.722 24.3867 107.394 24.088C108.077 23.7893 108.909 23.64 109.89 23.64C110.573 23.64 111.245 23.7253 111.906 23.896C112.567 24.0667 113.138 24.312 113.618 24.632L112.962 26.248C112.471 25.96 111.959 25.7413 111.426 25.592C110.893 25.4427 110.375 25.368 109.874 25.368C109.053 25.368 108.439 25.5067 108.034 25.784C107.639 26.0613 107.442 26.4293 107.442 26.888C107.442 27.208 107.554 27.4693 107.778 27.672C108.013 27.8747 108.306 28.0347 108.658 28.152C109.01 28.2693 109.49 28.4027 110.098 28.552C110.93 28.744 111.613 28.9467 112.146 29.16C112.679 29.3627 113.133 29.6773 113.506 30.104C113.89 30.5307 114.082 31.1067 114.082 31.832C114.082 32.4507 113.911 33.0107 113.57 33.512C113.239 34.0133 112.733 34.4133 112.05 34.712C111.367 35.0107 110.535 35.16 109.554 35.16ZM123.985 30.776C123.985 30.9147 123.974 31.112 123.953 31.368H117.249C117.366 31.9973 117.67 32.4987 118.161 32.872C118.662 33.2347 119.281 33.416 120.017 33.416C120.955 33.416 121.729 33.1067 122.337 32.488L123.409 33.72C123.025 34.1787 122.539 34.5253 121.953 34.76C121.366 34.9947 120.705 35.112 119.969 35.112C119.03 35.112 118.203 34.9253 117.489 34.552C116.774 34.1787 116.219 33.6613 115.825 33C115.441 32.328 115.249 31.5707 115.249 30.728C115.249 29.896 115.435 29.1493 115.809 28.488C116.193 27.816 116.721 27.2933 117.393 26.92C118.065 26.5467 118.822 26.36 119.665 26.36C120.497 26.36 121.238 26.5467 121.889 26.92C122.55 27.2827 123.062 27.8 123.425 28.472C123.798 29.1333 123.985 29.9013 123.985 30.776ZM119.665 27.96C119.025 27.96 118.481 28.152 118.033 28.536C117.595 28.9093 117.329 29.4107 117.233 30.04H122.081C121.995 29.4213 121.734 28.92 121.297 28.536C120.859 28.152 120.315 27.96 119.665 27.96ZM128.935 26.36C130.194 26.36 131.154 26.664 131.815 27.272C132.487 27.8693 132.823 28.776 132.823 29.992V35H130.935V33.96C130.69 34.3333 130.338 34.6213 129.879 34.824C129.431 35.016 128.887 35.112 128.247 35.112C127.607 35.112 127.047 35.0053 126.567 34.792C126.087 34.568 125.714 34.264 125.447 33.88C125.191 33.4853 125.063 33.0427 125.063 32.552C125.063 31.784 125.346 31.1707 125.911 30.712C126.487 30.2427 127.389 30.008 128.615 30.008H130.823V29.88C130.823 29.2827 130.642 28.824 130.279 28.504C129.927 28.184 129.399 28.024 128.695 28.024C128.215 28.024 127.741 28.0987 127.271 28.248C126.813 28.3973 126.423 28.6053 126.103 28.872L125.319 27.416C125.767 27.0747 126.306 26.8133 126.935 26.632C127.565 26.4507 128.231 26.36 128.935 26.36ZM128.663 33.656C129.165 33.656 129.607 33.544 129.991 33.32C130.386 33.0853 130.663 32.7547 130.823 32.328V31.336H128.759C127.607 31.336 127.031 31.7147 127.031 32.472C127.031 32.8347 127.175 33.1227 127.463 33.336C127.751 33.5493 128.151 33.656 128.663 33.656ZM137.294 27.704C137.87 26.808 138.883 26.36 140.334 26.36V28.264C140.163 28.232 140.009 28.216 139.87 28.216C139.091 28.216 138.483 28.4453 138.046 28.904C137.609 29.352 137.39 30.0027 137.39 30.856V35H135.39V26.456H137.294V27.704ZM145.873 35.112C144.987 35.112 144.193 34.9253 143.489 34.552C142.785 34.1787 142.235 33.6613 141.841 33C141.446 32.328 141.249 31.5707 141.249 30.728C141.249 29.8853 141.446 29.1333 141.841 28.472C142.235 27.8107 142.779 27.2933 143.473 26.92C144.177 26.5467 144.977 26.36 145.873 26.36C146.715 26.36 147.451 26.5307 148.081 26.872C148.721 27.2133 149.201 27.704 149.521 28.344L147.985 29.24C147.739 28.8453 147.43 28.552 147.057 28.36C146.694 28.1573 146.294 28.056 145.857 28.056C145.11 28.056 144.491 28.3013 144.001 28.792C143.51 29.272 143.265 29.9173 143.265 30.728C143.265 31.5387 143.505 32.1893 143.985 32.68C144.475 33.16 145.099 33.4 145.857 33.4C146.294 33.4 146.694 33.304 147.057 33.112C147.43 32.9093 147.739 32.6107 147.985 32.216L149.521 33.112C149.19 33.752 148.705 34.248 148.065 34.6C147.435 34.9413 146.705 35.112 145.873 35.112ZM156.019 26.36C157.097 26.36 157.961 26.6747 158.611 27.304C159.262 27.9333 159.587 28.8667 159.587 30.104V35H157.587V30.36C157.587 29.6133 157.411 29.0533 157.059 28.68C156.707 28.296 156.206 28.104 155.555 28.104C154.819 28.104 154.238 28.328 153.811 28.776C153.385 29.2133 153.171 29.848 153.171 30.68V35H151.171V23.128H153.171V27.448C153.502 27.096 153.907 26.8293 154.387 26.648C154.878 26.456 155.422 26.36 156.019 26.36Z" fill="#3F3FC0"></path> <rect x="1.25" y="1.25" width="178.5" height="56.5" rx="28.25" stroke="#3F3FC0" stroke-width="2.5"></rect> </svg> 