<?xml version="1.0" encoding="UTF-8"?> <svg xmlns="http://www.w3.org/2000/svg" width="224" height="60" viewBox="0 0 224 60" fill="none"> <rect width="224" height="60" rx="30" fill="#3F3FC0"></rect> <path d="M59.5274 23.8H64.4234C65.6181 23.8 66.6794 24.0347 67.6074 24.504C68.5354 24.9627 69.2554 25.6187 69.7674 26.472C70.2794 27.3147 70.5354 28.2907 70.5354 29.4C70.5354 30.5093 70.2794 31.4907 69.7674 32.344C69.2554 33.1867 68.5354 33.8427 67.6074 34.312C66.6794 34.7707 65.6181 35 64.4234 35H59.5274V23.8ZM64.3274 33.24C65.1488 33.24 65.8688 33.0853 66.4874 32.776C67.1168 32.456 67.5968 32.008 67.9274 31.432C68.2688 30.8453 68.4394 30.168 68.4394 29.4C68.4394 28.632 68.2688 27.96 67.9274 27.384C67.5968 26.7973 67.1168 26.3493 66.4874 26.04C65.8688 25.72 65.1488 25.56 64.3274 25.56H61.6074V33.24H64.3274ZM75.8182 26.36C77.0769 26.36 78.0369 26.664 78.6982 27.272C79.3702 27.8693 79.7062 28.776 79.7062 29.992V35H77.8182V33.96C77.5729 34.3333 77.2209 34.6213 76.7622 34.824C76.3142 35.016 75.7702 35.112 75.1302 35.112C74.4902 35.112 73.9302 35.0053 73.4502 34.792C72.9702 34.568 72.5969 34.264 72.3302 33.88C72.0742 33.4853 71.9462 33.0427 71.9462 32.552C71.9462 31.784 72.2289 31.1707 72.7942 30.712C73.3702 30.2427 74.2715 30.008 75.4982 30.008H77.7062V29.88C77.7062 29.2827 77.5249 28.824 77.1622 28.504C76.8102 28.184 76.2822 28.024 75.5782 28.024C75.0982 28.024 74.6235 28.0987 74.1542 28.248C73.6955 28.3973 73.3062 28.6053 72.9862 28.872L72.2022 27.416C72.6502 27.0747 73.1889 26.8133 73.8182 26.632C74.4475 26.4507 75.1142 26.36 75.8182 26.36ZM75.5462 33.656C76.0475 33.656 76.4902 33.544 76.8742 33.32C77.2689 33.0853 77.5462 32.7547 77.7062 32.328V31.336H75.6422C74.4902 31.336 73.9142 31.7147 73.9142 32.472C73.9142 32.8347 74.0582 33.1227 74.3462 33.336C74.6342 33.5493 75.0342 33.656 75.5462 33.656ZM87.4089 34.536C87.1743 34.728 86.8863 34.872 86.5449 34.968C86.2143 35.064 85.8623 35.112 85.4889 35.112C84.5503 35.112 83.8249 34.8667 83.3129 34.376C82.8009 33.8853 82.5449 33.1707 82.5449 32.232V28.12H81.1369V26.52H82.5449V24.568H84.5449V26.52H86.8329V28.12H84.5449V32.184C84.5449 32.6 84.6463 32.92 84.8489 33.144C85.0516 33.3573 85.3449 33.464 85.7289 33.464C86.1769 33.464 86.5503 33.3467 86.8489 33.112L87.4089 34.536ZM92.3182 26.36C93.5769 26.36 94.5369 26.664 95.1982 27.272C95.8702 27.8693 96.2062 28.776 96.2062 29.992V35H94.3182V33.96C94.0729 34.3333 93.7209 34.6213 93.2622 34.824C92.8142 35.016 92.2702 35.112 91.6302 35.112C90.9902 35.112 90.4302 35.0053 89.9502 34.792C89.4702 34.568 89.0969 34.264 88.8302 33.88C88.5742 33.4853 88.4462 33.0427 88.4462 32.552C88.4462 31.784 88.7289 31.1707 89.2942 30.712C89.8702 30.2427 90.7715 30.008 91.9982 30.008H94.2062V29.88C94.2062 29.2827 94.0249 28.824 93.6622 28.504C93.3102 28.184 92.7822 28.024 92.0782 28.024C91.5982 28.024 91.1235 28.0987 90.6542 28.248C90.1955 28.3973 89.8062 28.6053 89.4862 28.872L88.7022 27.416C89.1502 27.0747 89.6889 26.8133 90.3182 26.632C90.9475 26.4507 91.6142 26.36 92.3182 26.36ZM92.0462 33.656C92.5475 33.656 92.9902 33.544 93.3742 33.32C93.7689 33.0853 94.0462 32.7547 94.2062 32.328V31.336H92.1422C90.9902 31.336 90.4142 31.7147 90.4142 32.472C90.4142 32.8347 90.5582 33.1227 90.8462 33.336C91.1342 33.5493 91.5342 33.656 92.0462 33.656ZM106.859 35.16C105.995 35.16 105.157 35.0373 104.347 34.792C103.547 34.5467 102.912 34.2213 102.443 33.816L103.163 32.2C103.621 32.5627 104.181 32.8613 104.843 33.096C105.515 33.32 106.187 33.432 106.859 33.432C107.691 33.432 108.309 33.2987 108.715 33.032C109.131 32.7653 109.339 32.4133 109.339 31.976C109.339 31.656 109.221 31.3947 108.987 31.192C108.763 30.9787 108.475 30.8133 108.123 30.696C107.771 30.5787 107.291 30.4453 106.683 30.296C105.829 30.0933 105.136 29.8907 104.603 29.688C104.08 29.4853 103.627 29.1707 103.243 28.744C102.869 28.3067 102.683 27.72 102.683 26.984C102.683 26.3653 102.848 25.8053 103.179 25.304C103.52 24.792 104.027 24.3867 104.699 24.088C105.381 23.7893 106.213 23.64 107.195 23.64C107.877 23.64 108.549 23.7253 109.211 23.896C109.872 24.0667 110.443 24.312 110.923 24.632L110.267 26.248C109.776 25.96 109.264 25.7413 108.731 25.592C108.197 25.4427 107.68 25.368 107.179 25.368C106.357 25.368 105.744 25.5067 105.339 25.784C104.944 26.0613 104.747 26.4293 104.747 26.888C104.747 27.208 104.859 27.4693 105.083 27.672C105.317 27.8747 105.611 28.0347 105.963 28.152C106.315 28.2693 106.795 28.4027 107.403 28.552C108.235 28.744 108.917 28.9467 109.451 29.16C109.984 29.3627 110.437 29.6773 110.811 30.104C111.195 30.5307 111.387 31.1067 111.387 31.832C111.387 32.4507 111.216 33.0107 110.875 33.512C110.544 34.0133 110.037 34.4133 109.355 34.712C108.672 35.0107 107.84 35.16 106.859 35.16ZM117.177 35.112C116.292 35.112 115.497 34.9253 114.793 34.552C114.089 34.1787 113.54 33.6613 113.145 33C112.751 32.328 112.553 31.5707 112.553 30.728C112.553 29.8853 112.751 29.1333 113.145 28.472C113.54 27.8107 114.084 27.2933 114.777 26.92C115.481 26.5467 116.281 26.36 117.177 26.36C118.02 26.36 118.756 26.5307 119.385 26.872C120.025 27.2133 120.505 27.704 120.825 28.344L119.289 29.24C119.044 28.8453 118.735 28.552 118.361 28.36C117.999 28.1573 117.599 28.056 117.161 28.056C116.415 28.056 115.796 28.3013 115.305 28.792C114.815 29.272 114.569 29.9173 114.569 30.728C114.569 31.5387 114.809 32.1893 115.289 32.68C115.78 33.16 116.404 33.4 117.161 33.4C117.599 33.4 117.999 33.304 118.361 33.112C118.735 32.9093 119.044 32.6107 119.289 32.216L120.825 33.112C120.495 33.752 120.009 34.248 119.369 34.6C118.74 34.9413 118.009 35.112 117.177 35.112ZM122.554 26.456H124.554V35H122.554V26.456ZM123.562 25.048C123.2 25.048 122.896 24.936 122.65 24.712C122.405 24.4773 122.282 24.1893 122.282 23.848C122.282 23.5067 122.405 23.224 122.65 23C122.896 22.7653 123.2 22.648 123.562 22.648C123.925 22.648 124.229 22.76 124.474 22.984C124.72 23.1973 124.842 23.4693 124.842 23.8C124.842 24.152 124.72 24.4507 124.474 24.696C124.24 24.9307 123.936 25.048 123.562 25.048ZM135.211 30.776C135.211 30.9147 135.201 31.112 135.179 31.368H128.475C128.593 31.9973 128.897 32.4987 129.387 32.872C129.889 33.2347 130.507 33.416 131.243 33.416C132.182 33.416 132.955 33.1067 133.563 32.488L134.635 33.72C134.251 34.1787 133.766 34.5253 133.179 34.76C132.593 34.9947 131.931 35.112 131.195 35.112C130.257 35.112 129.43 34.9253 128.715 34.552C128.001 34.1787 127.446 33.6613 127.051 33C126.667 32.328 126.475 31.5707 126.475 30.728C126.475 29.896 126.662 29.1493 127.035 28.488C127.419 27.816 127.947 27.2933 128.619 26.92C129.291 26.5467 130.049 26.36 130.891 26.36C131.723 26.36 132.465 26.5467 133.115 26.92C133.777 27.2827 134.289 27.8 134.651 28.472C135.025 29.1333 135.211 29.9013 135.211 30.776ZM130.891 27.96C130.251 27.96 129.707 28.152 129.259 28.536C128.822 28.9093 128.555 29.4107 128.459 30.04H133.307C133.222 29.4213 132.961 28.92 132.523 28.536C132.086 28.152 131.542 27.96 130.891 27.96ZM141.98 26.36C143.058 26.36 143.922 26.6747 144.572 27.304C145.223 27.9333 145.548 28.8667 145.548 30.104V35H143.548V30.36C143.548 29.6133 143.372 29.0533 143.02 28.68C142.668 28.296 142.167 28.104 141.516 28.104C140.78 28.104 140.199 28.328 139.772 28.776C139.346 29.2133 139.132 29.848 139.132 30.68V35H137.132V26.456H139.036V27.56C139.367 27.1653 139.783 26.8667 140.284 26.664C140.786 26.4613 141.351 26.36 141.98 26.36ZM152.084 35.112C151.198 35.112 150.404 34.9253 149.7 34.552C148.996 34.1787 148.446 33.6613 148.052 33C147.657 32.328 147.46 31.5707 147.46 30.728C147.46 29.8853 147.657 29.1333 148.052 28.472C148.446 27.8107 148.99 27.2933 149.684 26.92C150.388 26.5467 151.188 26.36 152.084 26.36C152.926 26.36 153.662 26.5307 154.292 26.872C154.932 27.2133 155.412 27.704 155.732 28.344L154.196 29.24C153.95 28.8453 153.641 28.552 153.268 28.36C152.905 28.1573 152.505 28.056 152.068 28.056C151.321 28.056 150.702 28.3013 150.212 28.792C149.721 29.272 149.476 29.9173 149.476 30.728C149.476 31.5387 149.716 32.1893 150.196 32.68C150.686 33.16 151.31 33.4 152.068 33.4C152.505 33.4 152.905 33.304 153.268 33.112C153.641 32.9093 153.95 32.6107 154.196 32.216L155.732 33.112C155.401 33.752 154.916 34.248 154.276 34.6C153.646 34.9413 152.916 35.112 152.084 35.112ZM165.367 30.776C165.367 30.9147 165.357 31.112 165.335 31.368H158.631C158.749 31.9973 159.053 32.4987 159.543 32.872C160.045 33.2347 160.663 33.416 161.399 33.416C162.338 33.416 163.111 33.1067 163.719 32.488L164.791 33.72C164.407 34.1787 163.922 34.5253 163.335 34.76C162.749 34.9947 162.087 35.112 161.351 35.112C160.413 35.112 159.586 34.9253 158.871 34.552C158.157 34.1787 157.602 33.6613 157.207 33C156.823 32.328 156.631 31.5707 156.631 30.728C156.631 29.896 156.818 29.1493 157.191 28.488C157.575 27.816 158.103 27.2933 158.775 26.92C159.447 26.5467 160.205 26.36 161.047 26.36C161.879 26.36 162.621 26.5467 163.271 26.92C163.933 27.2827 164.445 27.8 164.807 28.472C165.181 29.1333 165.367 29.9013 165.367 30.776ZM161.047 27.96C160.407 27.96 159.863 28.152 159.415 28.536C158.978 28.9093 158.711 29.4107 158.615 30.04H163.463C163.378 29.4213 163.117 28.92 162.679 28.536C162.242 28.152 161.698 27.96 161.047 27.96Z" fill="white"></path> </svg> 