<?xml version="1.0" encoding="UTF-8"?> <svg xmlns="http://www.w3.org/2000/svg" width="133" height="59" viewBox="0 0 133 59" fill="none"> <path d="M31.8701 23.8V35H29.7901V30.2H23.9981V35H21.9181V23.8H23.9981V28.424H29.7901V23.8H31.8701ZM42.1992 35L39.9112 31.72C39.8152 31.7307 39.6712 31.736 39.4792 31.736H36.9512V35H34.8712V23.8H39.4792C40.4499 23.8 41.2925 23.96 42.0072 24.28C42.7325 24.6 43.2872 25.0587 43.6712 25.656C44.0552 26.2533 44.2472 26.9627 44.2472 27.784C44.2472 28.6267 44.0392 29.352 43.6232 29.96C43.2179 30.568 42.6312 31.0213 41.8632 31.32L44.4392 35H42.1992ZM42.1512 27.784C42.1512 27.0693 41.9165 26.52 41.4472 26.136C40.9779 25.752 40.2899 25.56 39.3832 25.56H36.9512V30.024H39.3832C40.2899 30.024 40.9779 29.832 41.4472 29.448C41.9165 29.0533 42.1512 28.4987 42.1512 27.784ZM55.6042 23.8C56.5749 23.8 57.4175 23.96 58.1322 24.28C58.8575 24.6 59.4122 25.0587 59.7962 25.656C60.1802 26.2533 60.3722 26.9627 60.3722 27.784C60.3722 28.5947 60.1802 29.304 59.7962 29.912C59.4122 30.5093 58.8575 30.968 58.1322 31.288C57.4175 31.608 56.5749 31.768 55.6042 31.768H53.0762V35H50.9962V23.8H55.6042ZM55.5082 30.008C56.4149 30.008 57.1029 29.816 57.5722 29.432C58.0415 29.048 58.2762 28.4987 58.2762 27.784C58.2762 27.0693 58.0415 26.52 57.5722 26.136C57.1029 25.752 56.4149 25.56 55.5082 25.56H53.0762V30.008H55.5082ZM66.0661 35.112C65.2021 35.112 64.4234 34.9253 63.7301 34.552C63.0367 34.1787 62.4927 33.6613 62.0981 33C61.7141 32.328 61.5221 31.5707 61.5221 30.728C61.5221 29.8853 61.7141 29.1333 62.0981 28.472C62.4927 27.8107 63.0367 27.2933 63.7301 26.92C64.4234 26.5467 65.2021 26.36 66.0661 26.36C66.9407 26.36 67.7247 26.5467 68.4181 26.92C69.1114 27.2933 69.6501 27.8107 70.0341 28.472C70.4287 29.1333 70.6261 29.8853 70.6261 30.728C70.6261 31.5707 70.4287 32.328 70.0341 33C69.6501 33.6613 69.1114 34.1787 68.4181 34.552C67.7247 34.9253 66.9407 35.112 66.0661 35.112ZM66.0661 33.4C66.8021 33.4 67.4101 33.1547 67.8901 32.664C68.3701 32.1733 68.6101 31.528 68.6101 30.728C68.6101 29.928 68.3701 29.2827 67.8901 28.792C67.4101 28.3013 66.8021 28.056 66.0661 28.056C65.3301 28.056 64.7221 28.3013 64.2421 28.792C63.7727 29.2827 63.5381 29.928 63.5381 30.728C63.5381 31.528 63.7727 32.1733 64.2421 32.664C64.7221 33.1547 65.3301 33.4 66.0661 33.4ZM72.5386 23.128H74.5386V35H72.5386V23.128ZM77.1636 26.456H79.1636V35H77.1636V26.456ZM78.1716 25.048C77.8089 25.048 77.5049 24.936 77.2596 24.712C77.0142 24.4773 76.8916 24.1893 76.8916 23.848C76.8916 23.5067 77.0142 23.224 77.2596 23C77.5049 22.7653 77.8089 22.648 78.1716 22.648C78.5342 22.648 78.8382 22.76 79.0836 22.984C79.3289 23.1973 79.4516 23.4693 79.4516 23.8C79.4516 24.152 79.3289 24.4507 79.0836 24.696C78.8489 24.9307 78.5449 25.048 78.1716 25.048ZM85.7086 35.112C84.8232 35.112 84.0286 34.9253 83.3246 34.552C82.6206 34.1787 82.0712 33.6613 81.6766 33C81.2819 32.328 81.0846 31.5707 81.0846 30.728C81.0846 29.8853 81.2819 29.1333 81.6766 28.472C82.0712 27.8107 82.6152 27.2933 83.3086 26.92C84.0126 26.5467 84.8126 26.36 85.7086 26.36C86.5512 26.36 87.2872 26.5307 87.9166 26.872C88.5566 27.2133 89.0366 27.704 89.3566 28.344L87.8206 29.24C87.5752 28.8453 87.2659 28.552 86.8926 28.36C86.5299 28.1573 86.1299 28.056 85.6926 28.056C84.9459 28.056 84.3272 28.3013 83.8366 28.792C83.3459 29.272 83.1006 29.9173 83.1006 30.728C83.1006 31.5387 83.3406 32.1893 83.8206 32.68C84.3112 33.16 84.9352 33.4 85.6926 33.4C86.1299 33.4 86.5299 33.304 86.8926 33.112C87.2659 32.9093 87.5752 32.6107 87.8206 32.216L89.3566 33.112C89.0259 33.752 88.5406 34.248 87.9006 34.6C87.2712 34.9413 86.5406 35.112 85.7086 35.112ZM91.0854 26.456H93.0854V35H91.0854V26.456ZM92.0934 25.048C91.7308 25.048 91.4268 24.936 91.1814 24.712C90.9361 24.4773 90.8134 24.1893 90.8134 23.848C90.8134 23.5067 90.9361 23.224 91.1814 23C91.4268 22.7653 91.7308 22.648 92.0934 22.648C92.4561 22.648 92.7601 22.76 93.0054 22.984C93.2508 23.1973 93.3734 23.4693 93.3734 23.8C93.3734 24.152 93.2508 24.4507 93.0054 24.696C92.7708 24.9307 92.4668 25.048 92.0934 25.048ZM103.742 30.776C103.742 30.9147 103.732 31.112 103.71 31.368H97.0064C97.1238 31.9973 97.4278 32.4987 97.9184 32.872C98.4198 33.2347 99.0384 33.416 99.7744 33.416C100.713 33.416 101.486 33.1067 102.094 32.488L103.166 33.72C102.782 34.1787 102.297 34.5253 101.71 34.76C101.124 34.9947 100.462 35.112 99.7264 35.112C98.7878 35.112 97.9611 34.9253 97.2464 34.552C96.5318 34.1787 95.9771 33.6613 95.5824 33C95.1984 32.328 95.0064 31.5707 95.0064 30.728C95.0064 29.896 95.1931 29.1493 95.5664 28.488C95.9504 27.816 96.4784 27.2933 97.1504 26.92C97.8224 26.5467 98.5798 26.36 99.4224 26.36C100.254 26.36 100.996 26.5467 101.646 26.92C102.308 27.2827 102.82 27.8 103.182 28.472C103.556 29.1333 103.742 29.9013 103.742 30.776ZM99.4224 27.96C98.7824 27.96 98.2384 28.152 97.7904 28.536C97.3531 28.9093 97.0864 29.4107 96.9904 30.04H101.838C101.753 29.4213 101.492 28.92 101.054 28.536C100.617 28.152 100.073 27.96 99.4224 27.96ZM108.304 35.112C107.61 35.112 106.933 35.0213 106.272 34.84C105.61 34.6587 105.082 34.4293 104.688 34.152L105.456 32.632C105.84 32.888 106.298 33.096 106.832 33.256C107.376 33.4053 107.909 33.48 108.432 33.48C109.626 33.48 110.224 33.1653 110.224 32.536C110.224 32.2373 110.069 32.0293 109.76 31.912C109.461 31.7947 108.976 31.6827 108.304 31.576C107.6 31.4693 107.024 31.3467 106.576 31.208C106.138 31.0693 105.754 30.8293 105.424 30.488C105.104 30.136 104.944 29.6507 104.944 29.032C104.944 28.2213 105.28 27.576 105.952 27.096C106.634 26.6053 107.552 26.36 108.704 26.36C109.29 26.36 109.877 26.4293 110.464 26.568C111.05 26.696 111.53 26.872 111.904 27.096L111.136 28.616C110.41 28.1893 109.594 27.976 108.688 27.976C108.101 27.976 107.653 28.0667 107.344 28.248C107.045 28.4187 106.896 28.648 106.896 28.936C106.896 29.256 107.056 29.4853 107.376 29.624C107.706 29.752 108.213 29.8747 108.896 29.992C109.578 30.0987 110.138 30.2213 110.576 30.36C111.013 30.4987 111.386 30.7333 111.696 31.064C112.016 31.3947 112.176 31.864 112.176 32.472C112.176 33.272 111.829 33.912 111.136 34.392C110.442 34.872 109.498 35.112 108.304 35.112Z" fill="#3F3FC0"></path> <rect x="1.25" y="1.25" width="130.5" height="56.5" rx="28.25" stroke="#3F3FC0" stroke-width="2.5"></rect> </svg> 