<?xml version="1.0" encoding="UTF-8"?> <svg xmlns="http://www.w3.org/2000/svg" width="208" height="60" viewBox="0 0 208 60" fill="none"> <path d="M32.9869 25.56H29.2749V23.8H38.7789V25.56H35.0669V35H32.9869V25.56ZM47.3049 30.776C47.3049 30.9147 47.2943 31.112 47.2729 31.368H40.5689C40.6863 31.9973 40.9903 32.4987 41.4809 32.872C41.9823 33.2347 42.6009 33.416 43.3369 33.416C44.2756 33.416 45.0489 33.1067 45.6569 32.488L46.7289 33.72C46.3449 34.1787 45.8596 34.5253 45.2729 34.76C44.6863 34.9947 44.0249 35.112 43.2889 35.112C42.3503 35.112 41.5236 34.9253 40.8089 34.552C40.0943 34.1787 39.5396 33.6613 39.1449 33C38.7609 32.328 38.5689 31.5707 38.5689 30.728C38.5689 29.896 38.7556 29.1493 39.1289 28.488C39.5129 27.816 40.0409 27.2933 40.7129 26.92C41.3849 26.5467 42.1423 26.36 42.9849 26.36C43.8169 26.36 44.5583 26.5467 45.2089 26.92C45.8703 27.2827 46.3823 27.8 46.7449 28.472C47.1183 29.1333 47.3049 29.9013 47.3049 30.776ZM42.9849 27.96C42.3449 27.96 41.8009 28.152 41.3529 28.536C40.9156 28.9093 40.6489 29.4107 40.5529 30.04H45.4009C45.3156 29.4213 45.0543 28.92 44.6169 28.536C44.1796 28.152 43.6356 27.96 42.9849 27.96ZM53.1461 35.112C52.2607 35.112 51.4661 34.9253 50.7621 34.552C50.0581 34.1787 49.5087 33.6613 49.1141 33C48.7194 32.328 48.5221 31.5707 48.5221 30.728C48.5221 29.8853 48.7194 29.1333 49.1141 28.472C49.5087 27.8107 50.0527 27.2933 50.7461 26.92C51.4501 26.5467 52.2501 26.36 53.1461 26.36C53.9887 26.36 54.7247 26.5307 55.3541 26.872C55.9941 27.2133 56.4741 27.704 56.7941 28.344L55.2581 29.24C55.0127 28.8453 54.7034 28.552 54.3301 28.36C53.9674 28.1573 53.5674 28.056 53.1301 28.056C52.3834 28.056 51.7647 28.3013 51.2741 28.792C50.7834 29.272 50.5381 29.9173 50.5381 30.728C50.5381 31.5387 50.7781 32.1893 51.2581 32.68C51.7487 33.16 52.3727 33.4 53.1301 33.4C53.5674 33.4 53.9674 33.304 54.3301 33.112C54.7034 32.9093 55.0127 32.6107 55.2581 32.216L56.7941 33.112C56.4634 33.752 55.9781 34.248 55.3381 34.6C54.7087 34.9413 53.9781 35.112 53.1461 35.112ZM63.2928 26.36C64.3701 26.36 65.2341 26.6747 65.8848 27.304C66.5355 27.9333 66.8608 28.8667 66.8608 30.104V35H64.8608V30.36C64.8608 29.6133 64.6848 29.0533 64.3328 28.68C63.9808 28.296 63.4795 28.104 62.8288 28.104C62.0928 28.104 61.5115 28.328 61.0848 28.776C60.6581 29.2133 60.4448 29.848 60.4448 30.68V35H58.4448V23.128H60.4448V27.448C60.7755 27.096 61.1808 26.8293 61.6608 26.648C62.1515 26.456 62.6955 26.36 63.2928 26.36ZM74.2459 26.36C75.3233 26.36 76.1873 26.6747 76.8379 27.304C77.4886 27.9333 77.8139 28.8667 77.8139 30.104V35H75.8139V30.36C75.8139 29.6133 75.6379 29.0533 75.2859 28.68C74.9339 28.296 74.4326 28.104 73.7819 28.104C73.0459 28.104 72.4646 28.328 72.0379 28.776C71.6113 29.2133 71.3979 29.848 71.3979 30.68V35H69.3979V26.456H71.3019V27.56C71.6326 27.1653 72.0486 26.8667 72.5499 26.664C73.0513 26.4613 73.6166 26.36 74.2459 26.36ZM80.3511 26.456H82.3511V35H80.3511V26.456ZM81.3591 25.048C80.9964 25.048 80.6924 24.936 80.4471 24.712C80.2017 24.4773 80.0791 24.1893 80.0791 23.848C80.0791 23.5067 80.2017 23.224 80.4471 23C80.6924 22.7653 80.9964 22.648 81.3591 22.648C81.7217 22.648 82.0257 22.76 82.2711 22.984C82.5164 23.1973 82.6391 23.4693 82.6391 23.8C82.6391 24.152 82.5164 24.4507 82.2711 24.696C82.0364 24.9307 81.7324 25.048 81.3591 25.048ZM88.8961 35.112C88.0107 35.112 87.2161 34.9253 86.5121 34.552C85.8081 34.1787 85.2587 33.6613 84.8641 33C84.4694 32.328 84.2721 31.5707 84.2721 30.728C84.2721 29.8853 84.4694 29.1333 84.8641 28.472C85.2587 27.8107 85.8027 27.2933 86.4961 26.92C87.2001 26.5467 88.0001 26.36 88.8961 26.36C89.7387 26.36 90.4747 26.5307 91.1041 26.872C91.7441 27.2133 92.2241 27.704 92.5441 28.344L91.0081 29.24C90.7627 28.8453 90.4534 28.552 90.0801 28.36C89.7174 28.1573 89.3174 28.056 88.8801 28.056C88.1334 28.056 87.5147 28.3013 87.0241 28.792C86.5334 29.272 86.2881 29.9173 86.2881 30.728C86.2881 31.5387 86.5281 32.1893 87.0081 32.68C87.4987 33.16 88.1227 33.4 88.8801 33.4C89.3174 33.4 89.7174 33.304 90.0801 33.112C90.4534 32.9093 90.7627 32.6107 91.0081 32.216L92.5441 33.112C92.2134 33.752 91.7281 34.248 91.0881 34.6C90.4587 34.9413 89.7281 35.112 88.8961 35.112ZM97.5369 26.36C98.7956 26.36 99.7556 26.664 100.417 27.272C101.089 27.8693 101.425 28.776 101.425 29.992V35H99.5369V33.96C99.2916 34.3333 98.9396 34.6213 98.4809 34.824C98.0329 35.016 97.4889 35.112 96.8489 35.112C96.2089 35.112 95.6489 35.0053 95.1689 34.792C94.6889 34.568 94.3156 34.264 94.0489 33.88C93.7929 33.4853 93.6649 33.0427 93.6649 32.552C93.6649 31.784 93.9476 31.1707 94.5129 30.712C95.0889 30.2427 95.9903 30.008 97.2169 30.008H99.4249V29.88C99.4249 29.2827 99.2436 28.824 98.8809 28.504C98.5289 28.184 98.0009 28.024 97.2969 28.024C96.8169 28.024 96.3423 28.0987 95.8729 28.248C95.4143 28.3973 95.0249 28.6053 94.7049 28.872L93.9209 27.416C94.3689 27.0747 94.9076 26.8133 95.5369 26.632C96.1663 26.4507 96.8329 26.36 97.5369 26.36ZM97.2649 33.656C97.7663 33.656 98.2089 33.544 98.5929 33.32C98.9876 33.0853 99.2649 32.7547 99.4249 32.328V31.336H97.3609C96.2089 31.336 95.6329 31.7147 95.6329 32.472C95.6329 32.8347 95.7769 33.1227 96.0649 33.336C96.3529 33.5493 96.7529 33.656 97.2649 33.656ZM103.992 23.128H105.992V35H103.992V23.128ZM121.407 23.128V35H119.487V33.896C119.156 34.3013 118.745 34.6053 118.255 34.808C117.775 35.0107 117.241 35.112 116.655 35.112C115.833 35.112 115.092 34.9307 114.431 34.568C113.78 34.2053 113.268 33.6933 112.895 33.032C112.521 32.36 112.335 31.592 112.335 30.728C112.335 29.864 112.521 29.1013 112.895 28.44C113.268 27.7787 113.78 27.2667 114.431 26.904C115.092 26.5413 115.833 26.36 116.655 26.36C117.22 26.36 117.737 26.456 118.207 26.648C118.676 26.84 119.076 27.128 119.407 27.512V23.128H121.407ZM116.895 33.4C117.375 33.4 117.807 33.2933 118.191 33.08C118.575 32.856 118.879 32.5413 119.103 32.136C119.327 31.7307 119.439 31.2613 119.439 30.728C119.439 30.1947 119.327 29.7253 119.103 29.32C118.879 28.9147 118.575 28.6053 118.191 28.392C117.807 28.168 117.375 28.056 116.895 28.056C116.415 28.056 115.983 28.168 115.599 28.392C115.215 28.6053 114.911 28.9147 114.687 29.32C114.463 29.7253 114.351 30.1947 114.351 30.728C114.351 31.2613 114.463 31.7307 114.687 32.136C114.911 32.5413 115.215 32.856 115.599 33.08C115.983 33.2933 116.415 33.4 116.895 33.4ZM124.023 26.456H126.023V35H124.023V26.456ZM125.031 25.048C124.668 25.048 124.364 24.936 124.119 24.712C123.874 24.4773 123.751 24.1893 123.751 23.848C123.751 23.5067 123.874 23.224 124.119 23C124.364 22.7653 124.668 22.648 125.031 22.648C125.394 22.648 125.698 22.76 125.943 22.984C126.188 23.1973 126.311 23.4693 126.311 23.8C126.311 24.152 126.188 24.4507 125.943 24.696C125.708 24.9307 125.404 25.048 125.031 25.048ZM130.552 27.704C131.128 26.808 132.141 26.36 133.592 26.36V28.264C133.421 28.232 133.267 28.216 133.128 28.216C132.349 28.216 131.741 28.4453 131.304 28.904C130.867 29.352 130.648 30.0027 130.648 30.856V35H128.648V26.456H130.552V27.704ZM143.242 30.776C143.242 30.9147 143.232 31.112 143.21 31.368H136.506C136.624 31.9973 136.928 32.4987 137.418 32.872C137.92 33.2347 138.538 33.416 139.274 33.416C140.213 33.416 140.986 33.1067 141.594 32.488L142.666 33.72C142.282 34.1787 141.797 34.5253 141.21 34.76C140.624 34.9947 139.962 35.112 139.226 35.112C138.288 35.112 137.461 34.9253 136.746 34.552C136.032 34.1787 135.477 33.6613 135.082 33C134.698 32.328 134.506 31.5707 134.506 30.728C134.506 29.896 134.693 29.1493 135.066 28.488C135.45 27.816 135.978 27.2933 136.65 26.92C137.322 26.5467 138.08 26.36 138.922 26.36C139.754 26.36 140.496 26.5467 141.146 26.92C141.808 27.2827 142.32 27.8 142.682 28.472C143.056 29.1333 143.242 29.9013 143.242 30.776ZM138.922 27.96C138.282 27.96 137.738 28.152 137.29 28.536C136.853 28.9093 136.586 29.4107 136.49 30.04H141.338C141.253 29.4213 140.992 28.92 140.554 28.536C140.117 28.152 139.573 27.96 138.922 27.96ZM149.084 35.112C148.198 35.112 147.404 34.9253 146.7 34.552C145.996 34.1787 145.446 33.6613 145.052 33C144.657 32.328 144.46 31.5707 144.46 30.728C144.46 29.8853 144.657 29.1333 145.052 28.472C145.446 27.8107 145.99 27.2933 146.684 26.92C147.388 26.5467 148.188 26.36 149.084 26.36C149.926 26.36 150.662 26.5307 151.292 26.872C151.932 27.2133 152.412 27.704 152.732 28.344L151.196 29.24C150.95 28.8453 150.641 28.552 150.268 28.36C149.905 28.1573 149.505 28.056 149.068 28.056C148.321 28.056 147.702 28.3013 147.212 28.792C146.721 29.272 146.476 29.9173 146.476 30.728C146.476 31.5387 146.716 32.1893 147.196 32.68C147.686 33.16 148.31 33.4 149.068 33.4C149.505 33.4 149.905 33.304 150.268 33.112C150.641 32.9093 150.95 32.6107 151.196 32.216L152.732 33.112C152.401 33.752 151.916 34.248 151.276 34.6C150.646 34.9413 149.916 35.112 149.084 35.112ZM159.706 34.536C159.471 34.728 159.183 34.872 158.842 34.968C158.511 35.064 158.159 35.112 157.786 35.112C156.847 35.112 156.122 34.8667 155.61 34.376C155.098 33.8853 154.842 33.1707 154.842 32.232V28.12H153.434V26.52H154.842V24.568H156.842V26.52H159.13V28.12H156.842V32.184C156.842 32.6 156.943 32.92 157.146 33.144C157.348 33.3573 157.642 33.464 158.026 33.464C158.474 33.464 158.847 33.3467 159.146 33.112L159.706 34.536ZM164.91 35.112C164.046 35.112 163.267 34.9253 162.574 34.552C161.88 34.1787 161.336 33.6613 160.942 33C160.558 32.328 160.366 31.5707 160.366 30.728C160.366 29.8853 160.558 29.1333 160.942 28.472C161.336 27.8107 161.88 27.2933 162.574 26.92C163.267 26.5467 164.046 26.36 164.91 26.36C165.784 26.36 166.568 26.5467 167.262 26.92C167.955 27.2933 168.494 27.8107 168.878 28.472C169.272 29.1333 169.47 29.8853 169.47 30.728C169.47 31.5707 169.272 32.328 168.878 33C168.494 33.6613 167.955 34.1787 167.262 34.552C166.568 34.9253 165.784 35.112 164.91 35.112ZM164.91 33.4C165.646 33.4 166.254 33.1547 166.734 32.664C167.214 32.1733 167.454 31.528 167.454 30.728C167.454 29.928 167.214 29.2827 166.734 28.792C166.254 28.3013 165.646 28.056 164.91 28.056C164.174 28.056 163.566 28.3013 163.086 28.792C162.616 29.2827 162.382 29.928 162.382 30.728C162.382 31.528 162.616 32.1733 163.086 32.664C163.566 33.1547 164.174 33.4 164.91 33.4ZM173.286 27.704C173.862 26.808 174.876 26.36 176.326 26.36V28.264C176.156 28.232 176.001 28.216 175.862 28.216C175.084 28.216 174.476 28.4453 174.038 28.904C173.601 29.352 173.382 30.0027 173.382 30.856V35H171.382V26.456H173.286V27.704Z" fill="#3595FE"></path> <rect x="1.25" y="1.25" width="205.5" height="57.5" rx="28.75" stroke="#3595FE" stroke-width="2.5"></rect> </svg> 