<?xml version="1.0" encoding="UTF-8"?> <svg xmlns="http://www.w3.org/2000/svg" width="61" height="61" viewBox="0 0 61 61" fill="none"> <path d="M10.0969 10.0972C21.3245 -1.13038 39.528 -1.13038 50.7556 10.0972C61.9832 21.3248 61.9832 39.5283 50.7556 50.7558C39.528 61.9834 21.3245 61.9834 10.0969 50.7558C-1.13062 39.5283 -1.13062 21.3248 10.0969 10.0972Z" stroke="#7580E3" stroke-width="2.5"></path> <path d="M42.6726 42.2195L19.1656 42.2195C18.3426 42.2195 17.675 41.5513 17.675 40.7287C17.675 39.9061 18.3431 39.238 19.1656 39.238L37.5832 39.238L19.0107 20.6663C18.4291 20.0846 18.4291 19.1395 19.0107 18.5578C19.303 18.2655 19.6848 18.1225 20.0661 18.1225C20.4478 18.1225 20.8296 18.2685 21.1214 18.5578L39.6939 37.1295L39.6939 18.7102C39.6939 17.8871 40.362 17.2195 41.1845 17.2195C42.007 17.2195 42.675 17.8876 42.675 18.7102L42.6726 42.2195Z" fill="#7580E3"></path> </svg> 