<?xml version="1.0" encoding="UTF-8"?> <svg xmlns="http://www.w3.org/2000/svg" width="164" height="59" viewBox="0 0 164 59" fill="none"> <path d="M21.6368 23.8H23.7168V35H21.6368V23.8ZM29.0182 25.56H25.3062V23.8H34.8102V25.56H31.0982V35H29.0182V25.56ZM48.1211 35L45.8331 31.72C45.7371 31.7307 45.5931 31.736 45.4011 31.736H42.8731V35H40.7931V23.8H45.4011C46.3717 23.8 47.2144 23.96 47.9291 24.28C48.6544 24.6 49.2091 25.0587 49.5931 25.656C49.9771 26.2533 50.1691 26.9627 50.1691 27.784C50.1691 28.6267 49.9611 29.352 49.5451 29.96C49.1397 30.568 48.5531 31.0213 47.7851 31.32L50.3611 35H48.1211ZM48.0731 27.784C48.0731 27.0693 47.8384 26.52 47.3691 26.136C46.8997 25.752 46.2117 25.56 45.3051 25.56H42.8731V30.024H45.3051C46.2117 30.024 46.8997 29.832 47.3691 29.448C47.8384 29.0533 48.0731 28.4987 48.0731 27.784ZM60.3362 30.776C60.3362 30.9147 60.3255 31.112 60.3042 31.368H53.6002C53.7175 31.9973 54.0215 32.4987 54.5122 32.872C55.0135 33.2347 55.6322 33.416 56.3682 33.416C57.3069 33.416 58.0802 33.1067 58.6882 32.488L59.7602 33.72C59.3762 34.1787 58.8909 34.5253 58.3042 34.76C57.7175 34.9947 57.0562 35.112 56.3202 35.112C55.3815 35.112 54.5549 34.9253 53.8402 34.552C53.1255 34.1787 52.5709 33.6613 52.1762 33C51.7922 32.328 51.6002 31.5707 51.6002 30.728C51.6002 29.896 51.7869 29.1493 52.1602 28.488C52.5442 27.816 53.0722 27.2933 53.7442 26.92C54.4162 26.5467 55.1735 26.36 56.0162 26.36C56.8482 26.36 57.5895 26.5467 58.2402 26.92C58.9015 27.2827 59.4135 27.8 59.7762 28.472C60.1495 29.1333 60.3362 29.9013 60.3362 30.776ZM56.0162 27.96C55.3762 27.96 54.8322 28.152 54.3842 28.536C53.9469 28.9093 53.6802 29.4107 53.5842 30.04H58.4322C58.3469 29.4213 58.0855 28.92 57.6482 28.536C57.2109 28.152 56.6669 27.96 56.0162 27.96ZM66.1773 35.112C65.292 35.112 64.4973 34.9253 63.7933 34.552C63.0893 34.1787 62.54 33.6613 62.1453 33C61.7506 32.328 61.5533 31.5707 61.5533 30.728C61.5533 29.8853 61.7506 29.1333 62.1453 28.472C62.54 27.8107 63.084 27.2933 63.7773 26.92C64.4813 26.5467 65.2813 26.36 66.1773 26.36C67.02 26.36 67.756 26.5307 68.3853 26.872C69.0253 27.2133 69.5053 27.704 69.8253 28.344L68.2893 29.24C68.044 28.8453 67.7346 28.552 67.3613 28.36C66.9986 28.1573 66.5986 28.056 66.1613 28.056C65.4146 28.056 64.796 28.3013 64.3053 28.792C63.8146 29.272 63.5693 29.9173 63.5693 30.728C63.5693 31.5387 63.8093 32.1893 64.2893 32.68C64.78 33.16 65.404 33.4 66.1613 33.4C66.5986 33.4 66.9986 33.304 67.3613 33.112C67.7346 32.9093 68.044 32.6107 68.2893 32.216L69.8253 33.112C69.4946 33.752 69.0093 34.248 68.3693 34.6C67.74 34.9413 67.0093 35.112 66.1773 35.112ZM73.4582 27.704C74.0342 26.808 75.0475 26.36 76.4982 26.36V28.264C76.3275 28.232 76.1729 28.216 76.0342 28.216C75.2555 28.216 74.6475 28.4453 74.2102 28.904C73.7729 29.352 73.5542 30.0027 73.5542 30.856V35H71.5542V26.456H73.4582V27.704ZM86.5449 26.456V35H84.6409V33.912C84.3209 34.296 83.9209 34.5947 83.4409 34.808C82.9609 35.0107 82.4436 35.112 81.8889 35.112C80.7476 35.112 79.8463 34.7973 79.1849 34.168C78.5343 33.528 78.2089 32.584 78.2089 31.336V26.456H80.2089V31.064C80.2089 31.832 80.3796 32.408 80.7209 32.792C81.0729 33.1653 81.5689 33.352 82.2089 33.352C82.9236 33.352 83.4889 33.1333 83.9049 32.696C84.3316 32.248 84.5449 31.608 84.5449 30.776V26.456H86.5449ZM89.1636 26.456H91.1636V35H89.1636V26.456ZM90.1716 25.048C89.8089 25.048 89.5049 24.936 89.2596 24.712C89.0142 24.4773 88.8916 24.1893 88.8916 23.848C88.8916 23.5067 89.0142 23.224 89.2596 23C89.5049 22.7653 89.8089 22.648 90.1716 22.648C90.5342 22.648 90.8382 22.76 91.0836 22.984C91.3289 23.1973 91.4516 23.4693 91.4516 23.8C91.4516 24.152 91.3289 24.4507 91.0836 24.696C90.8489 24.9307 90.5449 25.048 90.1716 25.048ZM98.9246 34.536C98.6899 34.728 98.4019 34.872 98.0606 34.968C97.7299 35.064 97.3779 35.112 97.0046 35.112C96.0659 35.112 95.3406 34.8667 94.8286 34.376C94.3166 33.8853 94.0606 33.1707 94.0606 32.232V28.12H92.6526V26.52H94.0606V24.568H96.0606V26.52H98.3486V28.12H96.0606V32.184C96.0606 32.6 96.1619 32.92 96.3646 33.144C96.5672 33.3573 96.8606 33.464 97.2446 33.464C97.6926 33.464 98.0659 33.3467 98.3646 33.112L98.9246 34.536ZM111.354 26.36C112.431 26.36 113.284 26.6747 113.914 27.304C114.543 27.9227 114.858 28.856 114.858 30.104V35H112.858V30.36C112.858 29.6133 112.692 29.0533 112.362 28.68C112.031 28.296 111.556 28.104 110.938 28.104C110.266 28.104 109.727 28.328 109.322 28.776C108.916 29.2133 108.714 29.8427 108.714 30.664V35H106.714V30.36C106.714 29.6133 106.548 29.0533 106.218 28.68C105.887 28.296 105.412 28.104 104.794 28.104C104.111 28.104 103.567 28.3227 103.162 28.76C102.767 29.1973 102.57 29.832 102.57 30.664V35H100.57V26.456H102.474V27.544C102.794 27.16 103.194 26.8667 103.674 26.664C104.154 26.4613 104.687 26.36 105.274 26.36C105.914 26.36 106.479 26.4827 106.97 26.728C107.471 26.9627 107.866 27.3147 108.154 27.784C108.506 27.336 108.959 26.9893 109.514 26.744C110.068 26.488 110.682 26.36 111.354 26.36ZM125.524 30.776C125.524 30.9147 125.513 31.112 125.492 31.368H118.788C118.905 31.9973 119.209 32.4987 119.7 32.872C120.201 33.2347 120.82 33.416 121.556 33.416C122.494 33.416 123.268 33.1067 123.876 32.488L124.948 33.72C124.564 34.1787 124.078 34.5253 123.492 34.76C122.905 34.9947 122.244 35.112 121.508 35.112C120.569 35.112 119.742 34.9253 119.028 34.552C118.313 34.1787 117.758 33.6613 117.364 33C116.98 32.328 116.788 31.5707 116.788 30.728C116.788 29.896 116.974 29.1493 117.348 28.488C117.732 27.816 118.26 27.2933 118.932 26.92C119.604 26.5467 120.361 26.36 121.204 26.36C122.036 26.36 122.777 26.5467 123.428 26.92C124.089 27.2827 124.601 27.8 124.964 28.472C125.337 29.1333 125.524 29.9013 125.524 30.776ZM121.204 27.96C120.564 27.96 120.02 28.152 119.572 28.536C119.134 28.9093 118.868 29.4107 118.772 30.04H123.62C123.534 29.4213 123.273 28.92 122.836 28.536C122.398 28.152 121.854 27.96 121.204 27.96ZM132.293 26.36C133.37 26.36 134.234 26.6747 134.885 27.304C135.535 27.9333 135.861 28.8667 135.861 30.104V35H133.861V30.36C133.861 29.6133 133.685 29.0533 133.333 28.68C132.981 28.296 132.479 28.104 131.829 28.104C131.093 28.104 130.511 28.328 130.085 28.776C129.658 29.2133 129.445 29.848 129.445 30.68V35H127.445V26.456H129.349V27.56C129.679 27.1653 130.095 26.8667 130.597 26.664C131.098 26.4613 131.663 26.36 132.293 26.36ZM143.534 34.536C143.299 34.728 143.011 34.872 142.67 34.968C142.339 35.064 141.987 35.112 141.614 35.112C140.675 35.112 139.95 34.8667 139.438 34.376C138.926 33.8853 138.67 33.1707 138.67 32.232V28.12H137.262V26.52H138.67V24.568H140.67V26.52H142.958V28.12H140.67V32.184C140.67 32.6 140.771 32.92 140.974 33.144C141.177 33.3573 141.47 33.464 141.854 33.464C142.302 33.464 142.675 33.3467 142.974 33.112L143.534 34.536Z" fill="#9B5AF0"></path> <rect x="1.25" y="1.25" width="161.5" height="56.5" rx="28.25" stroke="#9B5AF0" stroke-width="2.5"></rect> </svg> 