<?xml version="1.0" encoding="UTF-8"?> <svg xmlns="http://www.w3.org/2000/svg" width="210" height="59" viewBox="0 0 210 59" fill="none"> <path d="M24.151 25.56H20.439V23.8H29.943V25.56H26.231V35H24.151V25.56ZM38.469 30.776C38.469 30.9147 38.4583 31.112 38.437 31.368H31.733C31.8503 31.9973 32.1543 32.4987 32.645 32.872C33.1463 33.2347 33.765 33.416 34.501 33.416C35.4397 33.416 36.213 33.1067 36.821 32.488L37.893 33.72C37.509 34.1787 37.0237 34.5253 36.437 34.76C35.8503 34.9947 35.189 35.112 34.453 35.112C33.5143 35.112 32.6877 34.9253 31.973 34.552C31.2583 34.1787 30.7037 33.6613 30.309 33C29.925 32.328 29.733 31.5707 29.733 30.728C29.733 29.896 29.9197 29.1493 30.293 28.488C30.677 27.816 31.205 27.2933 31.877 26.92C32.549 26.5467 33.3063 26.36 34.149 26.36C34.981 26.36 35.7223 26.5467 36.373 26.92C37.0343 27.2827 37.5463 27.8 37.909 28.472C38.2823 29.1333 38.469 29.9013 38.469 30.776ZM34.149 27.96C33.509 27.96 32.965 28.152 32.517 28.536C32.0797 28.9093 31.813 29.4107 31.717 30.04H36.565C36.4797 29.4213 36.2183 28.92 35.781 28.536C35.3437 28.152 34.7997 27.96 34.149 27.96ZM44.3101 35.112C43.4248 35.112 42.6301 34.9253 41.9261 34.552C41.2221 34.1787 40.6728 33.6613 40.2781 33C39.8835 32.328 39.6861 31.5707 39.6861 30.728C39.6861 29.8853 39.8835 29.1333 40.2781 28.472C40.6728 27.8107 41.2168 27.2933 41.9101 26.92C42.6141 26.5467 43.4141 26.36 44.3101 26.36C45.1528 26.36 45.8888 26.5307 46.5181 26.872C47.1581 27.2133 47.6381 27.704 47.9581 28.344L46.4221 29.24C46.1768 28.8453 45.8675 28.552 45.4941 28.36C45.1315 28.1573 44.7315 28.056 44.2941 28.056C43.5475 28.056 42.9288 28.3013 42.4381 28.792C41.9475 29.272 41.7021 29.9173 41.7021 30.728C41.7021 31.5387 41.9421 32.1893 42.4221 32.68C42.9128 33.16 43.5368 33.4 44.2941 33.4C44.7315 33.4 45.1315 33.304 45.4941 33.112C45.8675 32.9093 46.1768 32.6107 46.4221 32.216L47.9581 33.112C47.6275 33.752 47.1421 34.248 46.5021 34.6C45.8728 34.9413 45.1421 35.112 44.3101 35.112ZM54.4569 26.36C55.5342 26.36 56.3982 26.6747 57.0489 27.304C57.6995 27.9333 58.0249 28.8667 58.0249 30.104V35H56.0249V30.36C56.0249 29.6133 55.8489 29.0533 55.4969 28.68C55.1449 28.296 54.6435 28.104 53.9929 28.104C53.2569 28.104 52.6755 28.328 52.2489 28.776C51.8222 29.2133 51.6089 29.848 51.6089 30.68V35H49.6089V23.128H51.6089V27.448C51.9395 27.096 52.3449 26.8293 52.8249 26.648C53.3155 26.456 53.8595 26.36 54.4569 26.36ZM65.41 26.36C66.4873 26.36 67.3513 26.6747 68.002 27.304C68.6527 27.9333 68.978 28.8667 68.978 30.104V35H66.978V30.36C66.978 29.6133 66.802 29.0533 66.45 28.68C66.098 28.296 65.5967 28.104 64.946 28.104C64.21 28.104 63.6287 28.328 63.202 28.776C62.7753 29.2133 62.562 29.848 62.562 30.68V35H60.562V26.456H62.466V27.56C62.7967 27.1653 63.2127 26.8667 63.714 26.664C64.2153 26.4613 64.7807 26.36 65.41 26.36ZM71.5151 26.456H73.5151V35H71.5151V26.456ZM72.5231 25.048C72.1605 25.048 71.8565 24.936 71.6111 24.712C71.3658 24.4773 71.2431 24.1893 71.2431 23.848C71.2431 23.5067 71.3658 23.224 71.6111 23C71.8565 22.7653 72.1605 22.648 72.5231 22.648C72.8858 22.648 73.1898 22.76 73.4351 22.984C73.6805 23.1973 73.8031 23.4693 73.8031 23.8C73.8031 24.152 73.6805 24.4507 73.4351 24.696C73.2005 24.9307 72.8965 25.048 72.5231 25.048ZM80.0601 35.112C79.1748 35.112 78.3801 34.9253 77.6761 34.552C76.9721 34.1787 76.4228 33.6613 76.0281 33C75.6335 32.328 75.4361 31.5707 75.4361 30.728C75.4361 29.8853 75.6335 29.1333 76.0281 28.472C76.4228 27.8107 76.9668 27.2933 77.6601 26.92C78.3641 26.5467 79.1641 26.36 80.0601 26.36C80.9028 26.36 81.6388 26.5307 82.2681 26.872C82.9081 27.2133 83.3881 27.704 83.7081 28.344L82.1721 29.24C81.9268 28.8453 81.6175 28.552 81.2441 28.36C80.8815 28.1573 80.4815 28.056 80.0441 28.056C79.2975 28.056 78.6788 28.3013 78.1881 28.792C77.6975 29.272 77.4521 29.9173 77.4521 30.728C77.4521 31.5387 77.6921 32.1893 78.1721 32.68C78.6628 33.16 79.2868 33.4 80.0441 33.4C80.4815 33.4 80.8815 33.304 81.2441 33.112C81.6175 32.9093 81.9268 32.6107 82.1721 32.216L83.7081 33.112C83.3775 33.752 82.8921 34.248 82.2521 34.6C81.6228 34.9413 80.8921 35.112 80.0601 35.112ZM88.701 26.36C89.9597 26.36 90.9197 26.664 91.581 27.272C92.253 27.8693 92.589 28.776 92.589 29.992V35H90.701V33.96C90.4557 34.3333 90.1037 34.6213 89.645 34.824C89.197 35.016 88.653 35.112 88.013 35.112C87.373 35.112 86.813 35.0053 86.333 34.792C85.853 34.568 85.4797 34.264 85.213 33.88C84.957 33.4853 84.829 33.0427 84.829 32.552C84.829 31.784 85.1117 31.1707 85.677 30.712C86.253 30.2427 87.1543 30.008 88.381 30.008H90.589V29.88C90.589 29.2827 90.4077 28.824 90.045 28.504C89.693 28.184 89.165 28.024 88.461 28.024C87.981 28.024 87.5063 28.0987 87.037 28.248C86.5783 28.3973 86.189 28.6053 85.869 28.872L85.085 27.416C85.533 27.0747 86.0717 26.8133 86.701 26.632C87.3303 26.4507 87.997 26.36 88.701 26.36ZM88.429 33.656C88.9303 33.656 89.373 33.544 89.757 33.32C90.1517 33.0853 90.429 32.7547 90.589 32.328V31.336H88.525C87.373 31.336 86.797 31.7147 86.797 32.472C86.797 32.8347 86.941 33.1227 87.229 33.336C87.517 33.5493 87.917 33.656 88.429 33.656ZM95.1558 23.128H97.1558V35H95.1558V23.128ZM111.723 35L109.435 31.72C109.339 31.7307 109.195 31.736 109.003 31.736H106.475V35H104.395V23.8H109.003C109.973 23.8 110.816 23.96 111.531 24.28C112.256 24.6 112.811 25.0587 113.195 25.656C113.579 26.2533 113.771 26.9627 113.771 27.784C113.771 28.6267 113.563 29.352 113.147 29.96C112.741 30.568 112.155 31.0213 111.387 31.32L113.963 35H111.723ZM111.675 27.784C111.675 27.0693 111.44 26.52 110.971 26.136C110.501 25.752 109.813 25.56 108.907 25.56H106.475V30.024H108.907C109.813 30.024 110.501 29.832 110.971 29.448C111.44 29.0533 111.675 28.4987 111.675 27.784ZM123.938 30.776C123.938 30.9147 123.927 31.112 123.906 31.368H117.202C117.319 31.9973 117.623 32.4987 118.114 32.872C118.615 33.2347 119.234 33.416 119.97 33.416C120.908 33.416 121.682 33.1067 122.29 32.488L123.362 33.72C122.978 34.1787 122.492 34.5253 121.906 34.76C121.319 34.9947 120.658 35.112 119.922 35.112C118.983 35.112 118.156 34.9253 117.442 34.552C116.727 34.1787 116.172 33.6613 115.778 33C115.394 32.328 115.202 31.5707 115.202 30.728C115.202 29.896 115.388 29.1493 115.762 28.488C116.146 27.816 116.674 27.2933 117.346 26.92C118.018 26.5467 118.775 26.36 119.618 26.36C120.45 26.36 121.191 26.5467 121.842 26.92C122.503 27.2827 123.015 27.8 123.378 28.472C123.751 29.1333 123.938 29.9013 123.938 30.776ZM119.618 27.96C118.978 27.96 118.434 28.152 117.986 28.536C117.548 28.9093 117.282 29.4107 117.186 30.04H122.034C121.948 29.4213 121.687 28.92 121.25 28.536C120.812 28.152 120.268 27.96 119.618 27.96ZM129.779 35.112C128.894 35.112 128.099 34.9253 127.395 34.552C126.691 34.1787 126.142 33.6613 125.747 33C125.352 32.328 125.155 31.5707 125.155 30.728C125.155 29.8853 125.352 29.1333 125.747 28.472C126.142 27.8107 126.686 27.2933 127.379 26.92C128.083 26.5467 128.883 26.36 129.779 26.36C130.622 26.36 131.358 26.5307 131.987 26.872C132.627 27.2133 133.107 27.704 133.427 28.344L131.891 29.24C131.646 28.8453 131.336 28.552 130.963 28.36C130.6 28.1573 130.2 28.056 129.763 28.056C129.016 28.056 128.398 28.3013 127.907 28.792C127.416 29.272 127.171 29.9173 127.171 30.728C127.171 31.5387 127.411 32.1893 127.891 32.68C128.382 33.16 129.006 33.4 129.763 33.4C130.2 33.4 130.6 33.304 130.963 33.112C131.336 32.9093 131.646 32.6107 131.891 32.216L133.427 33.112C133.096 33.752 132.611 34.248 131.971 34.6C131.342 34.9413 130.611 35.112 129.779 35.112ZM137.06 27.704C137.636 26.808 138.649 26.36 140.1 26.36V28.264C139.929 28.232 139.774 28.216 139.636 28.216C138.857 28.216 138.249 28.4453 137.812 28.904C137.374 29.352 137.156 30.0027 137.156 30.856V35H135.156V26.456H137.06V27.704ZM150.147 26.456V35H148.243V33.912C147.923 34.296 147.523 34.5947 147.043 34.808C146.563 35.0107 146.045 35.112 145.491 35.112C144.349 35.112 143.448 34.7973 142.787 34.168C142.136 33.528 141.811 32.584 141.811 31.336V26.456H143.811V31.064C143.811 31.832 143.981 32.408 144.323 32.792C144.675 33.1653 145.171 33.352 145.811 33.352C146.525 33.352 147.091 33.1333 147.507 32.696C147.933 32.248 148.147 31.608 148.147 30.776V26.456H150.147ZM152.765 26.456H154.765V35H152.765V26.456ZM153.773 25.048C153.41 25.048 153.106 24.936 152.861 24.712C152.616 24.4773 152.493 24.1893 152.493 23.848C152.493 23.5067 152.616 23.224 152.861 23C153.106 22.7653 153.41 22.648 153.773 22.648C154.136 22.648 154.44 22.76 154.685 22.984C154.93 23.1973 155.053 23.4693 155.053 23.8C155.053 24.152 154.93 24.4507 154.685 24.696C154.45 24.9307 154.146 25.048 153.773 25.048ZM162.526 34.536C162.291 34.728 162.003 34.872 161.662 34.968C161.331 35.064 160.979 35.112 160.606 35.112C159.667 35.112 158.942 34.8667 158.43 34.376C157.918 33.8853 157.662 33.1707 157.662 32.232V28.12H156.254V26.52H157.662V24.568H159.662V26.52H161.95V28.12H159.662V32.184C159.662 32.6 159.763 32.92 159.966 33.144C160.169 33.3573 160.462 33.464 160.846 33.464C161.294 33.464 161.667 33.3467 161.966 33.112L162.526 34.536ZM164.171 26.456H166.171V35H164.171V26.456ZM165.179 25.048C164.817 25.048 164.513 24.936 164.267 24.712C164.022 24.4773 163.899 24.1893 163.899 23.848C163.899 23.5067 164.022 23.224 164.267 23C164.513 22.7653 164.817 22.648 165.179 22.648C165.542 22.648 165.846 22.76 166.091 22.984C166.337 23.1973 166.459 23.4693 166.459 23.8C166.459 24.152 166.337 24.4507 166.091 24.696C165.857 24.9307 165.553 25.048 165.179 25.048ZM173.644 26.36C174.722 26.36 175.586 26.6747 176.236 27.304C176.887 27.9333 177.212 28.8667 177.212 30.104V35H175.212V30.36C175.212 29.6133 175.036 29.0533 174.684 28.68C174.332 28.296 173.831 28.104 173.18 28.104C172.444 28.104 171.863 28.328 171.436 28.776C171.01 29.2133 170.796 29.848 170.796 30.68V35H168.796V26.456H170.7V27.56C171.031 27.1653 171.447 26.8667 171.948 26.664C172.45 26.4613 173.015 26.36 173.644 26.36ZM188.308 26.456V33.704C188.308 36.712 186.772 38.216 183.7 38.216C182.878 38.216 182.1 38.1093 181.364 37.896C180.628 37.6933 180.02 37.3947 179.54 37L180.436 35.496C180.809 35.8053 181.278 36.0507 181.844 36.232C182.42 36.424 183.001 36.52 183.588 36.52C184.526 36.52 185.214 36.3067 185.652 35.88C186.089 35.4533 186.308 34.8027 186.308 33.928V33.48C185.966 33.8533 185.55 34.136 185.06 34.328C184.569 34.52 184.03 34.616 183.444 34.616C182.633 34.616 181.897 34.4453 181.236 34.104C180.585 33.752 180.068 33.2613 179.684 32.632C179.31 32.0027 179.124 31.2827 179.124 30.472C179.124 29.6613 179.31 28.9467 179.684 28.328C180.068 27.6987 180.585 27.2133 181.236 26.872C181.897 26.5307 182.633 26.36 183.444 26.36C184.062 26.36 184.622 26.4613 185.124 26.664C185.636 26.8667 186.062 27.176 186.404 27.592V26.456H188.308ZM183.748 32.92C184.505 32.92 185.124 32.696 185.604 32.248C186.094 31.7893 186.34 31.1973 186.34 30.472C186.34 29.7573 186.094 29.176 185.604 28.728C185.124 28.28 184.505 28.056 183.748 28.056C182.98 28.056 182.35 28.28 181.86 28.728C181.38 29.176 181.14 29.7573 181.14 30.472C181.14 31.1973 181.38 31.7893 181.86 32.248C182.35 32.696 182.98 32.92 183.748 32.92Z" fill="#B1B1B1"></path> <rect x="1.25" y="1.25" width="207.5" height="56.5" rx="28.25" stroke="#F2F2F2" stroke-width="2.5"></rect> </svg> 