<?xml version="1.0" encoding="UTF-8"?> <svg xmlns="http://www.w3.org/2000/svg" width="59" height="59" viewBox="0 0 59 59" fill="none"> <circle cx="29.5" cy="29.5" r="29.5" fill="#3595FE"></circle> <path d="M18.3685 30.42C18.8245 30.42 19.3105 30.3 19.8265 30.06C20.3425 29.82 20.8345 29.43 21.3025 28.89C21.1825 27.762 20.8705 26.91 20.3665 26.334C19.8745 25.758 19.2025 25.47 18.3505 25.47C18.0025 25.47 17.6785 25.53 17.3785 25.65C17.0905 25.77 16.8385 25.944 16.6225 26.172C16.4065 26.388 16.2325 26.652 16.1005 26.964C15.9805 27.276 15.9205 27.618 15.9205 27.99C15.9205 28.782 16.1245 29.388 16.5325 29.808C16.9525 30.216 17.5645 30.42 18.3685 30.42ZM17.9365 36.216C17.2285 36.216 16.6105 36.102 16.0825 35.874C15.5665 35.646 15.1165 35.358 14.7325 35.01L15.5605 34.074C15.8485 34.35 16.1905 34.572 16.5865 34.74C16.9825 34.908 17.4025 34.992 17.8465 34.992C18.3025 34.992 18.7345 34.908 19.1425 34.74C19.5625 34.572 19.9285 34.296 20.2405 33.912C20.5645 33.516 20.8225 33.006 21.0145 32.382C21.2065 31.758 21.3145 30.984 21.3385 30.06C20.8705 30.516 20.3545 30.876 19.7905 31.14C19.2385 31.404 18.6685 31.536 18.0805 31.536C17.5525 31.536 17.0665 31.464 16.6225 31.32C16.1905 31.164 15.8185 30.942 15.5065 30.654C15.1945 30.354 14.9485 29.982 14.7685 29.538C14.6005 29.094 14.5165 28.578 14.5165 27.99C14.5165 27.438 14.6185 26.94 14.8225 26.496C15.0265 26.04 15.3025 25.65 15.6505 25.326C16.0105 25.002 16.4185 24.75 16.8745 24.57C17.3425 24.39 17.8285 24.3 18.3325 24.3C18.9565 24.3 19.5385 24.414 20.0785 24.642C20.6185 24.87 21.0865 25.218 21.4825 25.686C21.8785 26.142 22.1845 26.718 22.4005 27.414C22.6285 28.098 22.7425 28.902 22.7425 29.826C22.7425 30.978 22.6045 31.962 22.3285 32.778C22.0645 33.582 21.7105 34.242 21.2665 34.758C20.8225 35.262 20.3125 35.634 19.7365 35.874C19.1605 36.102 18.5605 36.216 17.9365 36.216ZM29.1615 30.42C29.6175 30.42 30.1035 30.3 30.6195 30.06C31.1355 29.82 31.6275 29.43 32.0955 28.89C31.9755 27.762 31.6635 26.91 31.1595 26.334C30.6675 25.758 29.9955 25.47 29.1435 25.47C28.7955 25.47 28.4715 25.53 28.1715 25.65C27.8835 25.77 27.6315 25.944 27.4155 26.172C27.1995 26.388 27.0255 26.652 26.8935 26.964C26.7735 27.276 26.7135 27.618 26.7135 27.99C26.7135 28.782 26.9175 29.388 27.3255 29.808C27.7455 30.216 28.3575 30.42 29.1615 30.42ZM28.7295 36.216C28.0215 36.216 27.4035 36.102 26.8755 35.874C26.3595 35.646 25.9095 35.358 25.5255 35.01L26.3535 34.074C26.6415 34.35 26.9835 34.572 27.3795 34.74C27.7755 34.908 28.1955 34.992 28.6395 34.992C29.0955 34.992 29.5275 34.908 29.9355 34.74C30.3555 34.572 30.7215 34.296 31.0335 33.912C31.3575 33.516 31.6155 33.006 31.8075 32.382C31.9995 31.758 32.1075 30.984 32.1315 30.06C31.6635 30.516 31.1475 30.876 30.5835 31.14C30.0315 31.404 29.4615 31.536 28.8735 31.536C28.3455 31.536 27.8595 31.464 27.4155 31.32C26.9835 31.164 26.6115 30.942 26.2995 30.654C25.9875 30.354 25.7415 29.982 25.5615 29.538C25.3935 29.094 25.3095 28.578 25.3095 27.99C25.3095 27.438 25.4115 26.94 25.6155 26.496C25.8195 26.04 26.0955 25.65 26.4435 25.326C26.8035 25.002 27.2115 24.75 27.6675 24.57C28.1355 24.39 28.6215 24.3 29.1255 24.3C29.7495 24.3 30.3315 24.414 30.8715 24.642C31.4115 24.87 31.8795 25.218 32.2755 25.686C32.6715 26.142 32.9775 26.718 33.1935 27.414C33.4215 28.098 33.5355 28.902 33.5355 29.826C33.5355 30.978 33.3975 31.962 33.1215 32.778C32.8575 33.582 32.5035 34.242 32.0595 34.758C31.6155 35.262 31.1055 35.634 30.5295 35.874C29.9535 36.102 29.3535 36.216 28.7295 36.216ZM39.7025 34.128V30.618H36.4265V29.502H39.7025V25.992H40.8905V29.502H44.1665V30.618H40.8905V34.128H39.7025Z" fill="white"></path> </svg> 