<?xml version="1.0" encoding="UTF-8"?> <svg xmlns="http://www.w3.org/2000/svg" width="60" height="60" viewBox="0 0 60 60" fill="none"> <rect x="1.25" y="1.25" width="57.5" height="57.5" rx="28.75" stroke="#9B5AF0" stroke-width="2.5"></rect> <path d="M29.6796 13.0018L46.3015 29.6237C46.8834 30.2057 46.883 31.1502 46.3013 31.7319C45.7197 32.3135 44.7748 32.3136 44.1932 31.732L31.17 18.7088L31.1706 44.9737C31.1705 45.7963 30.5023 46.4645 29.6797 46.4646C29.2662 46.4646 28.8952 46.2957 28.6256 46.0261C28.3557 45.7562 28.1889 45.3831 28.1872 44.9721L28.1867 18.7072L15.1622 31.7316C14.5802 32.3136 13.6357 32.3133 13.0541 31.7317C12.4725 31.1501 12.4726 30.2053 13.0543 29.6236L29.6796 13.0018Z" fill="#9B5AF0"></path> </svg> 