<?xml version="1.0" encoding="UTF-8"?> <svg xmlns="http://www.w3.org/2000/svg" width="191" height="59" viewBox="0 0 191 59" fill="none"> <path d="M31.5576 23.8V35H29.4776V30.2H23.6856V35H21.6056V23.8H23.6856V28.424H29.4776V23.8H31.5576ZM42.6387 26.456V35H40.7347V33.912C40.4147 34.296 40.0147 34.5947 39.5347 34.808C39.0547 35.0107 38.5374 35.112 37.9827 35.112C36.8414 35.112 35.94 34.7973 35.2787 34.168C34.628 33.528 34.3027 32.584 34.3027 31.336V26.456H36.3027V31.064C36.3027 31.832 36.4734 32.408 36.8147 32.792C37.1667 33.1653 37.6627 33.352 38.3027 33.352C39.0174 33.352 39.5827 33.1333 39.9987 32.696C40.4254 32.248 40.6387 31.608 40.6387 30.776V26.456H42.6387ZM56.0413 26.36C57.1186 26.36 57.972 26.6747 58.6013 27.304C59.2306 27.9227 59.5453 28.856 59.5453 30.104V35H57.5453V30.36C57.5453 29.6133 57.38 29.0533 57.0493 28.68C56.7186 28.296 56.244 28.104 55.6253 28.104C54.9533 28.104 54.4146 28.328 54.0093 28.776C53.604 29.2133 53.4013 29.8427 53.4013 30.664V35H51.4013V30.36C51.4013 29.6133 51.236 29.0533 50.9053 28.68C50.5746 28.296 50.1 28.104 49.4813 28.104C48.7986 28.104 48.2546 28.3227 47.8493 28.76C47.4546 29.1973 47.2573 29.832 47.2573 30.664V35H45.2573V26.456H47.1613V27.544C47.4813 27.16 47.8813 26.8667 48.3613 26.664C48.8413 26.4613 49.3746 26.36 49.9613 26.36C50.6013 26.36 51.1666 26.4827 51.6573 26.728C52.1586 26.9627 52.5533 27.3147 52.8413 27.784C53.1933 27.336 53.6466 26.9893 54.2013 26.744C54.756 26.488 55.3693 26.36 56.0413 26.36ZM65.3651 26.36C66.6237 26.36 67.5837 26.664 68.2451 27.272C68.9171 27.8693 69.2531 28.776 69.2531 29.992V35H67.3651V33.96C67.1197 34.3333 66.7677 34.6213 66.3091 34.824C65.8611 35.016 65.3171 35.112 64.6771 35.112C64.0371 35.112 63.4771 35.0053 62.9971 34.792C62.5171 34.568 62.1437 34.264 61.8771 33.88C61.6211 33.4853 61.4931 33.0427 61.4931 32.552C61.4931 31.784 61.7757 31.1707 62.3411 30.712C62.9171 30.2427 63.8184 30.008 65.0451 30.008H67.2531V29.88C67.2531 29.2827 67.0717 28.824 66.7091 28.504C66.3571 28.184 65.8291 28.024 65.1251 28.024C64.6451 28.024 64.1704 28.0987 63.7011 28.248C63.2424 28.3973 62.8531 28.6053 62.5331 28.872L61.7491 27.416C62.1971 27.0747 62.7357 26.8133 63.3651 26.632C63.9944 26.4507 64.6611 26.36 65.3651 26.36ZM65.0931 33.656C65.5944 33.656 66.0371 33.544 66.4211 33.32C66.8157 33.0853 67.0931 32.7547 67.2531 32.328V31.336H65.1891C64.0371 31.336 63.4611 31.7147 63.4611 32.472C63.4611 32.8347 63.6051 33.1227 63.8931 33.336C64.1811 33.5493 64.5811 33.656 65.0931 33.656ZM76.6678 26.36C77.7451 26.36 78.6091 26.6747 79.2598 27.304C79.9105 27.9333 80.2358 28.8667 80.2358 30.104V35H78.2358V30.36C78.2358 29.6133 78.0598 29.0533 77.7078 28.68C77.3558 28.296 76.8545 28.104 76.2038 28.104C75.4678 28.104 74.8865 28.328 74.4598 28.776C74.0331 29.2133 73.8198 29.848 73.8198 30.68V35H71.8198V26.456H73.7238V27.56C74.0545 27.1653 74.4705 26.8667 74.9718 26.664C75.4731 26.4613 76.0385 26.36 76.6678 26.36ZM94.7148 35L92.4268 31.72C92.3308 31.7307 92.1868 31.736 91.9948 31.736H89.4668V35H87.3868V23.8H91.9948C92.9655 23.8 93.8081 23.96 94.5228 24.28C95.2481 24.6 95.8028 25.0587 96.1868 25.656C96.5708 26.2533 96.7628 26.9627 96.7628 27.784C96.7628 28.6267 96.5548 29.352 96.1388 29.96C95.7335 30.568 95.1468 31.0213 94.3788 31.32L96.9548 35H94.7148ZM94.6668 27.784C94.6668 27.0693 94.4321 26.52 93.9628 26.136C93.4935 25.752 92.8055 25.56 91.8988 25.56H89.4668V30.024H91.8988C92.8055 30.024 93.4935 29.832 93.9628 29.448C94.4321 29.0533 94.6668 28.4987 94.6668 27.784ZM106.93 30.776C106.93 30.9147 106.919 31.112 106.898 31.368H100.194C100.311 31.9973 100.615 32.4987 101.106 32.872C101.607 33.2347 102.226 33.416 102.962 33.416C103.901 33.416 104.674 33.1067 105.282 32.488L106.354 33.72C105.97 34.1787 105.485 34.5253 104.898 34.76C104.311 34.9947 103.65 35.112 102.914 35.112C101.975 35.112 101.149 34.9253 100.434 34.552C99.7193 34.1787 99.1646 33.6613 98.7699 33C98.3859 32.328 98.1939 31.5707 98.1939 30.728C98.1939 29.896 98.3806 29.1493 98.7539 28.488C99.1379 27.816 99.6659 27.2933 100.338 26.92C101.01 26.5467 101.767 26.36 102.61 26.36C103.442 26.36 104.183 26.5467 104.834 26.92C105.495 27.2827 106.007 27.8 106.37 28.472C106.743 29.1333 106.93 29.9013 106.93 30.776ZM102.61 27.96C101.97 27.96 101.426 28.152 100.978 28.536C100.541 28.9093 100.274 29.4107 100.178 30.04H105.026C104.941 29.4213 104.679 28.92 104.242 28.536C103.805 28.152 103.261 27.96 102.61 27.96ZM111.491 35.112C110.798 35.112 110.12 35.0213 109.459 34.84C108.798 34.6587 108.27 34.4293 107.875 34.152L108.643 32.632C109.027 32.888 109.486 33.096 110.019 33.256C110.563 33.4053 111.096 33.48 111.619 33.48C112.814 33.48 113.411 33.1653 113.411 32.536C113.411 32.2373 113.256 32.0293 112.947 31.912C112.648 31.7947 112.163 31.6827 111.491 31.576C110.787 31.4693 110.211 31.3467 109.763 31.208C109.326 31.0693 108.942 30.8293 108.611 30.488C108.291 30.136 108.131 29.6507 108.131 29.032C108.131 28.2213 108.467 27.576 109.139 27.096C109.822 26.6053 110.739 26.36 111.891 26.36C112.478 26.36 113.064 26.4293 113.651 26.568C114.238 26.696 114.718 26.872 115.091 27.096L114.323 28.616C113.598 28.1893 112.782 27.976 111.875 27.976C111.288 27.976 110.84 28.0667 110.531 28.248C110.232 28.4187 110.083 28.648 110.083 28.936C110.083 29.256 110.243 29.4853 110.563 29.624C110.894 29.752 111.4 29.8747 112.083 29.992C112.766 30.0987 113.326 30.2213 113.763 30.36C114.2 30.4987 114.574 30.7333 114.883 31.064C115.203 31.3947 115.363 31.864 115.363 32.472C115.363 33.272 115.016 33.912 114.323 34.392C113.63 34.872 112.686 35.112 111.491 35.112ZM120.925 35.112C120.061 35.112 119.283 34.9253 118.589 34.552C117.896 34.1787 117.352 33.6613 116.957 33C116.573 32.328 116.381 31.5707 116.381 30.728C116.381 29.8853 116.573 29.1333 116.957 28.472C117.352 27.8107 117.896 27.2933 118.589 26.92C119.283 26.5467 120.061 26.36 120.925 26.36C121.8 26.36 122.584 26.5467 123.277 26.92C123.971 27.2933 124.509 27.8107 124.893 28.472C125.288 29.1333 125.485 29.8853 125.485 30.728C125.485 31.5707 125.288 32.328 124.893 33C124.509 33.6613 123.971 34.1787 123.277 34.552C122.584 34.9253 121.8 35.112 120.925 35.112ZM120.925 33.4C121.661 33.4 122.269 33.1547 122.749 32.664C123.229 32.1733 123.469 31.528 123.469 30.728C123.469 29.928 123.229 29.2827 122.749 28.792C122.269 28.3013 121.661 28.056 120.925 28.056C120.189 28.056 119.581 28.3013 119.101 28.792C118.632 29.2827 118.397 29.928 118.397 30.728C118.397 31.528 118.632 32.1733 119.101 32.664C119.581 33.1547 120.189 33.4 120.925 33.4ZM135.67 26.456V35H133.766V33.912C133.446 34.296 133.046 34.5947 132.566 34.808C132.086 35.0107 131.569 35.112 131.014 35.112C129.873 35.112 128.971 34.7973 128.31 34.168C127.659 33.528 127.334 32.584 127.334 31.336V26.456H129.334V31.064C129.334 31.832 129.505 32.408 129.846 32.792C130.198 33.1653 130.694 33.352 131.334 33.352C132.049 33.352 132.614 33.1333 133.03 32.696C133.457 32.248 133.67 31.608 133.67 30.776V26.456H135.67ZM140.193 27.704C140.769 26.808 141.782 26.36 143.233 26.36V28.264C143.062 28.232 142.907 28.216 142.769 28.216C141.99 28.216 141.382 28.4453 140.945 28.904C140.507 29.352 140.289 30.0027 140.289 30.856V35H138.289V26.456H140.193V27.704ZM148.771 35.112C147.886 35.112 147.091 34.9253 146.387 34.552C145.683 34.1787 145.134 33.6613 144.739 33C144.344 32.328 144.147 31.5707 144.147 30.728C144.147 29.8853 144.344 29.1333 144.739 28.472C145.134 27.8107 145.678 27.2933 146.371 26.92C147.075 26.5467 147.875 26.36 148.771 26.36C149.614 26.36 150.35 26.5307 150.979 26.872C151.619 27.2133 152.099 27.704 152.419 28.344L150.883 29.24C150.638 28.8453 150.328 28.552 149.955 28.36C149.592 28.1573 149.192 28.056 148.755 28.056C148.008 28.056 147.39 28.3013 146.899 28.792C146.408 29.272 146.163 29.9173 146.163 30.728C146.163 31.5387 146.403 32.1893 146.883 32.68C147.374 33.16 147.998 33.4 148.755 33.4C149.192 33.4 149.592 33.304 149.955 33.112C150.328 32.9093 150.638 32.6107 150.883 32.216L152.419 33.112C152.088 33.752 151.603 34.248 150.963 34.6C150.334 34.9413 149.603 35.112 148.771 35.112ZM162.055 30.776C162.055 30.9147 162.044 31.112 162.023 31.368H155.319C155.436 31.9973 155.74 32.4987 156.231 32.872C156.732 33.2347 157.351 33.416 158.087 33.416C159.026 33.416 159.799 33.1067 160.407 32.488L161.479 33.72C161.095 34.1787 160.61 34.5253 160.023 34.76C159.436 34.9947 158.775 35.112 158.039 35.112C157.1 35.112 156.274 34.9253 155.559 34.552C154.844 34.1787 154.29 33.6613 153.895 33C153.511 32.328 153.319 31.5707 153.319 30.728C153.319 29.896 153.506 29.1493 153.879 28.488C154.263 27.816 154.791 27.2933 155.463 26.92C156.135 26.5467 156.892 26.36 157.735 26.36C158.567 26.36 159.308 26.5467 159.959 26.92C160.62 27.2827 161.132 27.8 161.495 28.472C161.868 29.1333 162.055 29.9013 162.055 30.776ZM157.735 27.96C157.095 27.96 156.551 28.152 156.103 28.536C155.666 28.9093 155.399 29.4107 155.303 30.04H160.151C160.066 29.4213 159.804 28.92 159.367 28.536C158.93 28.152 158.386 27.96 157.735 27.96ZM166.616 35.112C165.923 35.112 165.245 35.0213 164.584 34.84C163.923 34.6587 163.395 34.4293 163 34.152L163.768 32.632C164.152 32.888 164.611 33.096 165.144 33.256C165.688 33.4053 166.221 33.48 166.744 33.48C167.939 33.48 168.536 33.1653 168.536 32.536C168.536 32.2373 168.381 32.0293 168.072 31.912C167.773 31.7947 167.288 31.6827 166.616 31.576C165.912 31.4693 165.336 31.3467 164.888 31.208C164.451 31.0693 164.067 30.8293 163.736 30.488C163.416 30.136 163.256 29.6507 163.256 29.032C163.256 28.2213 163.592 27.576 164.264 27.096C164.947 26.6053 165.864 26.36 167.016 26.36C167.603 26.36 168.189 26.4293 168.776 26.568C169.363 26.696 169.843 26.872 170.216 27.096L169.448 28.616C168.723 28.1893 167.907 27.976 167 27.976C166.413 27.976 165.965 28.0667 165.656 28.248C165.357 28.4187 165.208 28.648 165.208 28.936C165.208 29.256 165.368 29.4853 165.688 29.624C166.019 29.752 166.525 29.8747 167.208 29.992C167.891 30.0987 168.451 30.2213 168.888 30.36C169.325 30.4987 169.699 30.7333 170.008 31.064C170.328 31.3947 170.488 31.864 170.488 32.472C170.488 33.272 170.141 33.912 169.448 34.392C168.755 34.872 167.811 35.112 166.616 35.112Z" fill="#7580E3"></path> <rect x="1.25" y="1.25" width="188.5" height="56.5" rx="28.25" stroke="#7580E3" stroke-width="2.5"></rect> </svg> 