<?xml version="1.0" encoding="UTF-8"?> <svg xmlns="http://www.w3.org/2000/svg" width="59" height="59" viewBox="0 0 59 59" fill="none"> <circle cx="29.5" cy="29.5" r="29.5" fill="#3595FE"></circle> <path d="M23.985 36.216C23.361 36.216 22.779 36.102 22.239 35.874C21.711 35.646 21.249 35.304 20.853 34.848C20.457 34.38 20.145 33.804 19.917 33.12C19.701 32.424 19.593 31.614 19.593 30.69C19.593 29.538 19.725 28.56 19.989 27.756C20.253 26.94 20.607 26.28 21.051 25.776C21.495 25.26 22.005 24.888 22.581 24.66C23.169 24.42 23.775 24.3 24.399 24.3C25.107 24.3 25.719 24.42 26.235 24.66C26.763 24.888 27.219 25.176 27.603 25.524L26.775 26.442C26.475 26.166 26.127 25.95 25.731 25.794C25.335 25.626 24.921 25.542 24.489 25.542C24.033 25.542 23.595 25.626 23.175 25.794C22.755 25.962 22.383 26.238 22.059 26.622C21.747 27.006 21.489 27.516 21.285 28.152C21.093 28.776 20.991 29.55 20.979 30.474C21.447 30.018 21.963 29.658 22.527 29.394C23.091 29.118 23.661 28.98 24.237 28.98C24.765 28.98 25.245 29.058 25.677 29.214C26.121 29.358 26.499 29.58 26.811 29.88C27.135 30.168 27.381 30.534 27.549 30.978C27.729 31.422 27.819 31.938 27.819 32.526C27.819 33.078 27.711 33.582 27.495 34.038C27.291 34.482 27.015 34.866 26.667 35.19C26.319 35.514 25.911 35.766 25.443 35.946C24.987 36.126 24.501 36.216 23.985 36.216ZM23.985 35.046C24.321 35.046 24.639 34.986 24.939 34.866C25.239 34.746 25.497 34.578 25.713 34.362C25.929 34.134 26.097 33.87 26.217 33.57C26.349 33.258 26.415 32.91 26.415 32.526C26.415 31.734 26.205 31.134 25.785 30.726C25.365 30.306 24.759 30.096 23.967 30.096C23.511 30.096 23.019 30.216 22.491 30.456C21.975 30.696 21.489 31.092 21.033 31.644C21.141 32.76 21.447 33.606 21.951 34.182C22.467 34.758 23.145 35.046 23.985 35.046ZM30.314 36V35.118C31.286 34.254 32.144 33.474 32.888 32.778C33.644 32.082 34.274 31.446 34.778 30.87C35.294 30.282 35.684 29.736 35.948 29.232C36.212 28.728 36.344 28.236 36.344 27.756C36.344 27.096 36.14 26.556 35.732 26.136C35.324 25.716 34.694 25.506 33.842 25.506C33.302 25.506 32.798 25.644 32.33 25.92C31.874 26.184 31.46 26.508 31.088 26.892L30.242 26.046C30.758 25.518 31.31 25.098 31.898 24.786C32.498 24.462 33.206 24.3 34.022 24.3C34.598 24.3 35.114 24.384 35.57 24.552C36.038 24.708 36.434 24.936 36.758 25.236C37.082 25.524 37.328 25.878 37.496 26.298C37.676 26.718 37.766 27.18 37.766 27.684C37.766 28.224 37.634 28.77 37.37 29.322C37.118 29.862 36.758 30.426 36.29 31.014C35.822 31.59 35.264 32.196 34.616 32.832C33.968 33.456 33.254 34.122 32.474 34.83C32.834 34.806 33.194 34.782 33.554 34.758C33.914 34.734 34.268 34.722 34.616 34.722H38.396V36H30.314Z" fill="white"></path> </svg> 