<?xml version="1.0" encoding="UTF-8"?> <svg xmlns="http://www.w3.org/2000/svg" width="127" height="59" viewBox="0 0 127 59" fill="none"> <path d="M28.9648 35L26.6768 31.72C26.5808 31.7307 26.4368 31.736 26.2448 31.736H23.7168V35H21.6368V23.8H26.2448C27.2155 23.8 28.0581 23.96 28.7728 24.28C29.4981 24.6 30.0528 25.0587 30.4368 25.656C30.8208 26.2533 31.0128 26.9627 31.0128 27.784C31.0128 28.6267 30.8048 29.352 30.3888 29.96C29.9835 30.568 29.3968 31.0213 28.6288 31.32L31.2048 35H28.9648ZM28.9168 27.784C28.9168 27.0693 28.6821 26.52 28.2128 26.136C27.7435 25.752 27.0555 25.56 26.1488 25.56H23.7168V30.024H26.1488C27.0555 30.024 27.7435 29.832 28.2128 29.448C28.6821 29.0533 28.9168 28.4987 28.9168 27.784ZM41.1799 30.776C41.1799 30.9147 41.1693 31.112 41.1479 31.368H34.4439C34.5613 31.9973 34.8653 32.4987 35.3559 32.872C35.8573 33.2347 36.4759 33.416 37.2119 33.416C38.1506 33.416 38.9239 33.1067 39.5319 32.488L40.6039 33.72C40.2199 34.1787 39.7346 34.5253 39.1479 34.76C38.5613 34.9947 37.8999 35.112 37.1639 35.112C36.2253 35.112 35.3986 34.9253 34.6839 34.552C33.9693 34.1787 33.4146 33.6613 33.0199 33C32.6359 32.328 32.4439 31.5707 32.4439 30.728C32.4439 29.896 32.6306 29.1493 33.0039 28.488C33.3879 27.816 33.9159 27.2933 34.5879 26.92C35.2599 26.5467 36.0173 26.36 36.8599 26.36C37.6919 26.36 38.4333 26.5467 39.0839 26.92C39.7453 27.2827 40.2573 27.8 40.6199 28.472C40.9933 29.1333 41.1799 29.9013 41.1799 30.776ZM36.8599 27.96C36.2199 27.96 35.6759 28.152 35.2279 28.536C34.7906 28.9093 34.5239 29.4107 34.4279 30.04H39.2759C39.1906 29.4213 38.9293 28.92 38.4919 28.536C38.0546 28.152 37.5106 27.96 36.8599 27.96ZM47.0211 35.112C46.1357 35.112 45.3411 34.9253 44.6371 34.552C43.9331 34.1787 43.3837 33.6613 42.9891 33C42.5944 32.328 42.3971 31.5707 42.3971 30.728C42.3971 29.8853 42.5944 29.1333 42.9891 28.472C43.3837 27.8107 43.9277 27.2933 44.6211 26.92C45.3251 26.5467 46.1251 26.36 47.0211 26.36C47.8637 26.36 48.5997 26.5307 49.2291 26.872C49.8691 27.2133 50.3491 27.704 50.6691 28.344L49.1331 29.24C48.8877 28.8453 48.5784 28.552 48.2051 28.36C47.8424 28.1573 47.4424 28.056 47.0051 28.056C46.2584 28.056 45.6397 28.3013 45.1491 28.792C44.6584 29.272 44.4131 29.9173 44.4131 30.728C44.4131 31.5387 44.6531 32.1893 45.1331 32.68C45.6237 33.16 46.2477 33.4 47.0051 33.4C47.4424 33.4 47.8424 33.304 48.2051 33.112C48.5784 32.9093 48.8877 32.6107 49.1331 32.216L50.6691 33.112C50.3384 33.752 49.8531 34.248 49.2131 34.6C48.5837 34.9413 47.8531 35.112 47.0211 35.112ZM54.3019 27.704C54.8779 26.808 55.8913 26.36 57.3419 26.36V28.264C57.1713 28.232 57.0166 28.216 56.8779 28.216C56.0993 28.216 55.4913 28.4453 55.0539 28.904C54.6166 29.352 54.3979 30.0027 54.3979 30.856V35H52.3979V26.456H54.3019V27.704ZM67.3887 26.456V35H65.4847V33.912C65.1647 34.296 64.7647 34.5947 64.2847 34.808C63.8047 35.0107 63.2874 35.112 62.7327 35.112C61.5914 35.112 60.69 34.7973 60.0287 34.168C59.378 33.528 59.0527 32.584 59.0527 31.336V26.456H61.0527V31.064C61.0527 31.832 61.2234 32.408 61.5647 32.792C61.9167 33.1653 62.4127 33.352 63.0527 33.352C63.7674 33.352 64.3327 33.1333 64.7487 32.696C65.1754 32.248 65.3887 31.608 65.3887 30.776V26.456H67.3887ZM70.0073 26.456H72.0073V35H70.0073V26.456ZM71.0153 25.048C70.6526 25.048 70.3486 24.936 70.1033 24.712C69.858 24.4773 69.7353 24.1893 69.7353 23.848C69.7353 23.5067 69.858 23.224 70.1033 23C70.3486 22.7653 70.6526 22.648 71.0153 22.648C71.378 22.648 71.682 22.76 71.9273 22.984C72.1726 23.1973 72.2953 23.4693 72.2953 23.8C72.2953 24.152 72.1726 24.4507 71.9273 24.696C71.6926 24.9307 71.3886 25.048 71.0153 25.048ZM79.7683 34.536C79.5336 34.728 79.2456 34.872 78.9043 34.968C78.5736 35.064 78.2216 35.112 77.8483 35.112C76.9096 35.112 76.1843 34.8667 75.6723 34.376C75.1603 33.8853 74.9043 33.1707 74.9043 32.232V28.12H73.4963V26.52H74.9043V24.568H76.9043V26.52H79.1923V28.12H76.9043V32.184C76.9043 32.6 77.0056 32.92 77.2083 33.144C77.411 33.3573 77.7043 33.464 78.0883 33.464C78.5363 33.464 78.9096 33.3467 79.2083 33.112L79.7683 34.536ZM81.4136 26.456H83.4136V35H81.4136V26.456ZM82.4216 25.048C82.0589 25.048 81.7549 24.936 81.5096 24.712C81.2642 24.4773 81.1416 24.1893 81.1416 23.848C81.1416 23.5067 81.2642 23.224 81.5096 23C81.7549 22.7653 82.0589 22.648 82.4216 22.648C82.7842 22.648 83.0882 22.76 83.3336 22.984C83.5789 23.1973 83.7016 23.4693 83.7016 23.8C83.7016 24.152 83.5789 24.4507 83.3336 24.696C83.0989 24.9307 82.7949 25.048 82.4216 25.048ZM90.8866 26.36C91.9639 26.36 92.8279 26.6747 93.4786 27.304C94.1292 27.9333 94.4546 28.8667 94.4546 30.104V35H92.4546V30.36C92.4546 29.6133 92.2786 29.0533 91.9266 28.68C91.5746 28.296 91.0732 28.104 90.4226 28.104C89.6866 28.104 89.1052 28.328 88.6786 28.776C88.2519 29.2133 88.0386 29.848 88.0386 30.68V35H86.0386V26.456H87.9426V27.56C88.2732 27.1653 88.6892 26.8667 89.1906 26.664C89.6919 26.4613 90.2572 26.36 90.8866 26.36ZM105.55 26.456V33.704C105.55 36.712 104.014 38.216 100.942 38.216C100.12 38.216 99.3418 38.1093 98.6058 37.896C97.8698 37.6933 97.2618 37.3947 96.7818 37L97.6778 35.496C98.0511 35.8053 98.5205 36.0507 99.0858 36.232C99.6618 36.424 100.243 36.52 100.83 36.52C101.768 36.52 102.456 36.3067 102.894 35.88C103.331 35.4533 103.55 34.8027 103.55 33.928V33.48C103.208 33.8533 102.792 34.136 102.302 34.328C101.811 34.52 101.272 34.616 100.686 34.616C99.8751 34.616 99.1391 34.4453 98.4778 34.104C97.8271 33.752 97.3098 33.2613 96.9258 32.632C96.5525 32.0027 96.3658 31.2827 96.3658 30.472C96.3658 29.6613 96.5525 28.9467 96.9258 28.328C97.3098 27.6987 97.8271 27.2133 98.4778 26.872C99.1391 26.5307 99.8751 26.36 100.686 26.36C101.304 26.36 101.864 26.4613 102.366 26.664C102.878 26.8667 103.304 27.176 103.646 27.592V26.456H105.55ZM100.99 32.92C101.747 32.92 102.366 32.696 102.846 32.248C103.336 31.7893 103.582 31.1973 103.582 30.472C103.582 29.7573 103.336 29.176 102.846 28.728C102.366 28.28 101.747 28.056 100.99 28.056C100.222 28.056 99.5925 28.28 99.1018 28.728C98.6218 29.176 98.3818 29.7573 98.3818 30.472C98.3818 31.1973 98.6218 31.7893 99.1018 32.248C99.5925 32.696 100.222 32.92 100.99 32.92Z" fill="#9B5AF0"></path> <rect x="1.25" y="1.25" width="124.5" height="56.5" rx="28.25" stroke="#9B5AF0" stroke-width="2.5"></rect> </svg> 