<?xml version="1.0" encoding="UTF-8"?> <svg xmlns="http://www.w3.org/2000/svg" width="110" height="59" viewBox="0 0 110 59" fill="none"> <path d="M24.9916 35.16C24.1276 35.16 23.2903 35.0373 22.4796 34.792C21.6796 34.5467 21.045 34.2213 20.5756 33.816L21.2956 32.2C21.7543 32.5627 22.3143 32.8613 22.9756 33.096C23.6476 33.32 24.3196 33.432 24.9916 33.432C25.8236 33.432 26.4423 33.2987 26.8476 33.032C27.2636 32.7653 27.4716 32.4133 27.4716 31.976C27.4716 31.656 27.3543 31.3947 27.1196 31.192C26.8956 30.9787 26.6076 30.8133 26.2556 30.696C25.9036 30.5787 25.4236 30.4453 24.8156 30.296C23.9623 30.0933 23.269 29.8907 22.7356 29.688C22.213 29.4853 21.7596 29.1707 21.3756 28.744C21.0023 28.3067 20.8156 27.72 20.8156 26.984C20.8156 26.3653 20.981 25.8053 21.3116 25.304C21.653 24.792 22.1596 24.3867 22.8316 24.088C23.5143 23.7893 24.3463 23.64 25.3276 23.64C26.0103 23.64 26.6823 23.7253 27.3436 23.896C28.005 24.0667 28.5756 24.312 29.0556 24.632L28.3996 26.248C27.909 25.96 27.397 25.7413 26.8636 25.592C26.3303 25.4427 25.813 25.368 25.3116 25.368C24.4903 25.368 23.877 25.5067 23.4716 25.784C23.077 26.0613 22.8796 26.4293 22.8796 26.888C22.8796 27.208 22.9916 27.4693 23.2156 27.672C23.4503 27.8747 23.7436 28.0347 24.0956 28.152C24.4476 28.2693 24.9276 28.4027 25.5356 28.552C26.3676 28.744 27.0503 28.9467 27.5836 29.16C28.117 29.3627 28.5703 29.6773 28.9436 30.104C29.3276 30.5307 29.5196 31.1067 29.5196 31.832C29.5196 32.4507 29.349 33.0107 29.0076 33.512C28.677 34.0133 28.1703 34.4133 27.4876 34.712C26.805 35.0107 25.973 35.16 24.9916 35.16ZM36.5261 34.536C36.2915 34.728 36.0035 34.872 35.6621 34.968C35.3315 35.064 34.9795 35.112 34.6061 35.112C33.6675 35.112 32.9421 34.8667 32.4301 34.376C31.9181 33.8853 31.6621 33.1707 31.6621 32.232V28.12H30.2541V26.52H31.6621V24.568H33.6621V26.52H35.9501V28.12H33.6621V32.184C33.6621 32.6 33.7635 32.92 33.9661 33.144C34.1688 33.3573 34.4621 33.464 34.8461 33.464C35.2941 33.464 35.6675 33.3467 35.9661 33.112L36.5261 34.536ZM40.0754 27.704C40.6514 26.808 41.6647 26.36 43.1154 26.36V28.264C42.9447 28.232 42.79 28.216 42.6514 28.216C41.8727 28.216 41.2647 28.4453 40.8274 28.904C40.39 29.352 40.1714 30.0027 40.1714 30.856V35H38.1714V26.456H40.0754V27.704ZM48.0291 26.36C49.2878 26.36 50.2478 26.664 50.9091 27.272C51.5811 27.8693 51.9171 28.776 51.9171 29.992V35H50.0291V33.96C49.7838 34.3333 49.4318 34.6213 48.9731 34.824C48.5251 35.016 47.9811 35.112 47.3411 35.112C46.7011 35.112 46.1411 35.0053 45.6611 34.792C45.1811 34.568 44.8078 34.264 44.5411 33.88C44.2851 33.4853 44.1571 33.0427 44.1571 32.552C44.1571 31.784 44.4398 31.1707 45.0051 30.712C45.5811 30.2427 46.4825 30.008 47.7091 30.008H49.9171V29.88C49.9171 29.2827 49.7358 28.824 49.3731 28.504C49.0211 28.184 48.4931 28.024 47.7891 28.024C47.3091 28.024 46.8345 28.0987 46.3651 28.248C45.9065 28.3973 45.5171 28.6053 45.1971 28.872L44.4131 27.416C44.8611 27.0747 45.3998 26.8133 46.0291 26.632C46.6585 26.4507 47.3251 26.36 48.0291 26.36ZM47.7571 33.656C48.2585 33.656 48.7011 33.544 49.0851 33.32C49.4798 33.0853 49.7571 32.7547 49.9171 32.328V31.336H47.8531C46.7011 31.336 46.1251 31.7147 46.1251 32.472C46.1251 32.8347 46.2691 33.1227 46.5571 33.336C46.8451 33.5493 47.2451 33.656 47.7571 33.656ZM59.6199 34.536C59.3852 34.728 59.0972 34.872 58.7559 34.968C58.4252 35.064 58.0732 35.112 57.6999 35.112C56.7612 35.112 56.0359 34.8667 55.5239 34.376C55.0119 33.8853 54.7559 33.1707 54.7559 32.232V28.12H53.3479V26.52H54.7559V24.568H56.7559V26.52H59.0439V28.12H56.7559V32.184C56.7559 32.6 56.8572 32.92 57.0599 33.144C57.2625 33.3573 57.5559 33.464 57.9399 33.464C58.3879 33.464 58.7612 33.3467 59.0599 33.112L59.6199 34.536ZM69.0159 30.776C69.0159 30.9147 69.0052 31.112 68.9839 31.368H62.2799C62.3972 31.9973 62.7012 32.4987 63.1919 32.872C63.6932 33.2347 64.3119 33.416 65.0479 33.416C65.9865 33.416 66.7599 33.1067 67.3679 32.488L68.4399 33.72C68.0559 34.1787 67.5705 34.5253 66.9839 34.76C66.3972 34.9947 65.7359 35.112 64.9999 35.112C64.0612 35.112 63.2345 34.9253 62.5199 34.552C61.8052 34.1787 61.2505 33.6613 60.8559 33C60.4719 32.328 60.2799 31.5707 60.2799 30.728C60.2799 29.896 60.4665 29.1493 60.8399 28.488C61.2239 27.816 61.7519 27.2933 62.4239 26.92C63.0959 26.5467 63.8532 26.36 64.6959 26.36C65.5279 26.36 66.2692 26.5467 66.9199 26.92C67.5812 27.2827 68.0932 27.8 68.4559 28.472C68.8292 29.1333 69.0159 29.9013 69.0159 30.776ZM64.6959 27.96C64.0559 27.96 63.5119 28.152 63.0639 28.536C62.6265 28.9093 62.3599 29.4107 62.2639 30.04H67.1119C67.0265 29.4213 66.7652 28.92 66.3279 28.536C65.8905 28.152 65.3465 27.96 64.6959 27.96ZM79.417 26.456V33.704C79.417 36.712 77.881 38.216 74.809 38.216C73.9877 38.216 73.209 38.1093 72.473 37.896C71.737 37.6933 71.129 37.3947 70.649 37L71.545 35.496C71.9183 35.8053 72.3877 36.0507 72.953 36.232C73.529 36.424 74.1103 36.52 74.697 36.52C75.6357 36.52 76.3237 36.3067 76.761 35.88C77.1983 35.4533 77.417 34.8027 77.417 33.928V33.48C77.0757 33.8533 76.6597 34.136 76.169 34.328C75.6783 34.52 75.1397 34.616 74.553 34.616C73.7423 34.616 73.0063 34.4453 72.345 34.104C71.6943 33.752 71.177 33.2613 70.793 32.632C70.4197 32.0027 70.233 31.2827 70.233 30.472C70.233 29.6613 70.4197 28.9467 70.793 28.328C71.177 27.6987 71.6943 27.2133 72.345 26.872C73.0063 26.5307 73.7423 26.36 74.553 26.36C75.1717 26.36 75.7317 26.4613 76.233 26.664C76.745 26.8667 77.1717 27.176 77.513 27.592V26.456H79.417ZM74.857 32.92C75.6143 32.92 76.233 32.696 76.713 32.248C77.2037 31.7893 77.449 31.1973 77.449 30.472C77.449 29.7573 77.2037 29.176 76.713 28.728C76.233 28.28 75.6143 28.056 74.857 28.056C74.089 28.056 73.4597 28.28 72.969 28.728C72.489 29.176 72.249 29.7573 72.249 30.472C72.249 31.1973 72.489 31.7893 72.969 32.248C73.4597 32.696 74.089 32.92 74.857 32.92ZM90.0464 26.456L86.0464 35.688C85.673 36.616 85.2197 37.2667 84.6864 37.64C84.153 38.024 83.5077 38.216 82.7504 38.216C82.3237 38.216 81.9024 38.1467 81.4864 38.008C81.0704 37.8693 80.729 37.6773 80.4624 37.432L81.2624 35.96C81.4544 36.1413 81.6784 36.2853 81.9344 36.392C82.201 36.4987 82.4677 36.552 82.7344 36.552C83.0864 36.552 83.3744 36.4613 83.5984 36.28C83.833 36.0987 84.0464 35.7947 84.2384 35.368L84.3824 35.032L80.6544 26.456H82.7344L85.4224 32.776L88.1264 26.456H90.0464Z" fill="#7580E3"></path> <rect x="1.25" y="1.25" width="107.5" height="56.5" rx="28.25" stroke="#7580E3" stroke-width="2.5"></rect> </svg> 