<?xml version="1.0" encoding="UTF-8"?> <svg xmlns="http://www.w3.org/2000/svg" width="94" height="60" viewBox="0 0 94 60" fill="none"> <rect width="94" height="60" rx="30" fill="#7580E3"></rect> <path d="M36.9693 35.16C35.8386 35.16 34.8146 34.9147 33.8973 34.424C32.9906 33.9227 32.2759 33.2347 31.7533 32.36C31.2413 31.4853 30.9853 30.4987 30.9853 29.4C30.9853 28.3013 31.2466 27.3147 31.7693 26.44C32.2919 25.5653 33.0066 24.8827 33.9133 24.392C34.8306 23.8907 35.8546 23.64 36.9853 23.64C37.9026 23.64 38.7399 23.8 39.4973 24.12C40.2546 24.44 40.8946 24.904 41.4173 25.512L40.0733 26.776C39.2626 25.9013 38.2653 25.464 37.0813 25.464C36.3133 25.464 35.6253 25.6347 35.0173 25.976C34.4093 26.3067 33.9346 26.7707 33.5933 27.368C33.2519 27.9653 33.0813 28.6427 33.0813 29.4C33.0813 30.1573 33.2519 30.8347 33.5933 31.432C33.9346 32.0293 34.4093 32.4987 35.0173 32.84C35.6253 33.1707 36.3133 33.336 37.0813 33.336C38.2653 33.336 39.2626 32.8933 40.0733 32.008L41.4173 33.288C40.8946 33.896 40.2493 34.36 39.4813 34.68C38.7239 35 37.8866 35.16 36.9693 35.16ZM45.5573 25.56H41.8453V23.8H51.3493V25.56H47.6373V35H45.5573V25.56ZM57.986 35.16C56.8447 35.16 55.8153 34.9147 54.898 34.424C53.9807 33.9227 53.2607 33.2347 52.738 32.36C52.2153 31.4747 51.954 30.488 51.954 29.4C51.954 28.312 52.2153 27.3307 52.738 26.456C53.2607 25.5707 53.9807 24.8827 54.898 24.392C55.8153 23.8907 56.8447 23.64 57.986 23.64C59.1273 23.64 60.1567 23.8907 61.074 24.392C61.9913 24.8827 62.7113 25.5653 63.234 26.44C63.7567 27.3147 64.018 28.3013 64.018 29.4C64.018 30.4987 63.7567 31.4853 63.234 32.36C62.7113 33.2347 61.9913 33.9227 61.074 34.424C60.1567 34.9147 59.1273 35.16 57.986 35.16ZM57.986 33.336C58.7327 33.336 59.4047 33.1707 60.002 32.84C60.5993 32.4987 61.0687 32.0293 61.41 31.432C61.7513 30.824 61.922 30.1467 61.922 29.4C61.922 28.6533 61.7513 27.9813 61.41 27.384C61.0687 26.776 60.5993 26.3067 60.002 25.976C59.4047 25.6347 58.7327 25.464 57.986 25.464C57.2393 25.464 56.5673 25.6347 55.97 25.976C55.3727 26.3067 54.9033 26.776 54.562 27.384C54.2207 27.9813 54.05 28.6533 54.05 29.4C54.05 30.1467 54.2207 30.824 54.562 31.432C54.9033 32.0293 55.3727 32.4987 55.97 32.84C56.5673 33.1707 57.2393 33.336 57.986 33.336Z" fill="white"></path> </svg> 