<?xml version="1.0" encoding="UTF-8"?> <svg xmlns="http://www.w3.org/2000/svg" width="61" height="60" viewBox="0 0 61 60" fill="none"> <path d="M10.0969 9.67068C21.3245 -1.55689 39.528 -1.55689 50.7556 9.67068C61.9832 20.8983 61.9832 39.1017 50.7556 50.3293C39.528 61.5569 21.3245 61.5569 10.0969 50.3293C-1.13062 39.1017 -1.13062 20.8983 10.0969 9.67068Z" stroke="#3F3FC0" stroke-width="2.5"></path> <path d="M42.6726 41.793L19.1656 41.793C18.3426 41.793 17.675 41.1248 17.675 40.3022C17.675 39.4796 18.3431 38.8115 19.1656 38.8115L37.5832 38.8115L19.0107 20.2397C18.4291 19.658 18.4291 18.713 19.0107 18.1313C19.303 17.8389 19.6848 17.696 20.0661 17.696C20.4478 17.696 20.8296 17.8419 21.1214 18.1313L39.6939 36.703L39.6939 18.2837C39.6939 17.4606 40.362 16.793 41.1845 16.793C42.007 16.793 42.675 17.4611 42.675 18.2837L42.6726 41.793Z" fill="#3F3FC0"></path> </svg> 