<?xml version="1.0" encoding="UTF-8"?> <svg xmlns="http://www.w3.org/2000/svg" width="119" height="60" viewBox="0 0 119 60" fill="none"> <path d="M30.8418 25.544V28.952H36.2498V30.712H30.8418V35H28.7618V23.8H36.9378V25.544H30.8418ZM38.6011 26.456H40.6011V35H38.6011V26.456ZM39.6091 25.048C39.2464 25.048 38.9424 24.936 38.6971 24.712C38.4517 24.4773 38.3291 24.1893 38.3291 23.848C38.3291 23.5067 38.4517 23.224 38.6971 23C38.9424 22.7653 39.2464 22.648 39.6091 22.648C39.9717 22.648 40.2757 22.76 40.5211 22.984C40.7664 23.1973 40.8891 23.4693 40.8891 23.8C40.8891 24.152 40.7664 24.4507 40.5211 24.696C40.2864 24.9307 39.9824 25.048 39.6091 25.048ZM48.0741 26.36C49.1514 26.36 50.0154 26.6747 50.6661 27.304C51.3167 27.9333 51.6421 28.8667 51.6421 30.104V35H49.6421V30.36C49.6421 29.6133 49.4661 29.0533 49.1141 28.68C48.7621 28.296 48.2607 28.104 47.6101 28.104C46.8741 28.104 46.2927 28.328 45.8661 28.776C45.4394 29.2133 45.2261 29.848 45.2261 30.68V35H43.2261V26.456H45.1301V27.56C45.4607 27.1653 45.8767 26.8667 46.3781 26.664C46.8794 26.4613 47.4447 26.36 48.0741 26.36ZM56.6432 25.56H52.9312V23.8H62.4352V25.56H58.7232V35H56.6432V25.56ZM70.9612 30.776C70.9612 30.9147 70.9505 31.112 70.9292 31.368H64.2252C64.3425 31.9973 64.6465 32.4987 65.1372 32.872C65.6385 33.2347 66.2572 33.416 66.9932 33.416C67.9319 33.416 68.7052 33.1067 69.3132 32.488L70.3852 33.72C70.0012 34.1787 69.5159 34.5253 68.9292 34.76C68.3425 34.9947 67.6812 35.112 66.9452 35.112C66.0065 35.112 65.1799 34.9253 64.4652 34.552C63.7505 34.1787 63.1959 33.6613 62.8012 33C62.4172 32.328 62.2252 31.5707 62.2252 30.728C62.2252 29.896 62.4119 29.1493 62.7852 28.488C63.1692 27.816 63.6972 27.2933 64.3692 26.92C65.0412 26.5467 65.7985 26.36 66.6412 26.36C67.4732 26.36 68.2145 26.5467 68.8652 26.92C69.5265 27.2827 70.0385 27.8 70.4012 28.472C70.7745 29.1333 70.9612 29.9013 70.9612 30.776ZM66.6412 27.96C66.0012 27.96 65.4572 28.152 65.0092 28.536C64.5719 28.9093 64.3052 29.4107 64.2092 30.04H69.0572C68.9719 29.4213 68.7105 28.92 68.2732 28.536C67.8359 28.152 67.2919 27.96 66.6412 27.96ZM76.8023 35.112C75.917 35.112 75.1223 34.9253 74.4183 34.552C73.7143 34.1787 73.165 33.6613 72.7703 33C72.3756 32.328 72.1783 31.5707 72.1783 30.728C72.1783 29.8853 72.3756 29.1333 72.7703 28.472C73.165 27.8107 73.709 27.2933 74.4023 26.92C75.1063 26.5467 75.9063 26.36 76.8023 26.36C77.645 26.36 78.381 26.5307 79.0103 26.872C79.6503 27.2133 80.1303 27.704 80.4503 28.344L78.9143 29.24C78.669 28.8453 78.3596 28.552 77.9863 28.36C77.6236 28.1573 77.2236 28.056 76.7863 28.056C76.0396 28.056 75.421 28.3013 74.9303 28.792C74.4396 29.272 74.1943 29.9173 74.1943 30.728C74.1943 31.5387 74.4343 32.1893 74.9143 32.68C75.405 33.16 76.029 33.4 76.7863 33.4C77.2236 33.4 77.6236 33.304 77.9863 33.112C78.3596 32.9093 78.669 32.6107 78.9143 32.216L80.4503 33.112C80.1196 33.752 79.6343 34.248 78.9943 34.6C78.365 34.9413 77.6343 35.112 76.8023 35.112ZM86.9491 26.36C88.0264 26.36 88.8904 26.6747 89.5411 27.304C90.1917 27.9333 90.5171 28.8667 90.5171 30.104V35H88.5171V30.36C88.5171 29.6133 88.3411 29.0533 87.9891 28.68C87.6371 28.296 87.1357 28.104 86.4851 28.104C85.7491 28.104 85.1677 28.328 84.7411 28.776C84.3144 29.2133 84.1011 29.848 84.1011 30.68V35H82.1011V23.128H84.1011V27.448C84.4317 27.096 84.8371 26.8293 85.3171 26.648C85.8077 26.456 86.3517 26.36 86.9491 26.36Z" fill="#903EFD"></path> <rect x="1.25" y="1.25" width="116.5" height="57.5" rx="28.75" stroke="#9B5AF0" stroke-width="2.5"></rect> </svg> 