<?xml version="1.0" encoding="UTF-8"?> <svg xmlns="http://www.w3.org/2000/svg" width="219" height="60" viewBox="0 0 219 60" fill="none"> <path d="M29.2321 33.256V35H20.8321V23.8H29.0081V25.544H22.9121V28.456H28.3201V30.168H22.9121V33.256H29.2321ZM36.2069 26.36C37.2842 26.36 38.1482 26.6747 38.7989 27.304C39.4495 27.9333 39.7749 28.8667 39.7749 30.104V35H37.7749V30.36C37.7749 29.6133 37.5989 29.0533 37.2469 28.68C36.8949 28.296 36.3935 28.104 35.7429 28.104C35.0069 28.104 34.4255 28.328 33.9989 28.776C33.5722 29.2133 33.3589 29.848 33.3589 30.68V35H31.3589V26.456H33.2629V27.56C33.5935 27.1653 34.0095 26.8667 34.5109 26.664C35.0122 26.4613 35.5775 26.36 36.2069 26.36ZM50.8701 26.456V33.704C50.8701 36.712 49.3341 38.216 46.2621 38.216C45.4408 38.216 44.6621 38.1093 43.9261 37.896C43.1901 37.6933 42.5821 37.3947 42.1021 37L42.9981 35.496C43.3715 35.8053 43.8408 36.0507 44.4061 36.232C44.9821 36.424 45.5635 36.52 46.1501 36.52C47.0888 36.52 47.7768 36.3067 48.2141 35.88C48.6515 35.4533 48.8701 34.8027 48.8701 33.928V33.48C48.5288 33.8533 48.1128 34.136 47.6221 34.328C47.1315 34.52 46.5928 34.616 46.0061 34.616C45.1955 34.616 44.4595 34.4453 43.7981 34.104C43.1475 33.752 42.6301 33.2613 42.2461 32.632C41.8728 32.0027 41.6861 31.2827 41.6861 30.472C41.6861 29.6613 41.8728 28.9467 42.2461 28.328C42.6301 27.6987 43.1475 27.2133 43.7981 26.872C44.4595 26.5307 45.1955 26.36 46.0061 26.36C46.6248 26.36 47.1848 26.4613 47.6861 26.664C48.1981 26.8667 48.6248 27.176 48.9661 27.592V26.456H50.8701ZM46.3101 32.92C47.0675 32.92 47.6861 32.696 48.1661 32.248C48.6568 31.7893 48.9021 31.1973 48.9021 30.472C48.9021 29.7573 48.6568 29.176 48.1661 28.728C47.6861 28.28 47.0675 28.056 46.3101 28.056C45.5421 28.056 44.9128 28.28 44.4221 28.728C43.9421 29.176 43.7021 29.7573 43.7021 30.472C43.7021 31.1973 43.9421 31.7893 44.4221 32.248C44.9128 32.696 45.5421 32.92 46.3101 32.92ZM53.4995 26.456H55.4995V35H53.4995V26.456ZM54.5075 25.048C54.1448 25.048 53.8408 24.936 53.5955 24.712C53.3502 24.4773 53.2275 24.1893 53.2275 23.848C53.2275 23.5067 53.3502 23.224 53.5955 23C53.8408 22.7653 54.1448 22.648 54.5075 22.648C54.8702 22.648 55.1742 22.76 55.4195 22.984C55.6648 23.1973 55.7875 23.4693 55.7875 23.8C55.7875 24.152 55.6648 24.4507 55.4195 24.696C55.1848 24.9307 54.8808 25.048 54.5075 25.048ZM62.9725 26.36C64.0498 26.36 64.9138 26.6747 65.5645 27.304C66.2152 27.9333 66.5405 28.8667 66.5405 30.104V35H64.5405V30.36C64.5405 29.6133 64.3645 29.0533 64.0125 28.68C63.6605 28.296 63.1592 28.104 62.5085 28.104C61.7725 28.104 61.1912 28.328 60.7645 28.776C60.3378 29.2133 60.1245 29.848 60.1245 30.68V35H58.1245V26.456H60.0285V27.56C60.3592 27.1653 60.7752 26.8667 61.2765 26.664C61.7778 26.4613 62.3432 26.36 62.9725 26.36ZM77.1878 30.776C77.1878 30.9147 77.1771 31.112 77.1558 31.368H70.4518C70.5691 31.9973 70.8731 32.4987 71.3638 32.872C71.8651 33.2347 72.4838 33.416 73.2198 33.416C74.1584 33.416 74.9318 33.1067 75.5398 32.488L76.6118 33.72C76.2278 34.1787 75.7424 34.5253 75.1558 34.76C74.5691 34.9947 73.9078 35.112 73.1718 35.112C72.2331 35.112 71.4064 34.9253 70.6918 34.552C69.9771 34.1787 69.4224 33.6613 69.0278 33C68.6438 32.328 68.4518 31.5707 68.4518 30.728C68.4518 29.896 68.6384 29.1493 69.0118 28.488C69.3958 27.816 69.9238 27.2933 70.5958 26.92C71.2678 26.5467 72.0251 26.36 72.8678 26.36C73.6998 26.36 74.4411 26.5467 75.0918 26.92C75.7531 27.2827 76.2651 27.8 76.6278 28.472C77.0011 29.1333 77.1878 29.9013 77.1878 30.776ZM72.8678 27.96C72.2278 27.96 71.6838 28.152 71.2358 28.536C70.7984 28.9093 70.5318 29.4107 70.4358 30.04H75.2838C75.1984 29.4213 74.9371 28.92 74.4998 28.536C74.0624 28.152 73.5184 27.96 72.8678 27.96ZM87.1409 30.776C87.1409 30.9147 87.1302 31.112 87.1089 31.368H80.4049C80.5222 31.9973 80.8262 32.4987 81.3169 32.872C81.8182 33.2347 82.4369 33.416 83.1729 33.416C84.1115 33.416 84.8849 33.1067 85.4929 32.488L86.5649 33.72C86.1809 34.1787 85.6955 34.5253 85.1089 34.76C84.5222 34.9947 83.8609 35.112 83.1249 35.112C82.1862 35.112 81.3595 34.9253 80.6449 34.552C79.9302 34.1787 79.3755 33.6613 78.9809 33C78.5969 32.328 78.4049 31.5707 78.4049 30.728C78.4049 29.896 78.5915 29.1493 78.9649 28.488C79.3489 27.816 79.8769 27.2933 80.5489 26.92C81.2209 26.5467 81.9782 26.36 82.8209 26.36C83.6529 26.36 84.3942 26.5467 85.0449 26.92C85.7062 27.2827 86.2182 27.8 86.5809 28.472C86.9542 29.1333 87.1409 29.9013 87.1409 30.776ZM82.8209 27.96C82.1809 27.96 81.6369 28.152 81.1889 28.536C80.7515 28.9093 80.4849 29.4107 80.3889 30.04H85.2369C85.1515 29.4213 84.8902 28.92 84.4529 28.536C84.0155 28.152 83.4715 27.96 82.8209 27.96ZM90.966 27.704C91.542 26.808 92.5553 26.36 94.006 26.36V28.264C93.8353 28.232 93.6807 28.216 93.542 28.216C92.7633 28.216 92.1553 28.4453 91.718 28.904C91.2807 29.352 91.062 30.0027 91.062 30.856V35H89.062V26.456H90.966V27.704ZM95.7026 26.456H97.7026V35H95.7026V26.456ZM96.7106 25.048C96.348 25.048 96.044 24.936 95.7986 24.712C95.5533 24.4773 95.4306 24.1893 95.4306 23.848C95.4306 23.5067 95.5533 23.224 95.7986 23C96.044 22.7653 96.348 22.648 96.7106 22.648C97.0733 22.648 97.3773 22.76 97.6226 22.984C97.868 23.1973 97.9906 23.4693 97.9906 23.8C97.9906 24.152 97.868 24.4507 97.6226 24.696C97.388 24.9307 97.084 25.048 96.7106 25.048ZM105.176 26.36C106.253 26.36 107.117 26.6747 107.768 27.304C108.418 27.9333 108.744 28.8667 108.744 30.104V35H106.744V30.36C106.744 29.6133 106.568 29.0533 106.216 28.68C105.864 28.296 105.362 28.104 104.712 28.104C103.976 28.104 103.394 28.328 102.968 28.776C102.541 29.2133 102.328 29.848 102.328 30.68V35H100.328V26.456H102.232V27.56C102.562 27.1653 102.978 26.8667 103.48 26.664C103.981 26.4613 104.546 26.36 105.176 26.36ZM119.839 26.456V33.704C119.839 36.712 118.303 38.216 115.231 38.216C114.41 38.216 113.631 38.1093 112.895 37.896C112.159 37.6933 111.551 37.3947 111.071 37L111.967 35.496C112.34 35.8053 112.81 36.0507 113.375 36.232C113.951 36.424 114.532 36.52 115.119 36.52C116.058 36.52 116.746 36.3067 117.183 35.88C117.62 35.4533 117.839 34.8027 117.839 33.928V33.48C117.498 33.8533 117.082 34.136 116.591 34.328C116.1 34.52 115.562 34.616 114.975 34.616C114.164 34.616 113.428 34.4453 112.767 34.104C112.116 33.752 111.599 33.2613 111.215 32.632C110.842 32.0027 110.655 31.2827 110.655 30.472C110.655 29.6613 110.842 28.9467 111.215 28.328C111.599 27.6987 112.116 27.2133 112.767 26.872C113.428 26.5307 114.164 26.36 114.975 26.36C115.594 26.36 116.154 26.4613 116.655 26.664C117.167 26.8667 117.594 27.176 117.935 27.592V26.456H119.839ZM115.279 32.92C116.036 32.92 116.655 32.696 117.135 32.248C117.626 31.7893 117.871 31.1973 117.871 30.472C117.871 29.7573 117.626 29.176 117.135 28.728C116.655 28.28 116.036 28.056 115.279 28.056C114.511 28.056 113.882 28.28 113.391 28.728C112.911 29.176 112.671 29.7573 112.671 30.472C112.671 31.1973 112.911 31.7893 113.391 32.248C113.882 32.696 114.511 32.92 115.279 32.92ZM137.674 26.36C138.751 26.36 139.605 26.6747 140.234 27.304C140.863 27.9227 141.178 28.856 141.178 30.104V35H139.178V30.36C139.178 29.6133 139.013 29.0533 138.682 28.68C138.351 28.296 137.877 28.104 137.258 28.104C136.586 28.104 136.047 28.328 135.642 28.776C135.237 29.2133 135.034 29.8427 135.034 30.664V35H133.034V30.36C133.034 29.6133 132.869 29.0533 132.538 28.68C132.207 28.296 131.733 28.104 131.114 28.104C130.431 28.104 129.887 28.3227 129.482 28.76C129.087 29.1973 128.89 29.832 128.89 30.664V35H126.89V26.456H128.794V27.544C129.114 27.16 129.514 26.8667 129.994 26.664C130.474 26.4613 131.007 26.36 131.594 26.36C132.234 26.36 132.799 26.4827 133.29 26.728C133.791 26.9627 134.186 27.3147 134.474 27.784C134.826 27.336 135.279 26.9893 135.834 26.744C136.389 26.488 137.002 26.36 137.674 26.36ZM146.998 26.36C148.257 26.36 149.217 26.664 149.878 27.272C150.55 27.8693 150.886 28.776 150.886 29.992V35H148.998V33.96C148.753 34.3333 148.401 34.6213 147.942 34.824C147.494 35.016 146.95 35.112 146.31 35.112C145.67 35.112 145.11 35.0053 144.63 34.792C144.15 34.568 143.777 34.264 143.51 33.88C143.254 33.4853 143.126 33.0427 143.126 32.552C143.126 31.784 143.409 31.1707 143.974 30.712C144.55 30.2427 145.451 30.008 146.678 30.008H148.886V29.88C148.886 29.2827 148.705 28.824 148.342 28.504C147.99 28.184 147.462 28.024 146.758 28.024C146.278 28.024 145.803 28.0987 145.334 28.248C144.875 28.3973 144.486 28.6053 144.166 28.872L143.382 27.416C143.83 27.0747 144.369 26.8133 144.998 26.632C145.627 26.4507 146.294 26.36 146.998 26.36ZM146.726 33.656C147.227 33.656 147.67 33.544 148.054 33.32C148.449 33.0853 148.726 32.7547 148.886 32.328V31.336H146.822C145.67 31.336 145.094 31.7147 145.094 32.472C145.094 32.8347 145.238 33.1227 145.526 33.336C145.814 33.5493 146.214 33.656 146.726 33.656ZM158.301 26.36C159.378 26.36 160.242 26.6747 160.893 27.304C161.543 27.9333 161.869 28.8667 161.869 30.104V35H159.869V30.36C159.869 29.6133 159.693 29.0533 159.341 28.68C158.989 28.296 158.487 28.104 157.837 28.104C157.101 28.104 156.519 28.328 156.093 28.776C155.666 29.2133 155.453 29.848 155.453 30.68V35H153.453V26.456H155.357V27.56C155.687 27.1653 156.103 26.8667 156.605 26.664C157.106 26.4613 157.671 26.36 158.301 26.36ZM167.67 26.36C168.928 26.36 169.888 26.664 170.55 27.272C171.222 27.8693 171.558 28.776 171.558 29.992V35H169.67V33.96C169.424 34.3333 169.072 34.6213 168.614 34.824C168.166 35.016 167.622 35.112 166.982 35.112C166.342 35.112 165.782 35.0053 165.302 34.792C164.822 34.568 164.448 34.264 164.182 33.88C163.926 33.4853 163.798 33.0427 163.798 32.552C163.798 31.784 164.08 31.1707 164.646 30.712C165.222 30.2427 166.123 30.008 167.35 30.008H169.558V29.88C169.558 29.2827 169.376 28.824 169.014 28.504C168.662 28.184 168.134 28.024 167.43 28.024C166.95 28.024 166.475 28.0987 166.006 28.248C165.547 28.3973 165.158 28.6053 164.838 28.872L164.054 27.416C164.502 27.0747 165.04 26.8133 165.67 26.632C166.299 26.4507 166.966 26.36 167.67 26.36ZM167.398 33.656C167.899 33.656 168.342 33.544 168.726 33.32C169.12 33.0853 169.398 32.7547 169.558 32.328V31.336H167.494C166.342 31.336 165.766 31.7147 165.766 32.472C165.766 32.8347 165.91 33.1227 166.198 33.336C166.486 33.5493 166.886 33.656 167.398 33.656ZM182.683 26.456V33.704C182.683 36.712 181.147 38.216 178.075 38.216C177.253 38.216 176.475 38.1093 175.739 37.896C175.003 37.6933 174.395 37.3947 173.915 37L174.811 35.496C175.184 35.8053 175.653 36.0507 176.219 36.232C176.795 36.424 177.376 36.52 177.963 36.52C178.901 36.52 179.589 36.3067 180.027 35.88C180.464 35.4533 180.683 34.8027 180.683 33.928V33.48C180.341 33.8533 179.925 34.136 179.435 34.328C178.944 34.52 178.405 34.616 177.819 34.616C177.008 34.616 176.272 34.4453 175.611 34.104C174.96 33.752 174.443 33.2613 174.059 32.632C173.685 32.0027 173.499 31.2827 173.499 30.472C173.499 29.6613 173.685 28.9467 174.059 28.328C174.443 27.6987 174.96 27.2133 175.611 26.872C176.272 26.5307 177.008 26.36 177.819 26.36C178.437 26.36 178.997 26.4613 179.499 26.664C180.011 26.8667 180.437 27.176 180.779 27.592V26.456H182.683ZM178.123 32.92C178.88 32.92 179.499 32.696 179.979 32.248C180.469 31.7893 180.715 31.1973 180.715 30.472C180.715 29.7573 180.469 29.176 179.979 28.728C179.499 28.28 178.88 28.056 178.123 28.056C177.355 28.056 176.725 28.28 176.235 28.728C175.755 29.176 175.515 29.7573 175.515 30.472C175.515 31.1973 175.755 31.7893 176.235 32.248C176.725 32.696 177.355 32.92 178.123 32.92ZM193.344 30.776C193.344 30.9147 193.333 31.112 193.312 31.368H186.608C186.725 31.9973 187.029 32.4987 187.52 32.872C188.021 33.2347 188.64 33.416 189.376 33.416C190.315 33.416 191.088 33.1067 191.696 32.488L192.768 33.72C192.384 34.1787 191.899 34.5253 191.312 34.76C190.725 34.9947 190.064 35.112 189.328 35.112C188.389 35.112 187.563 34.9253 186.848 34.552C186.133 34.1787 185.579 33.6613 185.184 33C184.8 32.328 184.608 31.5707 184.608 30.728C184.608 29.896 184.795 29.1493 185.168 28.488C185.552 27.816 186.08 27.2933 186.752 26.92C187.424 26.5467 188.181 26.36 189.024 26.36C189.856 26.36 190.597 26.5467 191.248 26.92C191.909 27.2827 192.421 27.8 192.784 28.472C193.157 29.1333 193.344 29.9013 193.344 30.776ZM189.024 27.96C188.384 27.96 187.84 28.152 187.392 28.536C186.955 28.9093 186.688 29.4107 186.592 30.04H191.44C191.355 29.4213 191.093 28.92 190.656 28.536C190.219 28.152 189.675 27.96 189.024 27.96ZM197.169 27.704C197.745 26.808 198.758 26.36 200.209 26.36V28.264C200.038 28.232 199.884 28.216 199.745 28.216C198.966 28.216 198.358 28.4453 197.921 28.904C197.484 29.352 197.265 30.0027 197.265 30.856V35H195.265V26.456H197.169V27.704Z" fill="#3595FE"></path> <rect x="1.25" y="1.25" width="216.5" height="57.5" rx="28.75" stroke="#3595FE" stroke-width="2.5"></rect> </svg> 