<?xml version="1.0" encoding="UTF-8"?> <svg xmlns="http://www.w3.org/2000/svg" width="179" height="60" viewBox="0 0 179 60" fill="none"> <rect x="1.25" y="1.25" width="176.5" height="57.5" rx="28.75" stroke="#70D6F5" stroke-width="2.5"></rect> <path d="M44.8633 35L42.5753 31.72C42.4793 31.7307 42.3353 31.736 42.1433 31.736H39.6153V35H37.5353V23.8H42.1433C43.1139 23.8 43.9566 23.96 44.6713 24.28C45.3966 24.6 45.9513 25.0587 46.3353 25.656C46.7193 26.2533 46.9113 26.9627 46.9113 27.784C46.9113 28.6267 46.7033 29.352 46.2873 29.96C45.8819 30.568 45.2953 31.0213 44.5273 31.32L47.1033 35H44.8633ZM44.8153 27.784C44.8153 27.0693 44.5806 26.52 44.1112 26.136C43.6419 25.752 42.9539 25.56 42.0473 25.56H39.6153V30.024H42.0473C42.9539 30.024 43.6419 29.832 44.1112 29.448C44.5806 29.0533 44.8153 28.4987 44.8153 27.784ZM57.6384 35.176L56.2304 33.816C55.185 34.712 53.9317 35.16 52.4704 35.16C51.6917 35.16 50.993 35.032 50.3744 34.776C49.7557 34.52 49.2704 34.168 48.9184 33.72C48.5664 33.2613 48.3904 32.744 48.3904 32.168C48.3904 31.4747 48.593 30.8667 48.9984 30.344C49.4037 29.8107 50.065 29.288 50.9824 28.776C50.5344 28.328 50.2144 27.912 50.0224 27.528C49.8304 27.1333 49.7344 26.728 49.7344 26.312C49.7344 25.5227 50.0277 24.888 50.6144 24.408C51.2117 23.9173 52.001 23.672 52.9824 23.672C53.889 23.672 54.6144 23.896 55.1584 24.344C55.7024 24.7813 55.9744 25.3787 55.9744 26.136C55.9744 26.712 55.793 27.224 55.4304 27.672C55.0784 28.12 54.497 28.5733 53.6864 29.032L56.1024 31.336C56.369 30.8133 56.577 30.184 56.7264 29.448L58.3424 29.976C58.129 30.968 57.793 31.8213 57.3344 32.536L58.7424 33.88L57.6384 35.176ZM52.9824 25.096C52.545 25.096 52.1984 25.208 51.9424 25.432C51.6864 25.6453 51.5584 25.928 51.5584 26.28C51.5584 26.536 51.6277 26.7813 51.7664 27.016C51.905 27.24 52.1717 27.5493 52.5664 27.944C53.2064 27.592 53.649 27.288 53.8944 27.032C54.1504 26.7653 54.2784 26.4773 54.2784 26.168C54.2784 25.8373 54.161 25.576 53.9264 25.384C53.7024 25.192 53.3877 25.096 52.9824 25.096ZM52.6144 33.528C53.5424 33.528 54.353 33.2453 55.0464 32.68L52.0864 29.848C51.4464 30.2 50.993 30.5413 50.7264 30.872C50.4704 31.192 50.3424 31.5547 50.3424 31.96C50.3424 32.4293 50.5504 32.808 50.9664 33.096C51.3824 33.384 51.9317 33.528 52.6144 33.528ZM60.5353 23.8H65.4313C66.6259 23.8 67.6873 24.0347 68.6153 24.504C69.5433 24.9627 70.2633 25.6187 70.7753 26.472C71.2873 27.3147 71.5433 28.2907 71.5433 29.4C71.5433 30.5093 71.2873 31.4907 70.7753 32.344C70.2633 33.1867 69.5433 33.8427 68.6153 34.312C67.6873 34.7707 66.6259 35 65.4313 35H60.5353V23.8ZM65.3353 33.24C66.1566 33.24 66.8766 33.0853 67.4953 32.776C68.1246 32.456 68.6046 32.008 68.9353 31.432C69.2766 30.8453 69.4473 30.168 69.4473 29.4C69.4473 28.632 69.2766 27.96 68.9353 27.384C68.6046 26.7973 68.1246 26.3493 67.4953 26.04C66.8766 25.72 66.1566 25.56 65.3353 25.56H62.6153V33.24H65.3353ZM78.1759 23.8H83.0719C84.2665 23.8 85.3279 24.0347 86.2559 24.504C87.1839 24.9627 87.9039 25.6187 88.4159 26.472C88.9279 27.3147 89.1839 28.2907 89.1839 29.4C89.1839 30.5093 88.9279 31.4907 88.4159 32.344C87.9039 33.1867 87.1839 33.8427 86.2559 34.312C85.3279 34.7707 84.2665 35 83.0719 35H78.1759V23.8ZM82.9759 33.24C83.7972 33.24 84.5172 33.0853 85.1359 32.776C85.7652 32.456 86.2452 32.008 86.5759 31.432C86.9172 30.8453 87.0879 30.168 87.0879 29.4C87.0879 28.632 86.9172 27.96 86.5759 27.384C86.2452 26.7973 85.7652 26.3493 85.1359 26.04C84.5172 25.72 83.7972 25.56 82.9759 25.56H80.2559V33.24H82.9759ZM91.2026 26.456H93.2026V35H91.2026V26.456ZM92.2106 25.048C91.848 25.048 91.544 24.936 91.2986 24.712C91.0533 24.4773 90.9306 24.1893 90.9306 23.848C90.9306 23.5067 91.0533 23.224 91.2986 23C91.544 22.7653 91.848 22.648 92.2106 22.648C92.5733 22.648 92.8773 22.76 93.1226 22.984C93.368 23.1973 93.4906 23.4693 93.4906 23.8C93.4906 24.152 93.368 24.4507 93.1226 24.696C92.888 24.9307 92.584 25.048 92.2106 25.048ZM97.7316 27.704C98.3076 26.808 99.321 26.36 100.772 26.36V28.264C100.601 28.232 100.446 28.216 100.308 28.216C99.529 28.216 98.921 28.4453 98.4836 28.904C98.0463 29.352 97.8276 30.0027 97.8276 30.856V35H95.8276V26.456H97.7316V27.704ZM110.422 30.776C110.422 30.9147 110.411 31.112 110.39 31.368H103.686C103.803 31.9973 104.107 32.4987 104.598 32.872C105.099 33.2347 105.718 33.416 106.454 33.416C107.393 33.416 108.166 33.1067 108.774 32.488L109.846 33.72C109.462 34.1787 108.977 34.5253 108.39 34.76C107.803 34.9947 107.142 35.112 106.406 35.112C105.467 35.112 104.641 34.9253 103.926 34.552C103.211 34.1787 102.657 33.6613 102.262 33C101.878 32.328 101.686 31.5707 101.686 30.728C101.686 29.896 101.873 29.1493 102.246 28.488C102.63 27.816 103.158 27.2933 103.83 26.92C104.502 26.5467 105.259 26.36 106.102 26.36C106.934 26.36 107.675 26.5467 108.326 26.92C108.987 27.2827 109.499 27.8 109.862 28.472C110.235 29.1333 110.422 29.9013 110.422 30.776ZM106.102 27.96C105.462 27.96 104.918 28.152 104.47 28.536C104.033 28.9093 103.766 29.4107 103.67 30.04H108.518C108.433 29.4213 108.171 28.92 107.734 28.536C107.297 28.152 106.753 27.96 106.102 27.96ZM116.263 35.112C115.378 35.112 114.583 34.9253 113.879 34.552C113.175 34.1787 112.626 33.6613 112.231 33C111.837 32.328 111.639 31.5707 111.639 30.728C111.639 29.8853 111.837 29.1333 112.231 28.472C112.626 27.8107 113.17 27.2933 113.863 26.92C114.567 26.5467 115.367 26.36 116.263 26.36C117.106 26.36 117.842 26.5307 118.471 26.872C119.111 27.2133 119.591 27.704 119.911 28.344L118.375 29.24C118.13 28.8453 117.821 28.552 117.447 28.36C117.085 28.1573 116.685 28.056 116.247 28.056C115.501 28.056 114.882 28.3013 114.391 28.792C113.901 29.272 113.655 29.9173 113.655 30.728C113.655 31.5387 113.895 32.1893 114.375 32.68C114.866 33.16 115.49 33.4 116.247 33.4C116.685 33.4 117.085 33.304 117.447 33.112C117.821 32.9093 118.13 32.6107 118.375 32.216L119.911 33.112C119.581 33.752 119.095 34.248 118.455 34.6C117.826 34.9413 117.095 35.112 116.263 35.112ZM126.886 34.536C126.651 34.728 126.363 34.872 126.022 34.968C125.691 35.064 125.339 35.112 124.966 35.112C124.027 35.112 123.302 34.8667 122.789 34.376C122.278 33.8853 122.022 33.1707 122.022 32.232V28.12H120.614V26.52H122.022V24.568H124.022V26.52H126.31V28.12H124.022V32.184C124.022 32.6 124.123 32.92 124.326 33.144C124.528 33.3573 124.822 33.464 125.206 33.464C125.654 33.464 126.027 33.3467 126.326 33.112L126.886 34.536ZM132.09 35.112C131.226 35.112 130.447 34.9253 129.754 34.552C129.06 34.1787 128.516 33.6613 128.122 33C127.738 32.328 127.546 31.5707 127.546 30.728C127.546 29.8853 127.738 29.1333 128.122 28.472C128.516 27.8107 129.06 27.2933 129.754 26.92C130.447 26.5467 131.226 26.36 132.09 26.36C132.964 26.36 133.748 26.5467 134.442 26.92C135.135 27.2933 135.674 27.8107 136.058 28.472C136.452 29.1333 136.65 29.8853 136.65 30.728C136.65 31.5707 136.452 32.328 136.058 33C135.674 33.6613 135.135 34.1787 134.442 34.552C133.748 34.9253 132.964 35.112 132.09 35.112ZM132.09 33.4C132.826 33.4 133.434 33.1547 133.914 32.664C134.394 32.1733 134.634 31.528 134.634 30.728C134.634 29.928 134.394 29.2827 133.914 28.792C133.434 28.3013 132.826 28.056 132.09 28.056C131.354 28.056 130.746 28.3013 130.266 28.792C129.796 29.2827 129.562 29.928 129.562 30.728C129.562 31.528 129.796 32.1733 130.266 32.664C130.746 33.1547 131.354 33.4 132.09 33.4ZM140.466 27.704C141.042 26.808 142.055 26.36 143.506 26.36V28.264C143.335 28.232 143.181 28.216 143.042 28.216C142.263 28.216 141.655 28.4453 141.218 28.904C140.781 29.352 140.562 30.0027 140.562 30.856V35H138.562V26.456H140.466V27.704Z" fill="#70D6F5"></path> </svg> 