<?xml version="1.0" encoding="UTF-8"?> <svg xmlns="http://www.w3.org/2000/svg" width="195" height="60" viewBox="0 0 195 60" fill="none"> <rect width="195" height="60" rx="30" fill="#3F3FC0"></rect> <path d="M36.3979 35.16C35.5339 35.16 34.6965 35.0373 33.8859 34.792C33.0859 34.5467 32.4512 34.2213 31.9819 33.816L32.7019 32.2C33.1605 32.5627 33.7205 32.8613 34.3819 33.096C35.0539 33.32 35.7259 33.432 36.3979 33.432C37.2299 33.432 37.8485 33.2987 38.2539 33.032C38.6699 32.7653 38.8779 32.4133 38.8779 31.976C38.8779 31.656 38.7605 31.3947 38.5259 31.192C38.3019 30.9787 38.0139 30.8133 37.6619 30.696C37.3099 30.5787 36.8299 30.4453 36.2219 30.296C35.3685 30.0933 34.6752 29.8907 34.1419 29.688C33.6192 29.4853 33.1659 29.1707 32.7819 28.744C32.4085 28.3067 32.2219 27.72 32.2219 26.984C32.2219 26.3653 32.3872 25.8053 32.7179 25.304C33.0592 24.792 33.5659 24.3867 34.2379 24.088C34.9205 23.7893 35.7525 23.64 36.7339 23.64C37.4165 23.64 38.0885 23.7253 38.7499 23.896C39.4112 24.0667 39.9819 24.312 40.4619 24.632L39.8059 26.248C39.3152 25.96 38.8032 25.7413 38.2699 25.592C37.7365 25.4427 37.2192 25.368 36.7179 25.368C35.8965 25.368 35.2832 25.5067 34.8779 25.784C34.4832 26.0613 34.2859 26.4293 34.2859 26.888C34.2859 27.208 34.3979 27.4693 34.6219 27.672C34.8565 27.8747 35.1499 28.0347 35.5019 28.152C35.8539 28.2693 36.3339 28.4027 36.9419 28.552C37.7739 28.744 38.4565 28.9467 38.9899 29.16C39.5232 29.3627 39.9765 29.6773 40.3499 30.104C40.7339 30.5307 40.9259 31.1067 40.9259 31.832C40.9259 32.4507 40.7552 33.0107 40.4139 33.512C40.0832 34.0133 39.5765 34.4133 38.8939 34.712C38.2112 35.0107 37.3792 35.16 36.3979 35.16ZM46.6364 35.112C45.7724 35.112 44.9937 34.9253 44.3004 34.552C43.607 34.1787 43.063 33.6613 42.6684 33C42.2844 32.328 42.0924 31.5707 42.0924 30.728C42.0924 29.8853 42.2844 29.1333 42.6684 28.472C43.063 27.8107 43.607 27.2933 44.3004 26.92C44.9937 26.5467 45.7724 26.36 46.6364 26.36C47.511 26.36 48.295 26.5467 48.9884 26.92C49.6817 27.2933 50.2204 27.8107 50.6044 28.472C50.999 29.1333 51.1964 29.8853 51.1964 30.728C51.1964 31.5707 50.999 32.328 50.6044 33C50.2204 33.6613 49.6817 34.1787 48.9884 34.552C48.295 34.9253 47.511 35.112 46.6364 35.112ZM46.6364 33.4C47.3724 33.4 47.9804 33.1547 48.4604 32.664C48.9404 32.1733 49.1804 31.528 49.1804 30.728C49.1804 29.928 48.9404 29.2827 48.4604 28.792C47.9804 28.3013 47.3724 28.056 46.6364 28.056C45.9004 28.056 45.2924 28.3013 44.8124 28.792C44.343 29.2827 44.1084 29.928 44.1084 30.728C44.1084 31.528 44.343 32.1733 44.8124 32.664C45.2924 33.1547 45.9004 33.4 46.6364 33.4ZM57.0289 35.112C56.1435 35.112 55.3489 34.9253 54.6449 34.552C53.9409 34.1787 53.3915 33.6613 52.9969 33C52.6022 32.328 52.4049 31.5707 52.4049 30.728C52.4049 29.8853 52.6022 29.1333 52.9969 28.472C53.3915 27.8107 53.9355 27.2933 54.6289 26.92C55.3329 26.5467 56.1329 26.36 57.0289 26.36C57.8715 26.36 58.6075 26.5307 59.2369 26.872C59.8769 27.2133 60.3569 27.704 60.6769 28.344L59.1409 29.24C58.8955 28.8453 58.5862 28.552 58.2129 28.36C57.8502 28.1573 57.4502 28.056 57.0129 28.056C56.2662 28.056 55.6475 28.3013 55.1569 28.792C54.6662 29.272 54.4209 29.9173 54.4209 30.728C54.4209 31.5387 54.6609 32.1893 55.1409 32.68C55.6315 33.16 56.2555 33.4 57.0129 33.4C57.4502 33.4 57.8502 33.304 58.2129 33.112C58.5862 32.9093 58.8955 32.6107 59.1409 32.216L60.6769 33.112C60.3462 33.752 59.8609 34.248 59.2209 34.6C58.5915 34.9413 57.8609 35.112 57.0289 35.112ZM62.4058 26.456H64.4058V35H62.4058V26.456ZM63.4138 25.048C63.0511 25.048 62.7471 24.936 62.5018 24.712C62.2564 24.4773 62.1338 24.1893 62.1338 23.848C62.1338 23.5067 62.2564 23.224 62.5018 23C62.7471 22.7653 63.0511 22.648 63.4138 22.648C63.7764 22.648 64.0804 22.76 64.3258 22.984C64.5711 23.1973 64.6938 23.4693 64.6938 23.8C64.6938 24.152 64.5711 24.4507 64.3258 24.696C64.0911 24.9307 63.7871 25.048 63.4138 25.048ZM70.2948 26.36C71.5534 26.36 72.5134 26.664 73.1748 27.272C73.8468 27.8693 74.1828 28.776 74.1828 29.992V35H72.2948V33.96C72.0494 34.3333 71.6974 34.6213 71.2388 34.824C70.7908 35.016 70.2468 35.112 69.6068 35.112C68.9668 35.112 68.4068 35.0053 67.9268 34.792C67.4468 34.568 67.0734 34.264 66.8068 33.88C66.5508 33.4853 66.4228 33.0427 66.4228 32.552C66.4228 31.784 66.7054 31.1707 67.2708 30.712C67.8468 30.2427 68.7481 30.008 69.9748 30.008H72.1828V29.88C72.1828 29.2827 72.0014 28.824 71.6388 28.504C71.2868 28.184 70.7588 28.024 70.0548 28.024C69.5748 28.024 69.1001 28.0987 68.6308 28.248C68.1721 28.3973 67.7828 28.6053 67.4628 28.872L66.6788 27.416C67.1268 27.0747 67.6654 26.8133 68.2948 26.632C68.9241 26.4507 69.5908 26.36 70.2948 26.36ZM70.0228 33.656C70.5241 33.656 70.9668 33.544 71.3508 33.32C71.7454 33.0853 72.0228 32.7547 72.1828 32.328V31.336H70.1188C68.9668 31.336 68.3908 31.7147 68.3908 32.472C68.3908 32.8347 68.5348 33.1227 68.8228 33.336C69.1108 33.5493 69.5108 33.656 70.0228 33.656ZM76.7495 23.128H78.7495V35H76.7495V23.128ZM95.9404 23.8V35H94.2284L88.0524 27.416V35H85.9884V23.8H87.7004L93.8764 31.384V23.8H95.9404ZM106.782 30.776C106.782 30.9147 106.771 31.112 106.75 31.368H100.046C100.163 31.9973 100.467 32.4987 100.958 32.872C101.459 33.2347 102.078 33.416 102.814 33.416C103.752 33.416 104.526 33.1067 105.134 32.488L106.206 33.72C105.822 34.1787 105.336 34.5253 104.75 34.76C104.163 34.9947 103.502 35.112 102.766 35.112C101.827 35.112 101 34.9253 100.286 34.552C99.5708 34.1787 99.0162 33.6613 98.6215 33C98.2375 32.328 98.0455 31.5707 98.0455 30.728C98.0455 29.896 98.2322 29.1493 98.6055 28.488C98.9895 27.816 99.5175 27.2933 100.19 26.92C100.862 26.5467 101.619 26.36 102.462 26.36C103.294 26.36 104.035 26.5467 104.686 26.92C105.347 27.2827 105.859 27.8 106.222 28.472C106.595 29.1333 106.782 29.9013 106.782 30.776ZM102.462 27.96C101.822 27.96 101.278 28.152 100.83 28.536C100.392 28.9093 100.126 29.4107 100.03 30.04H104.878C104.792 29.4213 104.531 28.92 104.094 28.536C103.656 28.152 103.112 27.96 102.462 27.96ZM113.839 34.536C113.604 34.728 113.316 34.872 112.975 34.968C112.644 35.064 112.292 35.112 111.919 35.112C110.98 35.112 110.255 34.8667 109.743 34.376C109.231 33.8853 108.975 33.1707 108.975 32.232V28.12H107.567V26.52H108.975V24.568H110.975V26.52H113.263V28.12H110.975V32.184C110.975 32.6 111.076 32.92 111.279 33.144C111.481 33.3573 111.775 33.464 112.159 33.464C112.607 33.464 112.98 33.3467 113.279 33.112L113.839 34.536ZM128.656 26.456L125.504 35H123.584L121.376 29.112L119.136 35H117.216L114.08 26.456H115.968L118.224 32.76L120.576 26.456H122.256L124.56 32.792L126.88 26.456H128.656ZM133.636 35.112C132.772 35.112 131.994 34.9253 131.3 34.552C130.607 34.1787 130.063 33.6613 129.668 33C129.284 32.328 129.092 31.5707 129.092 30.728C129.092 29.8853 129.284 29.1333 129.668 28.472C130.063 27.8107 130.607 27.2933 131.3 26.92C131.994 26.5467 132.772 26.36 133.636 26.36C134.511 26.36 135.295 26.5467 135.988 26.92C136.682 27.2933 137.22 27.8107 137.604 28.472C137.999 29.1333 138.196 29.8853 138.196 30.728C138.196 31.5707 137.999 32.328 137.604 33C137.22 33.6613 136.682 34.1787 135.988 34.552C135.295 34.9253 134.511 35.112 133.636 35.112ZM133.636 33.4C134.372 33.4 134.98 33.1547 135.46 32.664C135.94 32.1733 136.18 31.528 136.18 30.728C136.18 29.928 135.94 29.2827 135.46 28.792C134.98 28.3013 134.372 28.056 133.636 28.056C132.9 28.056 132.292 28.3013 131.812 28.792C131.343 29.2827 131.108 29.928 131.108 30.728C131.108 31.528 131.343 32.1733 131.812 32.664C132.292 33.1547 132.9 33.4 133.636 33.4ZM142.013 27.704C142.589 26.808 143.602 26.36 145.053 26.36V28.264C144.882 28.232 144.728 28.216 144.589 28.216C143.81 28.216 143.202 28.4453 142.765 28.904C142.328 29.352 142.109 30.0027 142.109 30.856V35H140.109V26.456H142.013V27.704ZM150.238 31.336L148.75 32.744V35H146.75V23.128H148.75V30.296L152.894 26.456H155.294L151.726 30.04L155.63 35H153.198L150.238 31.336ZM159.296 35.112C158.602 35.112 157.925 35.0213 157.264 34.84C156.602 34.6587 156.074 34.4293 155.68 34.152L156.448 32.632C156.832 32.888 157.29 33.096 157.824 33.256C158.368 33.4053 158.901 33.48 159.424 33.48C160.618 33.48 161.216 33.1653 161.216 32.536C161.216 32.2373 161.061 32.0293 160.752 31.912C160.453 31.7947 159.968 31.6827 159.296 31.576C158.592 31.4693 158.016 31.3467 157.568 31.208C157.13 31.0693 156.746 30.8293 156.416 30.488C156.096 30.136 155.936 29.6507 155.936 29.032C155.936 28.2213 156.272 27.576 156.944 27.096C157.626 26.6053 158.544 26.36 159.696 26.36C160.282 26.36 160.869 26.4293 161.456 26.568C162.042 26.696 162.522 26.872 162.896 27.096L162.128 28.616C161.402 28.1893 160.586 27.976 159.68 27.976C159.093 27.976 158.645 28.0667 158.336 28.248C158.037 28.4187 157.888 28.648 157.888 28.936C157.888 29.256 158.048 29.4853 158.368 29.624C158.698 29.752 159.205 29.8747 159.888 29.992C160.57 30.0987 161.13 30.2213 161.568 30.36C162.005 30.4987 162.378 30.7333 162.688 31.064C163.008 31.3947 163.168 31.864 163.168 32.472C163.168 33.272 162.821 33.912 162.128 34.392C161.434 34.872 160.49 35.112 159.296 35.112Z" fill="white"></path> </svg> 