<?xml version="1.0" encoding="UTF-8"?> <svg xmlns="http://www.w3.org/2000/svg" width="184" height="60" viewBox="0 0 184 60" fill="none"> <path d="M30.6279 23.8V35H28.5479V30.2H22.7559V35H20.6759V23.8H22.7559V28.424H28.5479V23.8H30.6279ZM33.437 26.456H35.437V35H33.437V26.456ZM34.445 25.048C34.0823 25.048 33.7783 24.936 33.533 24.712C33.2877 24.4773 33.165 24.1893 33.165 23.848C33.165 23.5067 33.2877 23.224 33.533 23C33.7783 22.7653 34.0823 22.648 34.445 22.648C34.8077 22.648 35.1117 22.76 35.357 22.984C35.6023 23.1973 35.725 23.4693 35.725 23.8C35.725 24.152 35.6023 24.4507 35.357 24.696C35.1223 24.9307 34.8183 25.048 34.445 25.048ZM46.542 26.456V33.704C46.542 36.712 45.006 38.216 41.934 38.216C41.1127 38.216 40.334 38.1093 39.598 37.896C38.862 37.6933 38.254 37.3947 37.774 37L38.67 35.496C39.0433 35.8053 39.5127 36.0507 40.078 36.232C40.654 36.424 41.2353 36.52 41.822 36.52C42.7607 36.52 43.4487 36.3067 43.886 35.88C44.3233 35.4533 44.542 34.8027 44.542 33.928V33.48C44.2007 33.8533 43.7847 34.136 43.294 34.328C42.8033 34.52 42.2647 34.616 41.678 34.616C40.8673 34.616 40.1313 34.4453 39.47 34.104C38.8193 33.752 38.302 33.2613 37.918 32.632C37.5447 32.0027 37.358 31.2827 37.358 30.472C37.358 29.6613 37.5447 28.9467 37.918 28.328C38.302 27.6987 38.8193 27.2133 39.47 26.872C40.1313 26.5307 40.8673 26.36 41.678 26.36C42.2967 26.36 42.8567 26.4613 43.358 26.664C43.87 26.8667 44.2967 27.176 44.638 27.592V26.456H46.542ZM41.982 32.92C42.7393 32.92 43.358 32.696 43.838 32.248C44.3287 31.7893 44.574 31.1973 44.574 30.472C44.574 29.7573 44.3287 29.176 43.838 28.728C43.358 28.28 42.7393 28.056 41.982 28.056C41.214 28.056 40.5847 28.28 40.094 28.728C39.614 29.176 39.374 29.7573 39.374 30.472C39.374 31.1973 39.614 31.7893 40.094 32.248C40.5847 32.696 41.214 32.92 41.982 32.92ZM54.0194 26.36C55.0967 26.36 55.9607 26.6747 56.6114 27.304C57.262 27.9333 57.5874 28.8667 57.5874 30.104V35H55.5874V30.36C55.5874 29.6133 55.4114 29.0533 55.0594 28.68C54.7074 28.296 54.206 28.104 53.5554 28.104C52.8194 28.104 52.238 28.328 51.8114 28.776C51.3847 29.2133 51.1714 29.848 51.1714 30.68V35H49.1714V23.128H51.1714V27.448C51.502 27.096 51.9074 26.8293 52.3874 26.648C52.878 26.456 53.422 26.36 54.0194 26.36ZM60.1245 23.128H62.1245V35H60.1245V23.128ZM68.5895 35.112C67.7255 35.112 66.9468 34.9253 66.2535 34.552C65.5602 34.1787 65.0162 33.6613 64.6215 33C64.2375 32.328 64.0455 31.5707 64.0455 30.728C64.0455 29.8853 64.2375 29.1333 64.6215 28.472C65.0162 27.8107 65.5602 27.2933 66.2535 26.92C66.9468 26.5467 67.7255 26.36 68.5895 26.36C69.4642 26.36 70.2482 26.5467 70.9415 26.92C71.6348 27.2933 72.1735 27.8107 72.5575 28.472C72.9522 29.1333 73.1495 29.8853 73.1495 30.728C73.1495 31.5707 72.9522 32.328 72.5575 33C72.1735 33.6613 71.6348 34.1787 70.9415 34.552C70.2482 34.9253 69.4642 35.112 68.5895 35.112ZM68.5895 33.4C69.3255 33.4 69.9335 33.1547 70.4135 32.664C70.8935 32.1733 71.1335 31.528 71.1335 30.728C71.1335 29.928 70.8935 29.2827 70.4135 28.792C69.9335 28.3013 69.3255 28.056 68.5895 28.056C67.8535 28.056 67.2455 28.3013 66.7655 28.792C66.2962 29.2827 66.0615 29.928 66.0615 30.728C66.0615 31.528 66.2962 32.1733 66.7655 32.664C67.2455 33.1547 67.8535 33.4 68.5895 33.4ZM78.2166 26.36C79.4753 26.36 80.4353 26.664 81.0966 27.272C81.7686 27.8693 82.1046 28.776 82.1046 29.992V35H80.2166V33.96C79.9713 34.3333 79.6193 34.6213 79.1606 34.824C78.7126 35.016 78.1686 35.112 77.5286 35.112C76.8886 35.112 76.3286 35.0053 75.8486 34.792C75.3686 34.568 74.9953 34.264 74.7286 33.88C74.4726 33.4853 74.3446 33.0427 74.3446 32.552C74.3446 31.784 74.6273 31.1707 75.1926 30.712C75.7686 30.2427 76.67 30.008 77.8966 30.008H80.1046V29.88C80.1046 29.2827 79.9233 28.824 79.5606 28.504C79.2086 28.184 78.6806 28.024 77.9766 28.024C77.4966 28.024 77.022 28.0987 76.5526 28.248C76.094 28.3973 75.7046 28.6053 75.3846 28.872L74.6006 27.416C75.0486 27.0747 75.5873 26.8133 76.2166 26.632C76.846 26.4507 77.5126 26.36 78.2166 26.36ZM77.9446 33.656C78.446 33.656 78.8886 33.544 79.2726 33.32C79.6673 33.0853 79.9446 32.7547 80.1046 32.328V31.336H78.0406C76.8886 31.336 76.3126 31.7147 76.3126 32.472C76.3126 32.8347 76.4566 33.1227 76.7446 33.336C77.0326 33.5493 77.4326 33.656 77.9446 33.656ZM93.1175 23.128V35H91.1975V33.896C90.8668 34.3013 90.4562 34.6053 89.9655 34.808C89.4855 35.0107 88.9522 35.112 88.3655 35.112C87.5442 35.112 86.8028 34.9307 86.1415 34.568C85.4908 34.2053 84.9788 33.6933 84.6055 33.032C84.2322 32.36 84.0455 31.592 84.0455 30.728C84.0455 29.864 84.2322 29.1013 84.6055 28.44C84.9788 27.7787 85.4908 27.2667 86.1415 26.904C86.8028 26.5413 87.5442 26.36 88.3655 26.36C88.9308 26.36 89.4482 26.456 89.9175 26.648C90.3868 26.84 90.7868 27.128 91.1175 27.512V23.128H93.1175ZM88.6055 33.4C89.0855 33.4 89.5175 33.2933 89.9015 33.08C90.2855 32.856 90.5895 32.5413 90.8135 32.136C91.0375 31.7307 91.1495 31.2613 91.1495 30.728C91.1495 30.1947 91.0375 29.7253 90.8135 29.32C90.5895 28.9147 90.2855 28.6053 89.9015 28.392C89.5175 28.168 89.0855 28.056 88.6055 28.056C88.1255 28.056 87.6935 28.168 87.3095 28.392C86.9255 28.6053 86.6215 28.9147 86.3975 29.32C86.1735 29.7253 86.0615 30.1947 86.0615 30.728C86.0615 31.2613 86.1735 31.7307 86.3975 32.136C86.6215 32.5413 86.9255 32.856 87.3095 33.08C87.6935 33.2933 88.1255 33.4 88.6055 33.4ZM102.796 35.112C102.102 35.112 101.425 35.0213 100.764 34.84C100.102 34.6587 99.5744 34.4293 99.1798 34.152L99.9478 32.632C100.332 32.888 100.79 33.096 101.324 33.256C101.868 33.4053 102.401 33.48 102.924 33.48C104.118 33.48 104.716 33.1653 104.716 32.536C104.716 32.2373 104.561 32.0293 104.252 31.912C103.953 31.7947 103.468 31.6827 102.796 31.576C102.092 31.4693 101.516 31.3467 101.068 31.208C100.63 31.0693 100.246 30.8293 99.9158 30.488C99.5958 30.136 99.4358 29.6507 99.4358 29.032C99.4358 28.2213 99.7718 27.576 100.444 27.096C101.126 26.6053 102.044 26.36 103.196 26.36C103.782 26.36 104.369 26.4293 104.956 26.568C105.542 26.696 106.022 26.872 106.396 27.096L105.628 28.616C104.902 28.1893 104.086 27.976 103.18 27.976C102.593 27.976 102.145 28.0667 101.836 28.248C101.537 28.4187 101.388 28.648 101.388 28.936C101.388 29.256 101.548 29.4853 101.868 29.624C102.198 29.752 102.705 29.8747 103.388 29.992C104.07 30.0987 104.63 30.2213 105.068 30.36C105.505 30.4987 105.878 30.7333 106.188 31.064C106.508 31.3947 106.668 31.864 106.668 32.472C106.668 33.272 106.321 33.912 105.628 34.392C104.934 34.872 103.99 35.112 102.796 35.112ZM116.234 26.456L112.234 35.688C111.861 36.616 111.407 37.2667 110.874 37.64C110.341 38.024 109.695 38.216 108.938 38.216C108.511 38.216 108.09 38.1467 107.674 38.008C107.258 37.8693 106.917 37.6773 106.65 37.432L107.45 35.96C107.642 36.1413 107.866 36.2853 108.122 36.392C108.389 36.4987 108.655 36.552 108.922 36.552C109.274 36.552 109.562 36.4613 109.786 36.28C110.021 36.0987 110.234 35.7947 110.426 35.368L110.57 35.032L106.842 26.456H108.922L111.61 32.776L114.314 26.456H116.234ZM120.015 35.112C119.321 35.112 118.644 35.0213 117.983 34.84C117.321 34.6587 116.793 34.4293 116.399 34.152L117.167 32.632C117.551 32.888 118.009 33.096 118.543 33.256C119.087 33.4053 119.62 33.48 120.143 33.48C121.337 33.48 121.935 33.1653 121.935 32.536C121.935 32.2373 121.78 32.0293 121.471 31.912C121.172 31.7947 120.687 31.6827 120.015 31.576C119.311 31.4693 118.735 31.3467 118.287 31.208C117.849 31.0693 117.465 30.8293 117.135 30.488C116.815 30.136 116.655 29.6507 116.655 29.032C116.655 28.2213 116.991 27.576 117.663 27.096C118.345 26.6053 119.263 26.36 120.415 26.36C121.001 26.36 121.588 26.4293 122.175 26.568C122.761 26.696 123.241 26.872 123.615 27.096L122.847 28.616C122.121 28.1893 121.305 27.976 120.399 27.976C119.812 27.976 119.364 28.0667 119.055 28.248C118.756 28.4187 118.607 28.648 118.607 28.936C118.607 29.256 118.767 29.4853 119.087 29.624C119.417 29.752 119.924 29.8747 120.607 29.992C121.289 30.0987 121.849 30.2213 122.287 30.36C122.724 30.4987 123.097 30.7333 123.407 31.064C123.727 31.3947 123.887 31.864 123.887 32.472C123.887 33.272 123.54 33.912 122.847 34.392C122.153 34.872 121.209 35.112 120.015 35.112ZM130.745 34.536C130.51 34.728 130.222 34.872 129.881 34.968C129.55 35.064 129.198 35.112 128.825 35.112C127.886 35.112 127.161 34.8667 126.649 34.376C126.137 33.8853 125.881 33.1707 125.881 32.232V28.12H124.473V26.52H125.881V24.568H127.881V26.52H130.169V28.12H127.881V32.184C127.881 32.6 127.982 32.92 128.185 33.144C128.388 33.3573 128.681 33.464 129.065 33.464C129.513 33.464 129.886 33.3467 130.185 33.112L130.745 34.536ZM140.141 30.776C140.141 30.9147 140.13 31.112 140.109 31.368H133.405C133.522 31.9973 133.826 32.4987 134.317 32.872C134.818 33.2347 135.437 33.416 136.173 33.416C137.112 33.416 137.885 33.1067 138.493 32.488L139.565 33.72C139.181 34.1787 138.696 34.5253 138.109 34.76C137.522 34.9947 136.861 35.112 136.125 35.112C135.186 35.112 134.36 34.9253 133.645 34.552C132.93 34.1787 132.376 33.6613 131.981 33C131.597 32.328 131.405 31.5707 131.405 30.728C131.405 29.896 131.592 29.1493 131.965 28.488C132.349 27.816 132.877 27.2933 133.549 26.92C134.221 26.5467 134.978 26.36 135.821 26.36C136.653 26.36 137.394 26.5467 138.045 26.92C138.706 27.2827 139.218 27.8 139.581 28.472C139.954 29.1333 140.141 29.9013 140.141 30.776ZM135.821 27.96C135.181 27.96 134.637 28.152 134.189 28.536C133.752 28.9093 133.485 29.4107 133.389 30.04H138.237C138.152 29.4213 137.89 28.92 137.453 28.536C137.016 28.152 136.472 27.96 135.821 27.96ZM152.846 26.36C153.923 26.36 154.777 26.6747 155.406 27.304C156.035 27.9227 156.35 28.856 156.35 30.104V35H154.35V30.36C154.35 29.6133 154.185 29.0533 153.854 28.68C153.523 28.296 153.049 28.104 152.43 28.104C151.758 28.104 151.219 28.328 150.814 28.776C150.409 29.2133 150.206 29.8427 150.206 30.664V35H148.206V30.36C148.206 29.6133 148.041 29.0533 147.71 28.68C147.379 28.296 146.905 28.104 146.286 28.104C145.603 28.104 145.059 28.3227 144.654 28.76C144.259 29.1973 144.062 29.832 144.062 30.664V35H142.062V26.456H143.966V27.544C144.286 27.16 144.686 26.8667 145.166 26.664C145.646 26.4613 146.179 26.36 146.766 26.36C147.406 26.36 147.971 26.4827 148.462 26.728C148.963 26.9627 149.358 27.3147 149.646 27.784C149.998 27.336 150.451 26.9893 151.006 26.744C151.561 26.488 152.174 26.36 152.846 26.36ZM161.546 35.112C160.852 35.112 160.175 35.0213 159.514 34.84C158.852 34.6587 158.324 34.4293 157.93 34.152L158.698 32.632C159.082 32.888 159.54 33.096 160.074 33.256C160.618 33.4053 161.151 33.48 161.674 33.48C162.868 33.48 163.466 33.1653 163.466 32.536C163.466 32.2373 163.311 32.0293 163.002 31.912C162.703 31.7947 162.218 31.6827 161.546 31.576C160.842 31.4693 160.266 31.3467 159.818 31.208C159.38 31.0693 158.996 30.8293 158.666 30.488C158.346 30.136 158.186 29.6507 158.186 29.032C158.186 28.2213 158.522 27.576 159.194 27.096C159.876 26.6053 160.794 26.36 161.946 26.36C162.532 26.36 163.119 26.4293 163.706 26.568C164.292 26.696 164.772 26.872 165.146 27.096L164.378 28.616C163.652 28.1893 162.836 27.976 161.93 27.976C161.343 27.976 160.895 28.0667 160.586 28.248C160.287 28.4187 160.138 28.648 160.138 28.936C160.138 29.256 160.298 29.4853 160.618 29.624C160.948 29.752 161.455 29.8747 162.138 29.992C162.82 30.0987 163.38 30.2213 163.818 30.36C164.255 30.4987 164.628 30.7333 164.938 31.064C165.258 31.3947 165.418 31.864 165.418 32.472C165.418 33.272 165.071 33.912 164.378 34.392C163.684 34.872 162.74 35.112 161.546 35.112Z" fill="#7580E3"></path> <rect x="1.25" y="1.25" width="181.5" height="57.5" rx="28.75" stroke="#7580E3" stroke-width="2.5"></rect> </svg> 