<?xml version="1.0" encoding="UTF-8"?> <svg xmlns="http://www.w3.org/2000/svg" width="179" height="60" viewBox="0 0 179 60" fill="none"> <rect width="179" height="60" rx="30" fill="#7580E3"></rect> <path d="M144.079 30.0408L127.457 46.6627C126.875 47.2447 125.931 47.2443 125.349 46.6626C124.767 46.081 124.767 45.1361 125.349 44.5545L138.372 31.5313L42.1071 31.5318C41.2845 31.5318 40.6163 30.8636 40.6162 30.0409C40.6162 29.6275 40.7851 29.2565 41.0547 28.9869C41.3246 28.717 41.6977 28.5502 42.1087 28.5485L138.374 28.5479L125.349 15.5235C124.767 14.9415 124.767 13.997 125.349 13.4154C125.931 12.8338 126.876 12.8339 127.457 13.4155L144.079 30.0408Z" fill="white"></path> </svg> 