<?xml version="1.0" encoding="UTF-8"?> <svg xmlns="http://www.w3.org/2000/svg" width="59" height="59" viewBox="0 0 59 59" fill="none"> <circle cx="29.5" cy="29.5" r="29.5" fill="#3595FE"></circle> <path d="M23.355 36.216C22.839 36.216 22.371 36.168 21.951 36.072C21.543 35.988 21.171 35.874 20.835 35.73C20.511 35.586 20.211 35.424 19.935 35.244C19.671 35.052 19.431 34.854 19.215 34.65L19.953 33.678C20.145 33.846 20.349 34.014 20.565 34.182C20.781 34.338 21.015 34.476 21.267 34.596C21.531 34.716 21.819 34.812 22.131 34.884C22.455 34.956 22.809 34.992 23.193 34.992C23.601 34.992 23.979 34.932 24.327 34.812C24.687 34.68 24.999 34.5 25.263 34.272C25.527 34.044 25.731 33.768 25.875 33.444C26.031 33.12 26.109 32.76 26.109 32.364C26.109 31.572 25.851 30.954 25.335 30.51C24.831 30.066 24.147 29.844 23.283 29.844C22.803 29.844 22.395 29.904 22.059 30.024C21.723 30.144 21.351 30.318 20.943 30.546L20.151 30.042L20.529 24.516H27.027V25.794H21.843L21.537 29.196C21.873 29.052 22.197 28.938 22.509 28.854C22.833 28.77 23.217 28.728 23.661 28.728C24.213 28.728 24.729 28.8 25.209 28.944C25.689 29.088 26.103 29.31 26.451 29.61C26.811 29.898 27.093 30.27 27.297 30.726C27.501 31.17 27.603 31.704 27.603 32.328C27.603 32.952 27.483 33.504 27.243 33.984C27.015 34.464 26.703 34.872 26.307 35.208C25.911 35.532 25.455 35.784 24.939 35.964C24.435 36.132 23.907 36.216 23.355 36.216ZM35.624 36V32.832H29.702V31.842L35.444 24.516H37.028V31.644H38.81V32.832H37.028V36H35.624ZM31.34 31.644H35.624V28.08C35.636 27.768 35.648 27.432 35.66 27.072C35.672 26.7 35.69 26.358 35.714 26.046H35.624C35.444 26.322 35.252 26.604 35.048 26.892C34.844 27.168 34.646 27.444 34.454 27.72L31.34 31.644Z" fill="white"></path> </svg> 