<?xml version="1.0" encoding="UTF-8"?> <svg xmlns="http://www.w3.org/2000/svg" width="201" height="59" viewBox="0 0 201 59" fill="none"> <path d="M23.8385 25.56H20.1265V23.8H29.6305V25.56H25.9185V35H23.8385V25.56ZM38.1565 30.776C38.1565 30.9147 38.1458 31.112 38.1245 31.368H31.4205C31.5378 31.9973 31.8418 32.4987 32.3325 32.872C32.8338 33.2347 33.4525 33.416 34.1885 33.416C35.1272 33.416 35.9005 33.1067 36.5085 32.488L37.5805 33.72C37.1965 34.1787 36.7112 34.5253 36.1245 34.76C35.5378 34.9947 34.8765 35.112 34.1405 35.112C33.2018 35.112 32.3752 34.9253 31.6605 34.552C30.9458 34.1787 30.3912 33.6613 29.9965 33C29.6125 32.328 29.4205 31.5707 29.4205 30.728C29.4205 29.896 29.6072 29.1493 29.9805 28.488C30.3645 27.816 30.8925 27.2933 31.5645 26.92C32.2365 26.5467 32.9938 26.36 33.8365 26.36C34.6685 26.36 35.4098 26.5467 36.0605 26.92C36.7218 27.2827 37.2338 27.8 37.5965 28.472C37.9698 29.1333 38.1565 29.9013 38.1565 30.776ZM33.8365 27.96C33.1965 27.96 32.6525 28.152 32.2045 28.536C31.7672 28.9093 31.5005 29.4107 31.4045 30.04H36.2525C36.1672 29.4213 35.9058 28.92 35.4685 28.536C35.0312 28.152 34.4872 27.96 33.8365 27.96ZM43.1073 26.36C44.3659 26.36 45.3259 26.664 45.9873 27.272C46.6593 27.8693 46.9953 28.776 46.9953 29.992V35H45.1073V33.96C44.8619 34.3333 44.5099 34.6213 44.0513 34.824C43.6033 35.016 43.0593 35.112 42.4193 35.112C41.7793 35.112 41.2193 35.0053 40.7393 34.792C40.2593 34.568 39.8859 34.264 39.6193 33.88C39.3633 33.4853 39.2353 33.0427 39.2353 32.552C39.2353 31.784 39.5179 31.1707 40.0833 30.712C40.6593 30.2427 41.5606 30.008 42.7873 30.008H44.9953V29.88C44.9953 29.2827 44.8139 28.824 44.4513 28.504C44.0993 28.184 43.5713 28.024 42.8673 28.024C42.3873 28.024 41.9126 28.0987 41.4433 28.248C40.9846 28.3973 40.5953 28.6053 40.2753 28.872L39.4913 27.416C39.9393 27.0747 40.4779 26.8133 41.1073 26.632C41.7366 26.4507 42.4033 26.36 43.1073 26.36ZM42.8353 33.656C43.3366 33.656 43.7793 33.544 44.1633 33.32C44.5579 33.0853 44.8353 32.7547 44.9953 32.328V31.336H42.9313C41.7793 31.336 41.2033 31.7147 41.2033 32.472C41.2033 32.8347 41.3473 33.1227 41.6353 33.336C41.9233 33.5493 42.3233 33.656 42.8353 33.656ZM60.346 26.36C61.4233 26.36 62.2767 26.6747 62.906 27.304C63.5353 27.9227 63.85 28.856 63.85 30.104V35H61.85V30.36C61.85 29.6133 61.6847 29.0533 61.354 28.68C61.0233 28.296 60.5487 28.104 59.93 28.104C59.258 28.104 58.7193 28.328 58.314 28.776C57.9087 29.2133 57.706 29.8427 57.706 30.664V35H55.706V30.36C55.706 29.6133 55.5407 29.0533 55.21 28.68C54.8793 28.296 54.4047 28.104 53.786 28.104C53.1033 28.104 52.5593 28.3227 52.154 28.76C51.7593 29.1973 51.562 29.832 51.562 30.664V35H49.562V26.456H51.466V27.544C51.786 27.16 52.186 26.8667 52.666 26.664C53.146 26.4613 53.6793 26.36 54.266 26.36C54.906 26.36 55.4713 26.4827 55.962 26.728C56.4633 26.9627 56.858 27.3147 57.146 27.784C57.498 27.336 57.9513 26.9893 58.506 26.744C59.0607 26.488 59.674 26.36 60.346 26.36ZM81.3076 35L81.2916 27.576L77.6116 33.72H76.6836L73.0036 27.672V35H71.0196V23.8H72.7316L77.1796 31.224L81.5476 23.8H83.2596L83.2756 35H81.3076ZM89.3729 26.36C90.6315 26.36 91.5915 26.664 92.2529 27.272C92.9249 27.8693 93.2609 28.776 93.2609 29.992V35H91.3729V33.96C91.1275 34.3333 90.7755 34.6213 90.3169 34.824C89.8689 35.016 89.3249 35.112 88.6849 35.112C88.0449 35.112 87.4849 35.0053 87.0049 34.792C86.5249 34.568 86.1515 34.264 85.8849 33.88C85.6289 33.4853 85.5009 33.0427 85.5009 32.552C85.5009 31.784 85.7835 31.1707 86.3489 30.712C86.9249 30.2427 87.8262 30.008 89.0529 30.008H91.2609V29.88C91.2609 29.2827 91.0795 28.824 90.7169 28.504C90.3649 28.184 89.8369 28.024 89.1329 28.024C88.6529 28.024 88.1782 28.0987 87.7089 28.248C87.2502 28.3973 86.8609 28.6053 86.5409 28.872L85.7569 27.416C86.2049 27.0747 86.7435 26.8133 87.3729 26.632C88.0022 26.4507 88.6689 26.36 89.3729 26.36ZM89.1009 33.656C89.6022 33.656 90.0449 33.544 90.4289 33.32C90.8235 33.0853 91.1009 32.7547 91.2609 32.328V31.336H89.1969C88.0449 31.336 87.4689 31.7147 87.4689 32.472C87.4689 32.8347 87.6129 33.1227 87.9009 33.336C88.1889 33.5493 88.5889 33.656 89.1009 33.656ZM100.676 26.36C101.753 26.36 102.617 26.6747 103.268 27.304C103.918 27.9333 104.244 28.8667 104.244 30.104V35H102.244V30.36C102.244 29.6133 102.068 29.0533 101.716 28.68C101.364 28.296 100.862 28.104 100.212 28.104C99.4756 28.104 98.8943 28.328 98.4676 28.776C98.041 29.2133 97.8276 29.848 97.8276 30.68V35H95.8276V26.456H97.7316V27.56C98.0623 27.1653 98.4783 26.8667 98.9796 26.664C99.481 26.4613 100.046 26.36 100.676 26.36ZM110.045 26.36C111.303 26.36 112.263 26.664 112.925 27.272C113.597 27.8693 113.933 28.776 113.933 29.992V35H112.045V33.96C111.799 34.3333 111.447 34.6213 110.989 34.824C110.541 35.016 109.997 35.112 109.357 35.112C108.717 35.112 108.157 35.0053 107.677 34.792C107.197 34.568 106.823 34.264 106.557 33.88C106.301 33.4853 106.173 33.0427 106.173 32.552C106.173 31.784 106.455 31.1707 107.021 30.712C107.597 30.2427 108.498 30.008 109.725 30.008H111.933V29.88C111.933 29.2827 111.751 28.824 111.389 28.504C111.037 28.184 110.509 28.024 109.805 28.024C109.325 28.024 108.85 28.0987 108.381 28.248C107.922 28.3973 107.533 28.6053 107.213 28.872L106.429 27.416C106.877 27.0747 107.415 26.8133 108.045 26.632C108.674 26.4507 109.341 26.36 110.045 26.36ZM109.773 33.656C110.274 33.656 110.717 33.544 111.101 33.32C111.495 33.0853 111.773 32.7547 111.933 32.328V31.336H109.869C108.717 31.336 108.141 31.7147 108.141 32.472C108.141 32.8347 108.285 33.1227 108.573 33.336C108.861 33.5493 109.261 33.656 109.773 33.656ZM125.058 26.456V33.704C125.058 36.712 123.522 38.216 120.45 38.216C119.628 38.216 118.85 38.1093 118.114 37.896C117.378 37.6933 116.77 37.3947 116.29 37L117.186 35.496C117.559 35.8053 118.028 36.0507 118.594 36.232C119.17 36.424 119.751 36.52 120.338 36.52C121.276 36.52 121.964 36.3067 122.402 35.88C122.839 35.4533 123.058 34.8027 123.058 33.928V33.48C122.716 33.8533 122.3 34.136 121.81 34.328C121.319 34.52 120.78 34.616 120.194 34.616C119.383 34.616 118.647 34.4453 117.986 34.104C117.335 33.752 116.818 33.2613 116.434 32.632C116.06 32.0027 115.874 31.2827 115.874 30.472C115.874 29.6613 116.06 28.9467 116.434 28.328C116.818 27.6987 117.335 27.2133 117.986 26.872C118.647 26.5307 119.383 26.36 120.194 26.36C120.812 26.36 121.372 26.4613 121.874 26.664C122.386 26.8667 122.812 27.176 123.154 27.592V26.456H125.058ZM120.498 32.92C121.255 32.92 121.874 32.696 122.354 32.248C122.844 31.7893 123.09 31.1973 123.09 30.472C123.09 29.7573 122.844 29.176 122.354 28.728C121.874 28.28 121.255 28.056 120.498 28.056C119.73 28.056 119.1 28.28 118.61 28.728C118.13 29.176 117.89 29.7573 117.89 30.472C117.89 31.1973 118.13 31.7893 118.61 32.248C119.1 32.696 119.73 32.92 120.498 32.92ZM135.719 30.776C135.719 30.9147 135.708 31.112 135.687 31.368H128.983C129.1 31.9973 129.404 32.4987 129.895 32.872C130.396 33.2347 131.015 33.416 131.751 33.416C132.69 33.416 133.463 33.1067 134.071 32.488L135.143 33.72C134.759 34.1787 134.274 34.5253 133.687 34.76C133.1 34.9947 132.439 35.112 131.703 35.112C130.764 35.112 129.938 34.9253 129.223 34.552C128.508 34.1787 127.954 33.6613 127.559 33C127.175 32.328 126.983 31.5707 126.983 30.728C126.983 29.896 127.17 29.1493 127.543 28.488C127.927 27.816 128.455 27.2933 129.127 26.92C129.799 26.5467 130.556 26.36 131.399 26.36C132.231 26.36 132.972 26.5467 133.623 26.92C134.284 27.2827 134.796 27.8 135.159 28.472C135.532 29.1333 135.719 29.9013 135.719 30.776ZM131.399 27.96C130.759 27.96 130.215 28.152 129.767 28.536C129.33 28.9093 129.063 29.4107 128.967 30.04H133.815C133.73 29.4213 133.468 28.92 133.031 28.536C132.594 28.152 132.05 27.96 131.399 27.96ZM148.424 26.36C149.501 26.36 150.355 26.6747 150.984 27.304C151.613 27.9227 151.928 28.856 151.928 30.104V35H149.928V30.36C149.928 29.6133 149.763 29.0533 149.432 28.68C149.101 28.296 148.627 28.104 148.008 28.104C147.336 28.104 146.797 28.328 146.392 28.776C145.987 29.2133 145.784 29.8427 145.784 30.664V35H143.784V30.36C143.784 29.6133 143.619 29.0533 143.288 28.68C142.957 28.296 142.483 28.104 141.864 28.104C141.181 28.104 140.637 28.3227 140.232 28.76C139.837 29.1973 139.64 29.832 139.64 30.664V35H137.64V26.456H139.544V27.544C139.864 27.16 140.264 26.8667 140.744 26.664C141.224 26.4613 141.757 26.36 142.344 26.36C142.984 26.36 143.549 26.4827 144.04 26.728C144.541 26.9627 144.936 27.3147 145.224 27.784C145.576 27.336 146.029 26.9893 146.584 26.744C147.139 26.488 147.752 26.36 148.424 26.36ZM162.594 30.776C162.594 30.9147 162.583 31.112 162.562 31.368H155.858C155.975 31.9973 156.279 32.4987 156.77 32.872C157.271 33.2347 157.89 33.416 158.626 33.416C159.565 33.416 160.338 33.1067 160.946 32.488L162.018 33.72C161.634 34.1787 161.149 34.5253 160.562 34.76C159.975 34.9947 159.314 35.112 158.578 35.112C157.639 35.112 156.813 34.9253 156.098 34.552C155.383 34.1787 154.829 33.6613 154.434 33C154.05 32.328 153.858 31.5707 153.858 30.728C153.858 29.896 154.045 29.1493 154.418 28.488C154.802 27.816 155.33 27.2933 156.002 26.92C156.674 26.5467 157.431 26.36 158.274 26.36C159.106 26.36 159.847 26.5467 160.498 26.92C161.159 27.2827 161.671 27.8 162.034 28.472C162.407 29.1333 162.594 29.9013 162.594 30.776ZM158.274 27.96C157.634 27.96 157.09 28.152 156.642 28.536C156.205 28.9093 155.938 29.4107 155.842 30.04H160.69C160.605 29.4213 160.343 28.92 159.906 28.536C159.469 28.152 158.925 27.96 158.274 27.96ZM169.363 26.36C170.44 26.36 171.304 26.6747 171.955 27.304C172.606 27.9333 172.931 28.8667 172.931 30.104V35H170.931V30.36C170.931 29.6133 170.755 29.0533 170.403 28.68C170.051 28.296 169.55 28.104 168.899 28.104C168.163 28.104 167.582 28.328 167.155 28.776C166.728 29.2133 166.515 29.848 166.515 30.68V35H164.515V26.456H166.419V27.56C166.75 27.1653 167.166 26.8667 167.667 26.664C168.168 26.4613 168.734 26.36 169.363 26.36ZM180.604 34.536C180.37 34.728 180.082 34.872 179.74 34.968C179.41 35.064 179.058 35.112 178.684 35.112C177.746 35.112 177.02 34.8667 176.508 34.376C175.996 33.8853 175.74 33.1707 175.74 32.232V28.12H174.332V26.52H175.74V24.568H177.74V26.52H180.028V28.12H177.74V32.184C177.74 32.6 177.842 32.92 178.044 33.144C178.247 33.3573 178.54 33.464 178.924 33.464C179.372 33.464 179.746 33.3467 180.044 33.112L180.604 34.536Z" fill="#B1B1B1"></path> <rect x="1.25" y="1.25" width="198.5" height="56.5" rx="28.25" stroke="#F2F2F2" stroke-width="2.5"></rect> </svg> 