<?xml version="1.0" encoding="UTF-8"?> <svg xmlns="http://www.w3.org/2000/svg" width="219" height="60" viewBox="0 0 219 60" fill="none"> <path d="M57.1034 23.8L52.2234 35H50.1754L45.2794 23.8H47.5354L51.2634 32.44L55.0234 23.8H57.1034ZM62.8933 23.8C63.8639 23.8 64.7066 23.96 65.4213 24.28C66.1466 24.6 66.7013 25.0587 67.0853 25.656C67.4693 26.2533 67.6613 26.9627 67.6613 27.784C67.6613 28.5947 67.4693 29.304 67.0853 29.912C66.7013 30.5093 66.1466 30.968 65.4213 31.288C64.7066 31.608 63.8639 31.768 62.8933 31.768H60.3653V35H58.2853V23.8H62.8933ZM62.7973 30.008C63.7039 30.008 64.3919 29.816 64.8612 29.432C65.3306 29.048 65.5653 28.4987 65.5653 27.784C65.5653 27.0693 65.3306 26.52 64.8612 26.136C64.3919 25.752 63.7039 25.56 62.7973 25.56H60.3653V30.008H62.7973ZM82.7165 33.256V35H74.3165V23.8H82.4925V25.544H76.3965V28.456H81.8045V30.168H76.3965V33.256H82.7165ZM89.6913 26.36C90.7686 26.36 91.6326 26.6747 92.2833 27.304C92.9339 27.9333 93.2593 28.8667 93.2593 30.104V35H91.2593V30.36C91.2593 29.6133 91.0833 29.0533 90.7313 28.68C90.3793 28.296 89.8779 28.104 89.2273 28.104C88.4913 28.104 87.9099 28.328 87.4833 28.776C87.0566 29.2133 86.8433 29.848 86.8433 30.68V35H84.8433V26.456H86.7473V27.56C87.0779 27.1653 87.4939 26.8667 87.9953 26.664C88.4966 26.4613 89.0619 26.36 89.6913 26.36ZM104.355 26.456V33.704C104.355 36.712 102.819 38.216 99.7465 38.216C98.9252 38.216 98.1465 38.1093 97.4105 37.896C96.6745 37.6933 96.0665 37.3947 95.5865 37L96.4825 35.496C96.8558 35.8053 97.3252 36.0507 97.8905 36.232C98.4665 36.424 99.0478 36.52 99.6345 36.52C100.573 36.52 101.261 36.3067 101.699 35.88C102.136 35.4533 102.355 34.8027 102.355 33.928V33.48C102.013 33.8533 101.597 34.136 101.107 34.328C100.616 34.52 100.077 34.616 99.4905 34.616C98.6798 34.616 97.9438 34.4453 97.2825 34.104C96.6318 33.752 96.1145 33.2613 95.7305 32.632C95.3572 32.0027 95.1705 31.2827 95.1705 30.472C95.1705 29.6613 95.3572 28.9467 95.7305 28.328C96.1145 27.6987 96.6318 27.2133 97.2825 26.872C97.9438 26.5307 98.6798 26.36 99.4905 26.36C100.109 26.36 100.669 26.4613 101.171 26.664C101.683 26.8667 102.109 27.176 102.451 27.592V26.456H104.355ZM99.7945 32.92C100.552 32.92 101.171 32.696 101.651 32.248C102.141 31.7893 102.387 31.1973 102.387 30.472C102.387 29.7573 102.141 29.176 101.651 28.728C101.171 28.28 100.552 28.056 99.7945 28.056C99.0265 28.056 98.3972 28.28 97.9065 28.728C97.4265 29.176 97.1865 29.7573 97.1865 30.472C97.1865 31.1973 97.4265 31.7893 97.9065 32.248C98.3972 32.696 99.0265 32.92 99.7945 32.92ZM106.984 26.456H108.984V35H106.984V26.456ZM107.992 25.048C107.629 25.048 107.325 24.936 107.08 24.712C106.835 24.4773 106.712 24.1893 106.712 23.848C106.712 23.5067 106.835 23.224 107.08 23C107.325 22.7653 107.629 22.648 107.992 22.648C108.355 22.648 108.659 22.76 108.904 22.984C109.149 23.1973 109.272 23.4693 109.272 23.8C109.272 24.152 109.149 24.4507 108.904 24.696C108.669 24.9307 108.365 25.048 107.992 25.048ZM116.457 26.36C117.534 26.36 118.398 26.6747 119.049 27.304C119.7 27.9333 120.025 28.8667 120.025 30.104V35H118.025V30.36C118.025 29.6133 117.849 29.0533 117.497 28.68C117.145 28.296 116.644 28.104 115.993 28.104C115.257 28.104 114.676 28.328 114.249 28.776C113.822 29.2133 113.609 29.848 113.609 30.68V35H111.609V26.456H113.513V27.56C113.844 27.1653 114.26 26.8667 114.761 26.664C115.262 26.4613 115.828 26.36 116.457 26.36ZM130.672 30.776C130.672 30.9147 130.661 31.112 130.64 31.368H123.936C124.053 31.9973 124.357 32.4987 124.848 32.872C125.349 33.2347 125.968 33.416 126.704 33.416C127.643 33.416 128.416 33.1067 129.024 32.488L130.096 33.72C129.712 34.1787 129.227 34.5253 128.64 34.76C128.053 34.9947 127.392 35.112 126.656 35.112C125.717 35.112 124.891 34.9253 124.176 34.552C123.461 34.1787 122.907 33.6613 122.512 33C122.128 32.328 121.936 31.5707 121.936 30.728C121.936 29.896 122.123 29.1493 122.496 28.488C122.88 27.816 123.408 27.2933 124.08 26.92C124.752 26.5467 125.509 26.36 126.352 26.36C127.184 26.36 127.925 26.5467 128.576 26.92C129.237 27.2827 129.749 27.8 130.112 28.472C130.485 29.1333 130.672 29.9013 130.672 30.776ZM126.352 27.96C125.712 27.96 125.168 28.152 124.72 28.536C124.283 28.9093 124.016 29.4107 123.92 30.04H128.768C128.683 29.4213 128.421 28.92 127.984 28.536C127.547 28.152 127.003 27.96 126.352 27.96ZM140.625 30.776C140.625 30.9147 140.615 31.112 140.593 31.368H133.889C134.007 31.9973 134.311 32.4987 134.801 32.872C135.303 33.2347 135.921 33.416 136.657 33.416C137.596 33.416 138.369 33.1067 138.977 32.488L140.049 33.72C139.665 34.1787 139.18 34.5253 138.593 34.76C138.007 34.9947 137.345 35.112 136.609 35.112C135.671 35.112 134.844 34.9253 134.129 34.552C133.415 34.1787 132.86 33.6613 132.465 33C132.081 32.328 131.889 31.5707 131.889 30.728C131.889 29.896 132.076 29.1493 132.449 28.488C132.833 27.816 133.361 27.2933 134.033 26.92C134.705 26.5467 135.463 26.36 136.305 26.36C137.137 26.36 137.879 26.5467 138.529 26.92C139.191 27.2827 139.703 27.8 140.065 28.472C140.439 29.1333 140.625 29.9013 140.625 30.776ZM136.305 27.96C135.665 27.96 135.121 28.152 134.673 28.536C134.236 28.9093 133.969 29.4107 133.873 30.04H138.721C138.636 29.4213 138.375 28.92 137.937 28.536C137.5 28.152 136.956 27.96 136.305 27.96ZM144.45 27.704C145.026 26.808 146.04 26.36 147.49 26.36V28.264C147.32 28.232 147.165 28.216 147.026 28.216C146.248 28.216 145.64 28.4453 145.202 28.904C144.765 29.352 144.546 30.0027 144.546 30.856V35H142.546V26.456H144.45V27.704ZM149.187 26.456H151.187V35H149.187V26.456ZM150.195 25.048C149.832 25.048 149.528 24.936 149.283 24.712C149.038 24.4773 148.915 24.1893 148.915 23.848C148.915 23.5067 149.038 23.224 149.283 23C149.528 22.7653 149.832 22.648 150.195 22.648C150.558 22.648 150.862 22.76 151.107 22.984C151.352 23.1973 151.475 23.4693 151.475 23.8C151.475 24.152 151.352 24.4507 151.107 24.696C150.872 24.9307 150.568 25.048 150.195 25.048ZM158.66 26.36C159.737 26.36 160.601 26.6747 161.252 27.304C161.903 27.9333 162.228 28.8667 162.228 30.104V35H160.228V30.36C160.228 29.6133 160.052 29.0533 159.7 28.68C159.348 28.296 158.847 28.104 158.196 28.104C157.46 28.104 156.879 28.328 156.452 28.776C156.025 29.2133 155.812 29.848 155.812 30.68V35H153.812V26.456H155.716V27.56C156.047 27.1653 156.463 26.8667 156.964 26.664C157.465 26.4613 158.031 26.36 158.66 26.36ZM173.323 26.456V33.704C173.323 36.712 171.787 38.216 168.715 38.216C167.894 38.216 167.115 38.1093 166.379 37.896C165.643 37.6933 165.035 37.3947 164.555 37L165.451 35.496C165.825 35.8053 166.294 36.0507 166.859 36.232C167.435 36.424 168.017 36.52 168.603 36.52C169.542 36.52 170.23 36.3067 170.667 35.88C171.105 35.4533 171.323 34.8027 171.323 33.928V33.48C170.982 33.8533 170.566 34.136 170.075 34.328C169.585 34.52 169.046 34.616 168.459 34.616C167.649 34.616 166.913 34.4453 166.251 34.104C165.601 33.752 165.083 33.2613 164.699 32.632C164.326 32.0027 164.139 31.2827 164.139 30.472C164.139 29.6613 164.326 28.9467 164.699 28.328C165.083 27.6987 165.601 27.2133 166.251 26.872C166.913 26.5307 167.649 26.36 168.459 26.36C169.078 26.36 169.638 26.4613 170.139 26.664C170.651 26.8667 171.078 27.176 171.419 27.592V26.456H173.323ZM168.763 32.92C169.521 32.92 170.139 32.696 170.619 32.248C171.11 31.7893 171.355 31.1973 171.355 30.472C171.355 29.7573 171.11 29.176 170.619 28.728C170.139 28.28 169.521 28.056 168.763 28.056C167.995 28.056 167.366 28.28 166.875 28.728C166.395 29.176 166.155 29.7573 166.155 30.472C166.155 31.1973 166.395 31.7893 166.875 32.248C167.366 32.696 167.995 32.92 168.763 32.92Z" fill="#B1B1B1"></path> <rect x="1.25" y="1.25" width="216.5" height="57.5" rx="28.75" stroke="#F2F2F2" stroke-width="2.5"></rect> </svg> 