<?xml version="1.0" encoding="UTF-8"?> <svg xmlns="http://www.w3.org/2000/svg" width="114" height="60" viewBox="0 0 114 60" fill="none"> <path d="M30.1177 35.16C28.987 35.16 27.963 34.9147 27.0457 34.424C26.139 33.9227 25.4244 33.2347 24.9017 32.36C24.3897 31.4853 24.1337 30.4987 24.1337 29.4C24.1337 28.3013 24.395 27.3147 24.9177 26.44C25.4404 25.5653 26.155 24.8827 27.0617 24.392C27.979 23.8907 29.003 23.64 30.1337 23.64C31.051 23.64 31.8884 23.8 32.6457 24.12C33.403 24.44 34.043 24.904 34.5657 25.512L33.2217 26.776C32.411 25.9013 31.4137 25.464 30.2297 25.464C29.4617 25.464 28.7737 25.6347 28.1657 25.976C27.5577 26.3067 27.083 26.7707 26.7417 27.368C26.4004 27.9653 26.2297 28.6427 26.2297 29.4C26.2297 30.1573 26.4004 30.8347 26.7417 31.432C27.083 32.0293 27.5577 32.4987 28.1657 32.84C28.7737 33.1707 29.4617 33.336 30.2297 33.336C31.4137 33.336 32.411 32.8933 33.2217 32.008L34.5657 33.288C34.043 33.896 33.3977 34.36 32.6297 34.68C31.8724 35 31.035 35.16 30.1177 35.16ZM41.2147 26.36C42.292 26.36 43.156 26.6747 43.8067 27.304C44.4574 27.9333 44.7827 28.8667 44.7827 30.104V35H42.7827V30.36C42.7827 29.6133 42.6067 29.0533 42.2547 28.68C41.9027 28.296 41.4014 28.104 40.7507 28.104C40.0147 28.104 39.4334 28.328 39.0067 28.776C38.58 29.2133 38.3667 29.848 38.3667 30.68V35H36.3667V23.128H38.3667V27.448C38.6974 27.096 39.1027 26.8293 39.5827 26.648C40.0734 26.456 40.6174 26.36 41.2147 26.36ZM50.5838 26.36C51.8425 26.36 52.8025 26.664 53.4638 27.272C54.1358 27.8693 54.4718 28.776 54.4718 29.992V35H52.5838V33.96C52.3385 34.3333 51.9865 34.6213 51.5278 34.824C51.0798 35.016 50.5358 35.112 49.8958 35.112C49.2558 35.112 48.6958 35.0053 48.2158 34.792C47.7358 34.568 47.3625 34.264 47.0958 33.88C46.8398 33.4853 46.7118 33.0427 46.7118 32.552C46.7118 31.784 46.9945 31.1707 47.5598 30.712C48.1358 30.2427 49.0371 30.008 50.2638 30.008H52.4718V29.88C52.4718 29.2827 52.2905 28.824 51.9278 28.504C51.5758 28.184 51.0478 28.024 50.3438 28.024C49.8638 28.024 49.3891 28.0987 48.9198 28.248C48.4611 28.3973 48.0718 28.6053 47.7518 28.872L46.9678 27.416C47.4158 27.0747 47.9545 26.8133 48.5838 26.632C49.2131 26.4507 49.8798 26.36 50.5838 26.36ZM50.3118 33.656C50.8131 33.656 51.2558 33.544 51.6398 33.32C52.0345 33.0853 52.3118 32.7547 52.4718 32.328V31.336H50.4078C49.2558 31.336 48.6798 31.7147 48.6798 32.472C48.6798 32.8347 48.8238 33.1227 49.1118 33.336C49.3998 33.5493 49.7998 33.656 50.3118 33.656ZM62.1746 34.536C61.9399 34.728 61.6519 34.872 61.3106 34.968C60.9799 35.064 60.6279 35.112 60.2546 35.112C59.3159 35.112 58.5906 34.8667 58.0786 34.376C57.5666 33.8853 57.3106 33.1707 57.3106 32.232V28.12H55.9026V26.52H57.3106V24.568H59.3106V26.52H61.5986V28.12H59.3106V32.184C59.3106 32.6 59.4119 32.92 59.6146 33.144C59.8172 33.3573 60.1106 33.464 60.4946 33.464C60.9426 33.464 61.3159 33.3467 61.6146 33.112L62.1746 34.536ZM68.5558 26.36C69.3878 26.36 70.1291 26.5413 70.7798 26.904C71.4411 27.2667 71.9585 27.7787 72.3318 28.44C72.7051 29.1013 72.8918 29.864 72.8918 30.728C72.8918 31.592 72.7051 32.36 72.3318 33.032C71.9585 33.6933 71.4411 34.2053 70.7798 34.568C70.1291 34.9307 69.3878 35.112 68.5558 35.112C67.9691 35.112 67.4305 35.0107 66.9398 34.808C66.4598 34.6053 66.0545 34.3013 65.7238 33.896V35H63.8198V23.128H65.8198V27.496C66.1611 27.1227 66.5611 26.84 67.0198 26.648C67.4891 26.456 68.0011 26.36 68.5558 26.36ZM68.3318 33.4C69.0678 33.4 69.6705 33.1547 70.1398 32.664C70.6198 32.1733 70.8598 31.528 70.8598 30.728C70.8598 29.928 70.6198 29.2827 70.1398 28.792C69.6705 28.3013 69.0678 28.056 68.3318 28.056C67.8518 28.056 67.4198 28.168 67.0358 28.392C66.6518 28.6053 66.3478 28.9147 66.1238 29.32C65.8998 29.7253 65.7878 30.1947 65.7878 30.728C65.7878 31.2613 65.8998 31.7307 66.1238 32.136C66.3478 32.5413 66.6518 32.856 67.0358 33.08C67.4198 33.2933 67.8518 33.4 68.3318 33.4ZM78.6286 35.112C77.7646 35.112 76.9859 34.9253 76.2926 34.552C75.5992 34.1787 75.0552 33.6613 74.6606 33C74.2766 32.328 74.0846 31.5707 74.0846 30.728C74.0846 29.8853 74.2766 29.1333 74.6606 28.472C75.0552 27.8107 75.5992 27.2933 76.2926 26.92C76.9859 26.5467 77.7646 26.36 78.6286 26.36C79.5032 26.36 80.2872 26.5467 80.9806 26.92C81.6739 27.2933 82.2126 27.8107 82.5966 28.472C82.9912 29.1333 83.1886 29.8853 83.1886 30.728C83.1886 31.5707 82.9912 32.328 82.5966 33C82.2126 33.6613 81.6739 34.1787 80.9806 34.552C80.2872 34.9253 79.5032 35.112 78.6286 35.112ZM78.6286 33.4C79.3646 33.4 79.9726 33.1547 80.4526 32.664C80.9326 32.1733 81.1726 31.528 81.1726 30.728C81.1726 29.928 80.9326 29.2827 80.4526 28.792C79.9726 28.3013 79.3646 28.056 78.6286 28.056C77.8926 28.056 77.2846 28.3013 76.8046 28.792C76.3352 29.2827 76.1006 29.928 76.1006 30.728C76.1006 31.528 76.3352 32.1733 76.8046 32.664C77.2846 33.1547 77.8926 33.4 78.6286 33.4ZM90.2371 34.536C90.0024 34.728 89.7144 34.872 89.3731 34.968C89.0424 35.064 88.6904 35.112 88.3171 35.112C87.3784 35.112 86.6531 34.8667 86.1411 34.376C85.6291 33.8853 85.3731 33.1707 85.3731 32.232V28.12H83.9651V26.52H85.3731V24.568H87.3731V26.52H89.6611V28.12H87.3731V32.184C87.3731 32.6 87.4744 32.92 87.6771 33.144C87.8797 33.3573 88.1731 33.464 88.5571 33.464C89.0051 33.464 89.3784 33.3467 89.6771 33.112L90.2371 34.536Z" fill="#9B5AF0"></path> <rect x="1.25" y="1.25" width="111.5" height="57.5" rx="28.75" stroke="#9B5AF0" stroke-width="2.5"></rect> </svg> 