<?xml version="1.0" encoding="UTF-8"?> <svg xmlns="http://www.w3.org/2000/svg" width="118" height="59" viewBox="0 0 118 59" fill="none"> <path d="M21.5821 23.8H23.6621V35H21.5821V23.8ZM31.3475 26.36C32.4248 26.36 33.2888 26.6747 33.9395 27.304C34.5902 27.9333 34.9155 28.8667 34.9155 30.104V35H32.9155V30.36C32.9155 29.6133 32.7395 29.0533 32.3875 28.68C32.0355 28.296 31.5342 28.104 30.8835 28.104C30.1475 28.104 29.5662 28.328 29.1395 28.776C28.7128 29.2133 28.4995 29.848 28.4995 30.68V35H26.4995V26.456H28.4035V27.56C28.7342 27.1653 29.1502 26.8667 29.6515 26.664C30.1528 26.4613 30.7182 26.36 31.3475 26.36ZM42.5886 34.536C42.354 34.728 42.066 34.872 41.7246 34.968C41.394 35.064 41.042 35.112 40.6686 35.112C39.73 35.112 39.0046 34.8667 38.4926 34.376C37.9806 33.8853 37.7246 33.1707 37.7246 32.232V28.12H36.3166V26.52H37.7246V24.568H39.7246V26.52H42.0126V28.12H39.7246V32.184C39.7246 32.6 39.826 32.92 40.0286 33.144C40.2313 33.3573 40.5246 33.464 40.9086 33.464C41.3566 33.464 41.73 33.3467 42.0286 33.112L42.5886 34.536ZM51.9846 30.776C51.9846 30.9147 51.974 31.112 51.9526 31.368H45.2486C45.366 31.9973 45.67 32.4987 46.1606 32.872C46.662 33.2347 47.2806 33.416 48.0166 33.416C48.9553 33.416 49.7286 33.1067 50.3366 32.488L51.4086 33.72C51.0246 34.1787 50.5393 34.5253 49.9526 34.76C49.366 34.9947 48.7046 35.112 47.9686 35.112C47.03 35.112 46.2033 34.9253 45.4886 34.552C44.774 34.1787 44.2193 33.6613 43.8246 33C43.4406 32.328 43.2486 31.5707 43.2486 30.728C43.2486 29.896 43.4353 29.1493 43.8086 28.488C44.1926 27.816 44.7206 27.2933 45.3926 26.92C46.0646 26.5467 46.822 26.36 47.6646 26.36C48.4966 26.36 49.238 26.5467 49.8886 26.92C50.55 27.2827 51.062 27.8 51.4246 28.472C51.798 29.1333 51.9846 29.9013 51.9846 30.776ZM47.6646 27.96C47.0246 27.96 46.4806 28.152 46.0326 28.536C45.5953 28.9093 45.3286 29.4107 45.2326 30.04H50.0806C49.9953 29.4213 49.734 28.92 49.2966 28.536C48.8593 28.152 48.3153 27.96 47.6646 27.96ZM55.8098 27.704C56.3858 26.808 57.3991 26.36 58.8498 26.36V28.264C58.6791 28.232 58.5244 28.216 58.3858 28.216C57.6071 28.216 56.9991 28.4453 56.5618 28.904C56.1244 29.352 55.9058 30.0027 55.9058 30.856V35H53.9058V26.456H55.8098V27.704ZM68.8589 26.456L65.1949 35H63.1309L59.4669 26.456H61.5469L64.2029 32.792L66.9389 26.456H68.8589ZM70.1089 26.456H72.1089V35H70.1089V26.456ZM71.1169 25.048C70.7542 25.048 70.4502 24.936 70.2049 24.712C69.9595 24.4773 69.8369 24.1893 69.8369 23.848C69.8369 23.5067 69.9595 23.224 70.2049 23C70.4502 22.7653 70.7542 22.648 71.1169 22.648C71.4795 22.648 71.7835 22.76 72.0289 22.984C72.2742 23.1973 72.3969 23.4693 72.3969 23.8C72.3969 24.152 72.2742 24.4507 72.0289 24.696C71.7942 24.9307 71.4902 25.048 71.1169 25.048ZM82.7659 30.776C82.7659 30.9147 82.7552 31.112 82.7339 31.368H76.0299C76.1472 31.9973 76.4512 32.4987 76.9419 32.872C77.4432 33.2347 78.0619 33.416 78.7979 33.416C79.7365 33.416 80.5099 33.1067 81.1179 32.488L82.1899 33.72C81.8059 34.1787 81.3205 34.5253 80.7339 34.76C80.1472 34.9947 79.4859 35.112 78.7499 35.112C77.8112 35.112 76.9845 34.9253 76.2699 34.552C75.5552 34.1787 75.0005 33.6613 74.6059 33C74.2219 32.328 74.0299 31.5707 74.0299 30.728C74.0299 29.896 74.2165 29.1493 74.5899 28.488C74.9739 27.816 75.5019 27.2933 76.1739 26.92C76.8459 26.5467 77.6032 26.36 78.4459 26.36C79.2779 26.36 80.0192 26.5467 80.6699 26.92C81.3312 27.2827 81.8432 27.8 82.2059 28.472C82.5792 29.1333 82.7659 29.9013 82.7659 30.776ZM78.4459 27.96C77.8059 27.96 77.2619 28.152 76.8139 28.536C76.3765 28.9093 76.1099 29.4107 76.0139 30.04H80.8619C80.7765 29.4213 80.5152 28.92 80.0779 28.536C79.6405 28.152 79.0965 27.96 78.4459 27.96ZM97.8588 26.456L94.7068 35H92.7868L90.5788 29.112L88.3388 35H86.4188L83.2828 26.456H85.1708L87.4268 32.76L89.7788 26.456H91.4588L93.7628 32.792L96.0828 26.456H97.8588Z" fill="#70D6F5"></path> <rect x="1.25" y="1.25" width="115.5" height="56.5" rx="28.25" stroke="#70D6F5" stroke-width="2.5"></rect> </svg> 